/* XPM */
static char *result[] = {
/* columns rows colors chars-per-pixel */
"64 64 16 1 ",
"  c #545862",
". c #858B8F",
"X c #BCC3BE",
"o c #C7CDC9",
"O c #CED6CE",
"+ c #CED9CF",
"@ c #D0D7CF",
"# c #D2D9CF",
"$ c #CFD6D0",
"% c #CFD9D1",
"& c #D1D7D1",
"* c #D3DBD2",
"= c #D8DED5",
"- c #D6DDD8",
"; c #D8DFD8",
": c #D6E1D7",
/* pixels */
"***&=&****=&**=&***&&*##@#=######+#****&**#==#***&*&*%%%**&*=&==",
"******@==**&&*@**&*&@*###*:##+:####**@****##=*=**#*=:*$%*$***&&=",
"****=&**@***&&*=&**@@@#@###=#+####::@@@*&****#*@***&$*********&=",
"*&*@**&&&*&*=*&&*&***@*##=:#:+#+:%:#*@***&O&*****&**&*&****-****",
"*@&@**=*=******&@@*&OO#*##+++##::=*****@*=*-*&**&**%****:+%%****",
"*@*@*=&=*****&***@*&&@++##+:+:+++#####*@&&*&&***;==**&&*%+:%***%",
"@*==*****&%%*%&*+%*%**%-+##+#:+#**#*#==@***&*&*%&==***@*:+%%%%%*",
"=***=&*&&*******+%%**%%%##++##++:##=&*@*&*&**-****&**%O***%:%:%%",
"*&*-=*&=*****:%%*:%%%%***%%%%**%###=&**=*=@@*%%%:*%*********%*%*",
"**&****&****%*%:*%%*%%*%*-%%-**-##**&***@****%*:%%%*%#*&**%*%%**",
"*&****=&*&&*:*%:****%***%:$%%*-%@*#*****@=&=***%%%*%O@****+%%%%%",
"***&=**&*=**%%%***O+*=%$%%%%-*%%*@******&****%*****@**=&*=*+%*%%",
"****&**&+###%%%*:+##+:::%%*:****&*-*******=*=&@&*=*%=@*=*-**%%%*",
"*=**=*==*:**%##*##*++%%+%%%%*%*%%*%-%$#*=####@@#*:=***=@&&%*$%$*",
"**&&=******#*##****:%+:%+#:+%*--%%%%%***####**##****&***&&**&=**",
"##*##=**#*****#:**%%:*++:###%-%%*-:%%%****=@***=******&$%&**&***",
"==#####=:++%*%%:%*O****+%%****%%%---*****&**&******@%&%&--%*$**&",
"########%%+%*%%%%*=&***%%***&--%%%%%****=*==*&&*@**@-$&&%%*$O**&",
"##==####%:*%%*%%O*****%*-**&&&-%-:*%%*******&**&***#-$--%%%*&&**",
"**@@=#=#%%:%%:::%******%*&&*--$-*%&-**%-*****&******%%%%--%*&&&=",
"*&=&#*&=*%*:*%%*+:%::%%******%%*%%**%$%-&--%***&***&***%&*##&&==",
"*&**#=&**%*-%%:%%%%:**%:****%%-%%-:%-%%%-&-%=@******%%**&*#*=*&*",
"**&*&*&#*+:%%%:%%%%%%:%%%**%-%*-****%%%$--%%*==*&*=**$**=*#*=&&&",
"**=&=&=*+%:%%:%*%*:%%*%%*%--:%%%****%%--$$%%*=**=**&$$**&=*&&&&=",
"****=&*&*=#@**%%*%:%&-%%*&*-%*%%%**&O@&&%&$&-***#*####**###=#*@@",
"*****&*&=##@+%**:%:%&*%*-***:%---*&*****-&&&**#*##*##=###*#=@@&*",
"*&*****&##=#%%**-%%****&=-**%*%%********%*****%**##*#=*##=##=&&&",
"&***-*&&####%%***-*%&**-*$*-:%*:*-*-%:%*=+@+**%***:###*#####&&&&",
"**&*&&$&=##@##**--&************:*&**::%%:%*+**%#**=*#*:###+*&&=&",
"****-&$&===&@=%*-**;-********%%%*=#*%%%%****#**:**=*%**++#++###*",
"=&&&&-&-&&&@@##***&*&***********=*****%%*%#***#*:+*:%%:%#+*+**&&",
"=&&&-&&-&====*=+&***&*&***=#%***==************#:+:##*%%**+#***&*",
"***=O*==&&***%%*==*=****#+*#*++++*=&@@@@:%%%********:%%*%%******",
"**+#***&****%%--&*@#*=**#:#++*#%****@OO**:%%*=****%%*%**%$O&*@**",
"==*****=-*--%-$*********#*+++#%***=*@@##%%%****::%%%:++:-%--****",
"*O**#%#***$--%%*-********+:+#+##O&**=*#****%*%**%%%%%**:%-%*=*==",
"****#&****@***O%%%%*&=***#**#=#*==*&@=#***%****::++:+%#:***@*$&*",
"****#=*#&*#*@@*O%*%****-******#@&*=&&#=#OO+%%%**%%%+:%::**===***",
"=**#=#=#=#*=*#+##***&@%*&******&&=**=#@=**%%%***::%+++%+O%******",
"****#######=#####%****#+O*=*****=&@*=###*%*%%**%:%%:%::++O*=****",
"&&=*&&&=##=##=:::+******&=**=@@*&*=@==###=##%%%%*:**=&#**+&&&&**",
"=*&&&=&@###=&&**%:=*****=****&***=**#:=####:**--%%***&**%****=**",
"&&****#@&*=*=***:%+@*&@&@@***=&**#*=:#*##*##%**%:%*=*&**+**%*$*=",
"=&&*=&##&***=&**++*O&***=************#*:**#:%%**%-*=*=**O%******",
"#*&&#@##&*-*-**&&**&*&*=*******%***%#:###=@@&**@*%=*#*#*%%:%*%*&",
"*@=*#@&@&-***&*=&&-*********$**%:*%:+++##*=&**@*%***:***+%%%%***",
"******&*&*-&&*&&&*=&*****&**&**$%+%*#+++==&==****=**:#*:%%******",
"**=&***&***=--=&&=**=***&&**=&**%*#%:+::*#=@**#==*%*+#:%%%$%****",
"*****&-%&--*-***&=&=*&&****@-&**:##*:%%:*+%+++%+O**##=###+#O****",
"***&--*%*&*-=%-***=*=&=**&***&**+#:*%:%%*+%+::%:%=O####=##**+***",
"=*=*&&$$--***&&*=&=****&*==**&***:#*:%:%:++:%%%%**%*#=#####*****",
"&*=*--&$&**---**@**@&**&@**&**-**#++%+%%%+:%%++:%*#*##=######***",
"**;**=--**-****-&&=@***&&&****$**##*:%%%%:%+%%+%**:###===&***%*%",
"*&&&&-$-%***%***&&&==*;*=#*=**-*##OO%:%%%%%+%+%%%%::*=#=@#@**O**",
"****&---*%**&&&*&*&*&*&*@#==--%-%*#*%%%%%%%%*%*%:%%*****=@*%*=**",
"****&&$$**=*&***&=**&==*##***%%%%O+++%%+++%%%+%*:**%#**#*@%%****",
"--&%$$---*#*&#*=**&*&---*::*%*%:=*%%:*+++++%%**%*=OO&@@@#@+**=**",
"*&-%$$-&=====&=****&&-******::+%:*%:%:#%%O%::*=***+**&&=*#%%***=",
"**%$$$-%*=#=&=*=--=******=**%:*:%%:%******#****=********=%%**@**",
"$--%%-*%=*##*=&&&***--******%*%::%:%*******@+****=***+&=*%+*****",
"$***:%%%***:=***&@*=******&*****%+****=**@#@*-*=-%%******@&=&**=",
"X***-%:%%*:*&&&&@&**************::%***@@@@##***=***%@*&*=&&*****",
".*--%%:**:=***=*=&&==******#****%%****@&####&*#********=*@@*&&**",
" o-**%*%%*===*@&&*&&=**&=*#***+*+:@*@*=**##*%*********&**@*=@***"
};
