/* XPM */
static char *collect1709072904[] = {
/* columns rows colors chars-per-pixel */
"64 64 111 2 ",
"   c None",
".  c #010201",
"X  c #050C02",
"o  c #090A06",
"O  c #090909",
"+  c #021202",
"@  c #0A1204",
"#  c #021A02",
"$  c #0C1C04",
"%  c #0E140C",
"&  c #0A1C08",
"*  c #101F02",
"=  c #12160D",
"-  c #131B0D",
";  c #161616",
":  c #141A11",
">  c gray11",
",  c #042302",
"<  c #0F2701",
"1  c #0B240A",
"2  c #0C2909",
"3  c #122402",
"4  c #142C02",
"5  c #192C01",
"6  c #14220C",
"7  c #1E270F",
"8  c #132D0F",
"9  c #192808",
"0  c #143701",
"q  c #1A3401",
"w  c #153801",
"e  c #1F3F01",
"r  c #1B350D",
"t  c #1F2715",
"y  c #1D2C10",
"u  c #133410",
"i  c #203F01",
"p  c #232D15",
"a  c #232D1A",
"s  c #223412",
"d  c #263814",
"f  c #2B3B16",
"g  c #25341C",
"h  c #2B351C",
"j  c #2E2E2E",
"k  c #2C3325",
"l  c #313D23",
"z  c #343C2B",
"x  c #343830",
"c  c #3A3C39",
"v  c #214102",
"b  c #26410B",
"n  c #2E4A0F",
"m  c #2D4017",
"M  c #2C441A",
"N  c #304715",
"B  c #334F12",
"V  c #33451A",
"C  c #36491C",
"Z  c #3B4D1E",
"A  c #345012",
"S  c #34521B",
"D  c #3E541E",
"F  c #2C4220",
"G  c #3A4A22",
"H  c #31482A",
"J  c #3E4A2E",
"K  c #3F5220",
"L  c #3D512D",
"P  c #415B1D",
"I  c #405421",
"U  c #465C29",
"Y  c #4A5F29",
"T  c #414537",
"R  c #42443E",
"E  c #425031",
"W  c #495736",
"Q  c #445E32",
"!  c #4B5A37",
"~  c #4C6426",
"^  c #4D662A",
"/  c #526A2D",
"(  c #436131",
")  c #4E683A",
"_  c #526336",
"`  c #566D33",
"'  c #546A3A",
"]  c #5C743B",
"[  c #4F5B43",
"{  c #505E43",
"}  c #54584F",
"|  c #535352",
" . c #526343",
".. c #5B7243",
"X. c #637B44",
"o. c #677E4B",
"O. c #687E4C",
"+. c #60645B",
"@. c #6E6E6E",
"#. c #6B824C",
"$. c #6D8450",
"%. c #798F5B",
"&. c #7A935E",
"*. c #829368",
"=. c #859D69",
"-. c #899472",
";. c #8DA26A",
":. c #94A27B",
">. c #C6D8A5",
",. c #C8DBA5",
"<. c #CDE0AB",
/* pixels */
"                                                                                                                                ",
"                                                                                                                                ",
"                                                                                                                                ",
"                                                                                                                                ",
"                                                                                                                                ",
"                                                                                                                                ",
"                                                                                                                                ",
"                                                                                                                                ",
"                              . . . O                                                                                           ",
"                              . . . O                                                                                           ",
"                              # + . .                                                                                           ",
"                              + # # . O                                                                                         ",
"                                + , X . O                                                                                       ",
"                                X , , X .                                                                                       ",
"                                O # u g . O                                                                                     ",
"                                  X 8 M . .                                                                                     ",
"                                  o + M a . .                                                                                   ",
"                                    X 2 M $ . O                                                                                 ",
"                                    o # r y . . .                                                                               ",
"                                      X @ - X . . . O & H T O . O . . . O . . . % % 1 1 o O                                     ",
"                                      O ; c O . . . $ ( &.:.k . . . . . . . . X -.....) 6 . o                                   ",
"                                      . > @.j . . - Q O.] p . O               .  .] ] o.L X X                                   ",
"                                      O > @.j . . W O.] ~ y . O               . d ~ ~ ` U & X                                   ",
"                                      . ; | x z O.#...~ ~ h +.J R O           . C ~ ~ ~ ~ ' g X                                 ",
"                                      O = E ..#.X.` ^ ~ ~ 7 . } } @ 4 5 5 5 5 f Y ~ ~ ~ ~ X....                                 ",
"                                      . a =.%./ ~ ~ ~ ~ ~ ;.,.. . . . 6 t t a #.` ~ ~ / #.a o .                                 ",
"                                      X H <.*.C S S S S S ( =.+ X X X M L J J ! G V V _ ,.z . X                                 ",
"                                      . : { a @ 0 0 q q 0 0 0 w 0 0 0 0 < . X . . X X = { l o .                                 ",
"                                      . + < q w e e e e e e e e e e e e e w q q w q q q $ m o .                                 ",
"                                      . & b e e e e e e e e e e e e e e e e v v e e v v 3 f @ .                                 ",
"                                      . 6 A e e e e e e e e e e e e e e e e v i e e e e 3 f @ .                                 ",
"                                      O s A q e e e e e e e e e e e v e e e e i e e e e 3 X . .                                 ",
"                                      o D A q e e e e e e e e e e e e e v e e e e e e e 3 X . .                                 ",
"                                      o K A e e e e e e v e e e e e e e e e e e e e e e 3 + = .                                 ",
"                                      o K A e e e e e e e e e e e e e e e e e e e e e v q s V .                                 ",
"                                      o K A e e e e e e e e e e e e e e e e e e e e e e $ D P .                                 ",
"                                      o K A e v e e e e e e e e e e e e e e e e e e e q 3 D K .                                 ",
"                                      o K A e e e v e e e e e e e e e e e e e e e e e q X Z K .                                 ",
"                                      o K A e e e e e e e e e v v e e e e e e e e i e e q P K .                                 ",
"                                      o K A e e e v e e e e e e e e e e v e e e e e e i q D K .                                 ",
"                                      o D B i i e e e e e e e e e v e e e e e e e e e e q P I .                                 ",
"                                      o I B e i e e e e e e e e e e e e e v e e e e e v e P I .                                 ",
"                                      o K A i e e e e e e e e v e v e e e e e e e v e e v P K .                                 ",
"                                      o K A e e e e e v e e e e e e e e e e e e e e e e v P K .                                 ",
"                                      o K A v e e e e e e e e e e e e e e e e e e e e e v D K .                                 ",
"                                      o Z n e e e e e e e e e e e e e e v e v e e e e e v P K .                                 ",
"                                      O m q e e e e e e e e e e e e v e e e e e e e e e v P D .                                 ",
"                                      o m 4 e e e e e e e i e e e e e e e e e e e e e e v P K X                                 ",
"                                      o m 4 e e e e e e e i e e e e e e e e e e e e e e v P K .                                 ",
"                                      o m 4 v e e e e e e e e i v e e e e e e e e i e i i P K .                                 ",
"                                      o m $ q v e e e e e e i i e e e e e e i i e v v i i P D .                                 ",
"                                      X s X < q e e e e e e e i e e e e v e i v e e v v v M 6 .                                 ",
"                                      . . . . $ q e e q i i i i e i q i e q i i e i q q 9 $ . .                                 ",
"                                      O . . . . X X X X X X X X X X X X X X X X X X @ X . . . .                                 ",
"                                        . . . . . . . . . . . . . . . . . . . . . . . . . . .                                   ",
"                                                                                                                                ",
"                                                                                                                                ",
"                                                                                                                                ",
"                                                                                                                                ",
"                                                                                                                                ",
"                                                                                                                                ",
"                                                                                                                                ",
"                                                                                                                                ",
"                                                                                                                                "
};
