/* XPM */
static char *left1709072905[] = {
/* columns rows colors chars-per-pixel */
"64 64 106 2 ",
"   c None",
".  c #010101",
"X  c #0C0C0C",
"o  c #0D0E11",
"O  c #0E1114",
"+  c #141414",
"@  c #141619",
"#  c #15191B",
"$  c #1B1C1C",
"%  c #101F23",
"&  c #1C1F22",
"*  c #0F2126",
"=  c #0F262C",
"-  c #0D282F",
";  c #1D2124",
":  c #16272B",
">  c #1F252C",
",  c #13282D",
"<  c #162C33",
"1  c #0D303A",
"2  c #13333C",
"3  c #232323",
"4  c #232728",
"5  c #262A2B",
"6  c #2A2A2A",
"7  c #322324",
"8  c #252E33",
"9  c #282F37",
"0  c #292F38",
"q  c #253134",
"w  c #293037",
"e  c #233439",
"r  c #2A313A",
"t  c #21383E",
"y  c #133B45",
"u  c #103D4A",
"i  c #2D3640",
"p  c #203C43",
"a  c #2F3841",
"s  c #323A44",
"d  c #353F49",
"f  c #393F48",
"g  c #13414D",
"h  c #1F414B",
"j  c #114756",
"k  c #1E4853",
"l  c #114B5B",
"z  c #37404A",
"x  c #3B434E",
"c  c #364451",
"v  c #3D4651",
"b  c #3E4954",
"n  c #3F4B58",
"m  c #145A6D",
"M  c #0A627B",
"N  c #424A55",
"B  c #424D5A",
"V  c #45515D",
"C  c #4A535E",
"Z  c #5A5A5A",
"A  c #475361",
"S  c #4A5663",
"D  c #4E5965",
"F  c #4F5A68",
"G  c #515B66",
"H  c #535D6A",
"J  c #57616D",
"K  c #59636E",
"L  c #5B6571",
"P  c #5E6874",
"I  c #656565",
"U  c #6F6F6F",
"Y  c #616B76",
"T  c #636D79",
"R  c #6A737E",
"E  c gray49",
"W  c #0D6881",
"Q  c #096E8A",
"!  c #09728E",
"~  c #0C7591",
"^  c #0B7F9E",
"/  c #0082A5",
"(  c #0C84A5",
")  c #0087AC",
"_  c #0B87A9",
"`  c #038EB4",
"'  c #088EB3",
"]  c #0494BB",
"[  c #029AC4",
"{  c #019ECA",
"}  c #00A2CE",
"|  c #01A5D1",
" . c #00A8D6",
".. c #00ACDB",
"X. c #01B0DF",
"o. c #01B3E3",
"O. c #01B7E8",
"+. c #01BAED",
"@. c #00BEF2",
"#. c #888888",
"$. c #9F9F9F",
"%. c #A4A4A4",
"&. c gray71",
"*. c gray82",
"=. c gray87",
"-. c #E1E1E1",
/* pixels */
"                                                                                                                                ",
"                                                                                                                                ",
"                                                                                                                                ",
"                                                                                                                                ",
"                                                                                                                                ",
"                                                                                                                                ",
"                                                                                                                                ",
"                                                                                                                                ",
"                                                                                                                                ",
"                                                                                                                                ",
"                                                                                                                                ",
"                                                                                                                                ",
"                                                                                                                                ",
"                                              X +                                                                               ",
"                                            . 6 ;                                                                               ",
"                                            . 3 .                                                                               ",
"                                  . . . . . . . .                                                                               ",
"                        . . . . . . . . . . . . . . . . . . . . . . . . . . . . . . . . . . . . . . . . . . . X                 ",
"                    . . . . . o + o o X . X . . X o o o O O O O + O . @ @ O # # # # # # & O . X X X X X X . X $ + X             ",
"                . . . . o + + $ $ @ + o . B O X z b S A S S S S A B . n B A B B A B V B s w X + $ @ @ + + X X $ + o X           ",
"            . . . X + + $ $ $ 3 3 3 @ + X D H D + X x v C C C C A d X s x N N n n n n s @ 8 O + $ $ $ $ $ $ + $ + o $ .         ",
"          . . X + + $ $ 3 3 3 3 3 $ @ . G P Y L G B O o d z z N a + o o @ r i i i r r % a 9 + $ 3 3 3 3 $ $ + $ X o $ @         ",
"        . . X + + $ 3 3 3 6 3 3 3 $ @ . K R R P H C N x + + $ $ + + + # @ @ # $ + o & v d 9 O $ $ 3 3 3 3 $ $ $ X + $ I -.      ",
"      . . X + $ 3 3 3 3 3 3 3 3 3 $ + . L R R Y H N N s + $ $ + @ + $ $ 3 $ 3 $ $ + b n s 8 + $ 3 3 $ 3 3 $ + + X X $ &.-.      ",
"      . X + $ 3 7 6 3 3 3 3 3 3 3 $ + . K R T L G N x X o $ $ $ + @ $ 3 $ 7 3 3 $ + N N z q + $ $ 3 3 3 3 $ @ X X X $ E #.      ",
"      . o 3 6 6 6 4 6 3 4 $ q q 5 $ + . K T Y G S b x + + $ $ + + $ 3 $ $ $ $ 3 3 @ b N z w O $ 3 $ 3 3 3 3 $ o X X + 7 .       ",
"    . . 3 6 6 6 6 5 5 & 5 q ] | | < + . J Y K D B v x + + $ + + $ $ $ + $ + $ $ $ @ b B z w + $ $ 3 3 3 3 $ # o X X $ 3 X       ",
"    . X 6 6 9 5 5 ` } } } } @.@.@.< + X K Y J S V v x + + @ + @ + $ $ + o + @ $ $ + b n z q + $ 3 > 4 > 4 3 ; O X X $ 3 .       ",
"    . O $ 7 ' { } +.@.@.@.@.@.@.@.< + G Y Y J S B v x + + + + + $ + + + + + + $ 3 + v N z r @ g l l m m m m m # X X $ 3 .       ",
"    . ) [ { +.@.@.@.@.@.@.@.o.X.[ , o D Y Y K S V v x + X o + + + + + + + + $ $ $ + v N z e + ]  . .+.@.@.@.+.- X X $ 3 X       ",
"    . } @.@.@.@.+.O.O.O.O.} e 6 4 $ X Z Y Y K D V v x + + X + + + $ $ $ + + $ $ 3 @ b N z q @ ] X.X.X.X....._ % . X @ 3 .       ",
"    . } +.@.+.} h 6 6 4 6 4 6 3 4 $ o C Y Y K G A v f @ + + + + $ $ $ $ + $ $ $ $ @ b N z w + M ! ! ~ ! Q Q : + X X $ 3 X       ",
"    . 3 5 5 5 5 3 6 6 4 6 3 3 6 7 $ X C Y T Y G C f x + + $ $ $ $ $ $ + $ $ $ 3 $ + N b z w + # & $ % $ & $ @ + X X $ 3 .       ",
"    . ; 5 5 5 5 6 6 3 6 3 6 6 3 3 + + C Y Y L H C N N $ $ $ 3 3 3 3 $ + + $ $ 3 3 @ v N z w + g j j l l l l , @ X X $ 3 X       ",
"    . [ +.+.@.| h 5 8 8 q q 6 6 6 # o B K Y Y H A N f @ + $ $ 3 $ $ + + $ 3 7 $ 3 @ v N z w @ `  . . ... .X.M % X X + 3 X       ",
"    . [ @.@.@.@.@.+.@.@.@.| k t q $ + N L T T H A x N $ + 3 3 3 3 $ + + $ $ 3 3 $ # x N z w + ] X.X.O.+.+.+.+.1 X X $ 3 .       ",
"    . / } [ O.@.@.@.@.@.@.@.@.@. .2 + N H T Y H S N f # @ $ 3 3 $ $ + $ $ $ 3 3 $ @ N N z r @ m ~ ~ ( ( _ ( ( * X X $ 3 X       ",
"    . O & 7 ( [ [ O.@.@.@.@.@.@.@.y o d H Y Y H S N x # $ $ 3 $ $ + + $ 3 3 3 3 3 @ x N z r + $ $ 3 $ 3 3 3 3 o X X $ 3 X       ",
"    . X 4 6 6 5 4 ( [ [ [ ] O.+.@.y + . C Y Y L S N N + + 3 3 $ + + + $ $ 3 3 3 3 @ x n z r @ $ 3 3 3 3 3 3 $ + X X $ 6 +       ",
"    . . $ 6 6 6 6 6 6 $ 3 7 ( ] ] 2 + . N Y Y H D N x @ + $ 3 $ + + + $ 3 3 3 $ $ # x N z r @ @ $ 3 3 3 3 3 $ o X o $ Z I       ",
"      . X $ $ 4 3 4 4 6 3 3 3 $ 3 $ + . N Y Y K G N v & # $ 3 @ + + + $ $ 3 3 3 $ + x N z r # @ $ 3 3 3 3 $ $ + X o $ $.-.      ",
"      . X + $ 3 3 3 3 3 3 3 3 3 3 & $ . N Y T I G N v x & $ $ $ + + + $ @ 3 3 $ 3 @ w N d r # $ $ 3 3 3 3 3 + $ o + $ U *.      ",
"        . X + $ 3 3 3 3 6 3 3 3 3 3 @ X N L T P H N x s $ + $ $ + $ + + # $ $ 4 4 ; X 5 s 0 # $ 3 3 3 3 3 3 $ $ o + $ 3 %.      ",
"        . . X + $ $ 3 3 3 6 6 3 3 $ @ o N L P P C x 8 # # $ & & 3 $ + $ & ; > s c c > X & 8 # $ $ $ $ 3 $ $ + + o + $ $         ",
"            . . X + $ $ 3 3 3 3 7 $ $ o r G H G & X o x A S S V B N # s n B B B B B B > # & + + $ $ $ $ $ + o + + + + X         ",
"              . . . X + + $ 3 3 3 $ $ + . x @ . O r z c x x x x d f o 9 s s s s s s s i i O X X + + + X X X X + o @ .           ",
"                  . . . . X + + @ $ + + . . . . . . . . . . . . . . . . . . . . . . . . . . . X X X X . X . . X X + X           ",
"                      . . . . . . X o o . . . . . . . . . . . . . . . . . . . . . . . . . . . . . . . . . . . X X               ",
"                              . . . . . . . . . . . . . . . . . . . . . . . . . . . . . . . . . . . . . . . . .                 ",
"                                            . X .                                                                               ",
"                                            . 3 X                                                                               ",
"                                            . $ X                                                                               ",
"                                              . .                                                                               ",
"                                                                                                                                ",
"                                                                                                                                ",
"                                                                                                                                ",
"                                                                                                                                ",
"                                                                                                                                ",
"                                                                                                                                ",
"                                                                                                                                ",
"                                                                                                                                ",
"                                                                                                                                ",
"                                                                                                                                ",
"                                                                                                                                "
};
