/* XPM */
static char *right1709072905[] = {
/* columns rows colors chars-per-pixel */
"64 64 168 2 ",
"   c None",
".  c black",
"X  c #010101",
"o  c #020202",
"O  c gray1",
"+  c #030304",
"@  c #030405",
"#  c #040404",
"$  c gray2",
"%  c #060606",
"&  c #070707",
"*  c gray3",
"=  c #090909",
"-  c gray4",
";  c #0B0B0B",
":  c #0C0C0C",
">  c gray5",
",  c #0E0E0E",
"<  c gray6",
"1  c #101010",
"2  c #111111",
"3  c gray7",
"4  c #131313",
"5  c #131415",
"6  c gray8",
"7  c #151515",
"8  c #161616",
"9  c gray9",
"0  c #15181C",
"q  c #16191E",
"w  c #181818",
"e  c #191919",
"r  c gray10",
"t  c #1B1B1B",
"y  c gray11",
"u  c #1D1D1D",
"i  c #1E1E1E",
"p  c gray12",
"a  c #202020",
"s  c gray13",
"d  c #222222",
"f  c #232323",
"g  c gray14",
"h  c #252525",
"j  c gray15",
"k  c #272727",
"l  c #282828",
"z  c gray16",
"x  c #2A2A2A",
"c  c gray17",
"v  c #2C2C2C",
"b  c #2D2D2D",
"n  c #382020",
"m  c #262C32",
"M  c #262D33",
"N  c #262D34",
"B  c #272D34",
"V  c #272D35",
"C  c #272E35",
"Z  c #293037",
"A  c #313131",
"S  c #2F3D4C",
"D  c #333C46",
"F  c #333D46",
"G  c #343D47",
"H  c #343E48",
"J  c #303E4C",
"K  c #323F4E",
"L  c #33404F",
"P  c #37414C",
"I  c #3A424C",
"U  c #3B424C",
"Y  c #3B434C",
"T  c #3B434D",
"R  c #3C434D",
"E  c #3C444E",
"W  c #3D444E",
"Q  c #3D454F",
"!  c #344150",
"~  c #364351",
"^  c #374452",
"/  c #394553",
"(  c #3E4650",
")  c #3F4751",
"_  c #3F4A57",
"`  c #404851",
"'  c #404952",
"]  c #414A54",
"[  c #424A54",
"{  c #404B57",
"}  c #434C56",
"|  c #454E57",
" . c #404B58",
".. c #404C58",
"X. c #404C5A",
"o. c #414D5B",
"O. c #434D5A",
"+. c #424E5B",
"@. c #424E5C",
"#. c #434F5C",
"$. c #434F5D",
"%. c #44505D",
"&. c #45505D",
"*. c #44505E",
"=. c #45505E",
"-. c #45515F",
";. c #46525F",
":. c #465260",
">. c #475260",
",. c #475360",
"<. c #475361",
"1. c #485361",
"2. c #485461",
"3. c #495561",
"4. c #495462",
"5. c #495562",
"6. c #4A5562",
"7. c #4A5563",
"8. c #4A5663",
"9. c #4B5663",
"0. c #4B5764",
"q. c #4C5764",
"w. c #4C5765",
"e. c #4D5865",
"r. c #4E5966",
"t. c #4E5A66",
"y. c #4F5A67",
"u. c #505B68",
"i. c #515B69",
"p. c #515C69",
"a. c #525D6A",
"s. c #535E6B",
"d. c #545E6B",
"f. c #545F6C",
"g. c #55606C",
"h. c #56606D",
"j. c #56616D",
"k. c #57616E",
"l. c #57626E",
"z. c #58626F",
"x. c #58636F",
"c. c #596370",
"v. c #5A6470",
"b. c #5A6571",
"n. c #5B6572",
"m. c #5C6773",
"M. c #5D6873",
"N. c #5E6874",
"B. c #5F6974",
"V. c #5F6975",
"C. c #606975",
"Z. c #606A76",
"A. c #616B76",
"S. c #616B77",
"D. c #626C77",
"F. c #636C78",
"G. c #636D79",
"H. c #656F79",
"J. c #656F7A",
"K. c #656F7B",
"L. c #69737E",
"P. c #6A737E",
"I. c #6B747F",
"U. c #6D7681",
"Y. c #00A0CC",
"T. c #00BFF3",
"R. c #CDCDCD",
"E. c #ECECEC",
/* pixels */
"                                                                                                                                ",
"                                                                                                                                ",
"                                                                                                                                ",
"                                                                                                                                ",
"                                                                                                                                ",
"                                                                                                                                ",
"                                                                                                                                ",
"                                                                                                                                ",
"                                                                                                                                ",
"                                                                                                                                ",
"                                                                                                                                ",
"                                                                                                                                ",
"                                                                              . .                                               ",
"                                                                              . A .                                             ",
"                                                                              . A .                                             ",
"                                                                              . . O                                             ",
"                . . . . O . . . O . . . . . . . . . . . . . . . . . . . . . . . . . . . . . . . .                               ",
"              . 7 . O . . O . O # O . . . . . O . . . . . . . . . . . . . . . . . . . . < 1 1 . . . . . .                       ",
"          . 7 1 7 O # & ; ; ; ; < # . . . . . . . . . . . . . . . . . . . . . . # # . . < 6 r r r 7 7 . . . .                   ",
"          . 7 < w ; 1 4 7 7 7 w 7 < # &.&.&.&.&.%.-.&.-.&.. $.$.&.8.8.1.1.1.&.q . . n.. 1 7 a s s s y r 7 1 . . .               ",
"        . s 7 < w 1 r y y p p y t 1 Z . . :.&.-.-.-...%._ * ....1.0.0.0.0.. . . B.F.m._ 1 7 a k k k g s y t 7 6 . .             ",
"        k s 1 < r 7 p s f s f s t 1 C G . # L S S 5 6 1 5 1 6 6 1 7 < ; O M ..a.B.F.Z.s.1 7 y d k k k k k s y r 7 1 . .         ",
"      E.k s 7 < r 7 s f s f f s y 1 M F _ * 1 t y a y t w 7 6 7 r t r 1 E Q ) r.n.F.Z.g.O 7 a s s s s l k k s s y 7 1 .         ",
"      E.R.s 1 ; r r p s f s s s y 1 M P _ -.7 a d d s y r 5 6 6 r s y 7 E ( ) w.x.F.D.g.. 6 t s s k k s k k y k d y 8 1 .       ",
"      E.R.y 1 ; < r y s s f s s t 1 C G _ &.8 a s d s a t 6 1 6 r y s 7 < T ( w.l.F.V.l.. 5 t d y f f f k k l l l s y 1 .       ",
"      . k s 1 < < r y k f s f s t 1 C G _ -.8 a s d a a y w 6 6 r s y r ; T Q 8.l.V.F.n.. 1 t Y.Y.Y.l l 7 k k l l v c l . .     ",
"      . k y 1 ; 1 r s s s f s s t 1 C G ..&.7 a d d s s a 8 6 8 y s s r : T Q 8.s.B.F.n.. 1 8 T.T.T.Y.Y.Y.Y.Y.l l v v l 1 .     ",
"      . k y < # 1 r k s f s s s t 1 C G { &.7 a d d d s y 8 6 r y s s y < Q Q 1.g.B.F.n.8.1 8 T.T.T.T.T.T.T.T.Y.Y.Y.n y 7 .     ",
"      . k y < # 1 T.T.T.T.T.Y.Y.Y.1 C G { &.7 a d d s a w 6 8 t s s s r : T R 8.a.B.F.m.y.< 7 Y.T.T.T.T.T.T.T.T.T.T.Y.Y.Y..     ",
"      . k y < ; 1 T.T.T.T.T.T.T.T.1 C G _ -.7 a d d a t 8 6 w a s s a r < T Q &.a.B.F.B.i.< 7 k l l Y.T.T.T.T.T.T.T.T.T.T..     ",
"      . k r < # 1 r Y.Y.Y.Y.Y.Y.Y.1 M F _ -.6 y d s a r 6 7 t a s s a r < E Q &.i.n.F.Z.a.< 7 k k k k k k k k k Y.T.T.T.T..     ",
"      . k r < # 7 r r r r w r w r 1 M G _ &.6 a d a t 8 7 r a s s s y r < E ( :.r.n.F.Z.f.< 7 k k k k k k k k k k k k l l .     ",
"      . k y < # 7 w w r w r w r r 1 M F _ %.6 a s a r 6 8 y y a y y r w < T Q &.w.n.F.V.g.1 7 k k k k k k k k k k k k k k .     ",
"      . k r ; * 1 r Y.Y.Y.Y.Y.Y.Y.1 C F _ %.6 a s t 7 6 r y y r 7 7 1 7 : U E &.0.n.D.D.g.1 7 k k k k k k k k k Y.T.T.T.T..     ",
"      . k r : # 1 T.T.T.T.T.T.T.T.1 M F { &.7 a a 8 6 7 r r 8 7 5 1 1 1 ; T E $.8.g.F.F.n.1 7 k k k Y.T.T.T.T.T.T.T.T.T.T..     ",
"      . k r : * 1 T.T.T.T.T.Y.Y.Y.1 M P _ -.7 t a 8 6 7 8 7 6 7 6 1 1 1 ; T T $.8.g.D.F.x.1 7 Y.T.T.T.T.T.T.T.T.T.T.Y.Y.Y..     ",
"      . k r ; * 1 r y s d d d a y 1 C G _ &.6 a y 7 1 1 6 6 7 8 7 6 7 7 : T Q ..8.g.Z.F.n.1 7 T.T.T.T.T.T.T.T.Y.Y.Y.n y 6 .     ",
"      . k r ; ; < r a f d d d s y < C G _ -.6 y a 8 1 6 7 r t r 7 7 7 7 ; E ( $.8.g.D.F.. 1 r T.T.T.Y.Y.Y.Y.Y.k l v v c 1 .     ",
"      . k r : ; : r a s d d d y y < C F { &.6 y a t r w r y y w 7 7 r 7 ; Q ( $.w.g.D.J.. 1 r Y.Y.Y.l k 8 k k l l v l l . .     ",
"      . k r < ; : r s s d d d a y < C G _ &.6 a s a a a s y t 7 7 r y 7 # ( ( 8.a.n.J.H.. 7 y k k l t k k k k k l l l 1 .       ",
"      E.R.y < ; < 7 s d d d s a y < C D { $.7 y d d d s s y 8 6 9 y y 6 # ( { y.n.H.I.J.. 7 y s s s s k k s l l k t 7 < .       ",
"      E.R.r < < t 8 y d d d s a y < M F _ $.4 t y a a y y r 7 7 r y t 1 ( ` } f.Z.I.U.J.. 7 y s k s k s s k k y r 6 1 . .       ",
"      E.k r < < y 8 a d d d d a y < M G  .# < 1 7 7 7 7 7 5 6 6 w q 7 < ( ' | a.B.P.P.Z.. 7 y s s s l k k s y r 6 < . .         ",
"        . r < < y 7 y y s d d s y < C F . / ~ ~ L L L 0 : ; < P &.$...$.. . &.r.g.Z.C.z.. 7 s k k k s s y r 7 1 < . .           ",
"        . y 1 1 y 1 7 8 r t y t 8 < C . &.&.-.-.-.-.-.%.&.. &.1.9.9.8.8.&.1.. . r.a.i.. 1 7 y s y y r r 7 1 < . . .             ",
"          . 1 1 t * < < 1 1 6 6 1 ; Z &.&.&.&...&.&.%.%.&.. -.8.8.8.9.w.9.w.0.&.. . :.. < 7 r r r 7 1 < . . . .                 ",
"            . 1 y O # # # * ; ; ; @ . . . . . . . . . . . . . . . . . . . . . . . . . . < < 1 1 1 . . . . .                     ",
"                . . . . . . . . . . . . . . . . . . . . . . . . . . . . . . . . . . . . . . . . . . . .                         ",
"                                                                              . . . . . . . .                                   ",
"                                                                              . l .                                             ",
"                                                                              s v .                                             ",
"                                                                              7 #                                               ",
"                                                                                                                                ",
"                                                                                                                                ",
"                                                                                                                                ",
"                                                                                                                                ",
"                                                                                                                                ",
"                                                                                                                                ",
"                                                                                                                                ",
"                                                                                                                                ",
"                                                                                                                                ",
"                                                                                                                                ",
"                                                                                                                                ",
"                                                                                                                                "
};
