/* XPM */
static char *wall1709072905[] = {
/* columns rows colors chars-per-pixel */
"64 64 60 1 ",
"  c None",
". c black",
"X c #100808",
"o c #140B0A",
"O c #1A191B",
"+ c #311717",
"@ c #1B1A2A",
"# c #222034",
"$ c #492C24",
"% c #4D2F26",
"& c #522727",
"* c #552A28",
"= c #562B29",
"- c #582C2A",
"; c #5A2E2B",
": c #533429",
"> c #5E322D",
", c #5C383A",
"< c #60342E",
"1 c #62352F",
"2 c #62362F",
"3 c #663931",
"4 c #6B3D34",
"5 c #6E3F36",
"6 c #754539",
"7 c #77463A",
"8 c #77463B",
"9 c #7A493C",
"0 c #7D4A3D",
"q c #7E4C3E",
"w c #584D49",
"e c #5C5A57",
"r c #6C4742",
"t c #645D5D",
"y c #666665",
"u c #6A656C",
"i c #696A6A",
"p c #6E6E70",
"a c #706B76",
"s c #7B767C",
"d c #835141",
"f c #845547",
"g c #8A5544",
"h c #8B5745",
"j c #8F5A47",
"k c #925C48",
"l c #955F4A",
"z c #97604B",
"x c #99624C",
"c c #906555",
"v c #9E6D57",
"b c #9C705B",
"n c #A16850",
"m c #A6745B",
"M c #AF7458",
"N c #C38B6B",
"B c #D09B77",
"V c #7F7A81",
"C c #847E87",
"Z c #E2B38C",
/* pixels */
"                              ....                              ",
"                            ..3333..                            ",
"                          ..3&3333&3..                          ",
"                        ..3&3&3333&3&3..                        ",
"                      ..333&3&3333&3&333..                      ",
"                    ..3&333&3&3333&3&333&3..                    ",
"                  ..333&333&3&3333&3&333&333..                  ",
"                ..3&333&333&3&3333&3&333&333&3..                ",
"              ..333&333&333&3&3333&3&333&333&333..              ",
"            ..3&333&333&333&3&3333&3&333&333&333&3..            ",
"          ..333&333&333&333&3&3333&3&333&333&333&333..          ",
"        ..3&333&333&333&333&3&3333&3&333&333&333&333&3..        ",
"      oX333&333&333&333&333&3&3333&3&333&333&rrr,rrr,r33Xo      ",
"    oo3&333&333&333&333&333&3&3333&3&333&333&CuaaaaauC33&3oo    ",
"  oX333&333&333&333&333&333&3&3333&3&333&333&C.@###@.C33&333Xo  ",
" o3&333&333&333&333&333&333&3&3333&3&333&333&C..@@@..C33&333&3o ",
".33&333&333&333&333&333&333&3&3333&3&333&333&COOOOOOOC33&333&33.",
".33&333&333&333&333&333&333&3&3333&3&333&333&VVVVVVVVs33&333&33.",
".33&333&333&333&333&333&333&3&3333&3&333&333&ppppppppe33&333&33.",
".33&333&333&333&333&333&333&3&3333&3&333&333&CCCCCCCCi33&333&33.",
".33&333&333&333&333&333&333&3&3333&3&333&333&ssVVVVVVy33&333&33.",
".33&333&333&333&333&333&333&3&3333&3&333&333&weipppppe33&333&33.",
".33&333&333&333&333&333&333&3&3333&3&333&333&=ttVVCCCi33&333&33.",
".33&333&333&333&333&333&333&3&3333&3&333&333&3==ttsssy33&333&33.",
".33&333&333&333&333&333&333&3&3333&3&333&333&333&=wwee33&333&33.",
".33&333&333&333&333&333&333&3&3333&3&333&333&333&3==tt33&333&33.",
".33&333&333&333&333&333&333&3&3333&3&333&333&333&333&=33&333&33.",
".33&333&333&333&333&333&333&3&3333&3&333&333&333&333&333&333&33.",
".33&333&333&333&333&333&333&3&3333&3&333&333&333&333&333&333&33.",
".33&333&333&333&333&333&333&3&1111&3&333&333&333&333&333&333&33.",
".33&333&333&333&333&333&333&1&&&&&&1&333&333&333&333&333&333&33.",
".33&333&333&333&333&333&331&&&====&&&133&333&333&333&333&333&33.",
".33&333&333&333&333&333&22&&==3333==&&11&333&333&333&333&333&33.",
".33&333&333&333&333&332&&&==313333>3==&&&133&333&333&333&333&33.",
".33&333&333&333&333&11&&==333>66661333==&&11&333&333&333&333&33.",
".33&333&333&333&331&&&==333364MMMM463333==&&&133&333&333&333&33.",
".33&333&333&333&11&&==3<3366MxMMMMxM6633<3==&&22&333&333&333&33.",
".33&333&333&33>&&&;;333<ddMMg0MggM0gMMdd<333;;&&&>33&333&333&33.",
".33&333&333&>>&&;;3333d6MMMM;;M;;M;;MMMM8d3333;;&&>>&333&333&33.",
".33&333&33>&&&;-3333ddMxMMMMd3g33g3dMMMMxMdd3333-;&&&>33&333&33.",
".33&333&>>&&;;3<33ddMMMxMMMMM9;33;9MMMMMxMMMdd33>3;;&&>>&333&33.",
".33&33>&&&;;333<ddMMMMMxMMMMMld33dzMMMMMxMMMMMdd1333;;&&&>33&33.",
".33&>>&&;;3333d8MMMMMMMxMMMMMlM>>MlMMMMMxMMMMMMM7d3333;;&&>>&33.",
".>>&&&;;333>>>g0gggggggxMMMMMxM86MxMMMMMxggggggg0g>>>333;;&&&>>.",
".+&&&;3>33>&cccc;;cccc&0MMMMMxMMMMxMMMMM0&cccc;;cccc&>3313;&&&+.",
"..++&331dd&fZZZZ33ZZZZf&MMMMM0gggg0MMMMM&fZZZZ33ZZZZf&dd133&++..",
" ...+669MM&BBBBB33BBBBB&MMMMg&8888&gMMMM&BBBBB33BBBBB&MM966+... ",
"   ..gjxMM&vvvvv33vvvvv&MMMg&8kkkk8&gMMM&vvvvv33vvvvv&MMxhg..   ",
"    .hhxMM&;;;;;33;;;;;&MMg&8g3333g8&gMM&;;;;;33>-;;;&MMxgh.    ",
"    .hhxMM&bbbbb33bbbbb&MM&8k&bbbb&k8&MM&bbbbv33bbbbb&MMxhh.    ",
"    .hhxMM&ZZZZZ33ZZZZZ&MM&k3cZZZZc3k&MM&ZZZZZ33ZZZZZ&MMxhh.    ",
"    .hhxMM&mBBBB33BBBBm&MM&33ZBBBBZ33&MM&mBBBB33BBBBm&MMxhh.    ",
"    .ghxMM&>mmmm>>mmmm;&MM&33BBBBBB33&MM&;mmmm>>mmmm>&MMxhh.    ",
"    .jhxMM8&>>>>&&>>>>&6MM&33NNNNNN33&MM6&>>><&&>>>>&8MMxhh.    ",
"    .hhxMMM886668888886xMM&33gggggg33&MMx888888866688MMMxhh.    ",
"    .ghxMMMMMMMxMMMMMMMxMM&33&;;;f8d3&MMxMMMMMMMlMMMMMMMxhh.    ",
"    .hhxMMMMMMMxMMMMMMMxMM&33&333mgg3&MMxMMMMMMMxMMMMMMMxhh.    ",
"    .hhxMMMMMMMxMMMMMMMxMM&33&3333&;3&MMxMMMMMMMxMMMMMMMxhh.    ",
"    .hhjMMMMMMMxMMMMMMMxMM&33&3333&33&MMxMMMMMMMxMMMMMMMjjh.    ",
"    .hh0nMMMMMMxMMMMMMMxMM&33&3333&33&MMxMMMMMMMxMMMMMMnrkh.    ",
"    .:j9gnnnnnnjnnnnnnnjnn&>>&>>>>&>>&vnjnnnnnnnjnnnnnnh0h:.    ",
"     .:$:::::::%:::::::%::+&&&&&&&&&&+::%:::::::%:::::::$:.     ",
"      .....................++++++++++.....................      ",
"                                                                "
};
