/* XPM */
static char *result[] = {
/* columns rows colors chars-per-pixel */
"64 64 196 2 ",
"   c #2C2D2D",
".  c #262827",
"X  c #2E312F",
"o  c #2D2F30",
"O  c #2E3234",
"+  c #2B363C",
"@  c #2B383D",
"#  c #323535",
"$  c #353837",
"%  c #333638",
"&  c #35393A",
"*  c #3A3C3C",
"=  c #3F403F",
"-  c #2B3D44",
";  c #2B3741",
":  c #353D42",
">  c #3A3E40",
",  c #2D4149",
"<  c #2E4047",
"1  c #334146",
"2  c #3E4243",
"3  c #34434B",
"4  c #3C474B",
"5  c #3C4B4F",
"6  c #2B4752",
"7  c #254B5C",
"8  c #2B4A56",
"9  c #3C4B52",
"0  c #384E58",
"q  c #3B535C",
"w  c #3D5056",
"e  c #1D556E",
"r  c #244F62",
"t  c #2C5362",
"y  c #25576C",
"u  c #2A596D",
"i  c #235161",
"p  c #3B5965",
"a  c #355765",
"s  c #255B72",
"d  c #2D5C71",
"f  c #275F79",
"g  c #335E72",
"h  c #3D616E",
"j  c #27627A",
"k  c #29637C",
"l  c #326175",
"z  c #32667C",
"x  c #3C6A7B",
"c  c #3E6272",
"v  c #434544",
"b  c #444847",
"n  c #424748",
"m  c #454A4C",
"M  c #4A4D4E",
"N  c #4A504F",
"B  c #50524E",
"V  c #464E51",
"C  c #4A4F51",
"Z  c #415256",
"A  c #4C5153",
"S  c #45555B",
"D  c #4C565A",
"F  c #4D5A5E",
"G  c #525454",
"H  c #555857",
"J  c #585857",
"K  c #525659",
"L  c #555A5B",
"P  c #5B5D5C",
"I  c #605F5F",
"U  c #5E615F",
"Y  c #60615F",
"T  c #4D5C63",
"R  c #415E69",
"E  c #465B63",
"W  c #515F66",
"Q  c #5B5E61",
"!  c #44626E",
"~  c #4C656D",
"^  c #5E6161",
"/  c #51636A",
"(  c #466572",
")  c #446B7B",
"_  c #4C6A76",
"`  c #536A74",
"'  c #566C76",
"]  c #5A717C",
"[  c #56707B",
"{  c #616362",
"}  c #676768",
"|  c #656A6A",
" . c #6A6C6C",
".. c #656867",
"X. c #6E7171",
"o. c #61757C",
"O. c #6E7B7F",
"+. c #727474",
"@. c #767877",
"#. c #747778",
"$. c #767A7A",
"%. c #7B7D7D",
"&. c #787A77",
"*. c #7E817F",
"=. c #2B6782",
"-. c #2D6A84",
";. c #2E6D89",
":. c #346D84",
">. c #306E89",
",. c #2E708A",
"<. c #3B7287",
"1. c #32728C",
"2. c #3C758C",
"3. c #357591",
"4. c #3B7792",
"5. c #367995",
"6. c #3B7B95",
"7. c #3A7E9A",
"8. c #357A98",
"9. c #437285",
"0. c #4F7786",
"q. c #4B7B8D",
"w. c #47778C",
"e. c #537684",
"r. c #537A8A",
"t. c #5A7885",
"y. c #427C94",
"u. c #477A92",
"i. c #697B81",
"p. c #7C7F80",
"a. c #3C819D",
"s. c #3E84A2",
"d. c #3F88A5",
"f. c #5C828F",
"g. c #43829D",
"h. c #4C839A",
"j. c #49849B",
"k. c #538093",
"l. c #64828E",
"z. c #6F868F",
"x. c #7D8281",
"c. c #788386",
"v. c #6D8690",
"b. c #728A95",
"n. c #7C8D94",
"m. c #738790",
"M. c #7D9097",
"N. c #4185A2",
"B. c #4389A5",
"V. c #4A8BA5",
"C. c #458DAB",
"Z. c #4A8EAA",
"A. c #558CA3",
"S. c #5F8EA1",
"D. c #4B91AE",
"F. c #5693AC",
"G. c #5993AC",
"H. c #5F91A4",
"J. c #4B94B2",
"K. c #4794B3",
"L. c #5295B1",
"P. c #5399B5",
"I. c #5A9AB4",
"U. c #579DBA",
"Y. c #5C9EBA",
"T. c #638EA3",
"R. c #6D96A5",
"E. c #779CAC",
"W. c #6299B0",
"Q. c #749FB1",
"!. c #5CA2BF",
"~. c #63A2BC",
"^. c #68A4BC",
"/. c #64A5C1",
"(. c #66AAC6",
"). c #6AAAC4",
"_. c #6AAAC6",
"`. c #70AFCA",
"'. c #71B2CD",
"]. c #78B6CE",
"[. c #74B4D1",
"{. c #838584",
"}. c #868987",
"|. c #888A87",
" X c #858A8A",
".X c #8B8D8C",
"XX c #8E908F",
"oX c #90918F",
"OX c #858F92",
"+X c #8D8F91",
"@X c #8E9191",
"#X c #859095",
"$X c #919392",
"%X c #9B9B99",
"&X c #81A0AA",
"*X c None",
/* pixels */
"*X*X*X*X*X*X*X*X*X*X*X*X*X*X*X*X*X*X*X*X*X*X*X*X*X*X*X*X*X*X*X*X*X*X*X*X*X*X*X*X*X*X*X*X*X*X*X*X*X*X*X*X*X*X*X*X*X*X*X*X*X*X*X*X",
"*X*X*X*X*X*X*X*X*X*X*X*X*X*X*X*X*X*X*X*X*X*X*X*X*X*X*X*X*X*X*X*X*X*X*X*X*X*X*X*X*X*X*X*X*X*X*X*X*X*X*X*X*X*X*X*X*X*X*X*X*X*X*X*X",
"*X*X*X*X*X*X*X*X*X*X*X*X*X*X*X*X*X*X*X*X*X*X*X*X*X*X*X*X*X*X*XB *X*X*X*X*X*X*X*X*X*X*X*X*X*X*X*X*X*X*X*X*X*X*X*X*X*X*X*X*X*X*X*X",
"*X*X*X*X*X*X*X*X*X*X*X*X*X*X*X*X*X*X*X*X*X*X*X*X*X*X*X*X*X*X .{.@...*X*X*X*X*X*X*X*X*X*X*X*X*X*X*X*X*X*X*X*X*X*X*X*X*X*X*X*X*X*X",
"*X*X*X*X*X*X*X*X*X*X*X*X*X*X*X*X*X*X*X*X*X*X*X*X*X*X*X*X{ %.@XXX$X XX.*X*X*X*X*X*X*X*X*X*X*X*X*X*X*X*X*X*X*X*X*X*X*X*X*X*X*X*X*X",
"*X*X*X*X*X*X*X*X*X*X*X*X*X*X*X*X*X*X*X*X*X*X*X*X*X*XP {.oX$XXX%. X$X$X.X .J *X*X*X*X*X*X*X*X*X*X*X*X*X*X*X*X*X*X*X*X*X*X*X*X*X*X",
"*X*X*X*X*X*X*X*X*X*X*X*X*X*X*X*X*X*X*X*X*X*X*X*X^ @..X.X|.$.{ m ^ x.$X$X$X%.} *X*X*X*X*X*X*X*X*X*X*X*X*X*X*X*X*X*X*X*X*X*X*X*X*X",
"*X*X*X*X*X*X*X*X*X*X*X*X*X*X*X*X*X*X*X*X*X*XQ +.|.$XXX}.^ * = n A L  ..X$X$X}.+.G *X*X*X*X*X*X*X*X*X*X*X*X*X*X*X*X*X*X*X*X*X*X*X",
"*X*X*X*X*X*X*X*X*X*X*X*X*X*X*X*X*X*X*X*XH @.|.$X@X{...> & v C C A A G C  .@X@X$X$XX.*X*X*X*X*X*X*X*X*X*X*X*X*X*X*X*X*X*X*X*X*X*X",
"*X*X*X*X*X*X*X*X*X*X*X*X*X*X*X*X*X*X*XU %..X+X}. .M > > 4 C A A A A A A A ^ c..X$X%Xx. .*X*X*X*X*X*X*X*X*X*X*X*X*X*X*X*X*X*X*X*X",
"*X*X*X*X*X*X*X*X*X*X*X*X*X*X*X*X*XX.+.$X$X.X+.L * m M m M C A C C C A G A A A ^ #.+X$X$X%.} *X*X*X*X*X*X*X*X*X*X*X*X*X*X*X*X*X*X",
"*X*X*X*X*X*X*X*X*X*X*X*X*X*X*X*X$.%.$X$X%.H & v M A A G G C C V D A C A A A C A A V {.$X$X.X+.I *X*X*X*X*X*X*X*X*X*X*X*X*X*X*X*X",
"*X*X*X*X*X*X*X*X*X*X*X*X*X*X} }.$X.X%.} 2 2 n K A A A A A A A A A A A A A A G A A C L +. X$X$X X@.H *X*X*X*X*X*X*X*X*X*X*X*X*X*X",
"*X*X*X*X*X*X*X*X*X*X*X*X{ {..X$X$X .M * & 2 C m m A C C A A A A A A A A A A A A A A C A P X.}.$X$X%.+.*X*X*X*X*X*X*X*X*X*X*X*X*X",
"*X*X*X*X*X*X*X*X*X*XI @.oX$X.X%.C & * C M M C m m m A A C A D A A A A A A A A A A A A A C C L p.oX$X$X%.X.*X*X*X*X*X*X*X*X*X*X*X",
"*X*X*X*X*X*X*X*XI @.}.$XoX&.{ > 2 M C A A A A A A A C C m A A A A A A A A A A A V A A A C A A A { {.$X$X$X.X} *X*X*X*X*X*X*X*X*X",
"*X*X*X*X*X*X*X{ {.$X$X|. .b v m V C A C A A N A A A C A C C C A A A A A A A A A C C A A A D A A G K } |.$X$XXX} { *X*X*X*X*X*X*X",
"*X*X*X*X*X^ p.$X$X%.{ > > v A A A A A A A A Z A A A A A A C A A A A A C A A G A A A A A A A A A C C m C P .X$X$X.X@.A *X*X*X*X*X",
"*X*X*X+.}.|.$X+X .M * b M G L L G A A A A A A A C C A A A C A A m A A A A V A A A D A A A A C A W A C A Z N | XX$XoX|.$.*X*X*X*X",
"*X*X{ $X@X{.} J b m m C A A L L A A A A A A G M A A C C A A A A A A A A A A A A A A A A C A M F W A G C A A N ^ $.$X$X$X .*X*X*X",
"*X*X^ @X$X|.} L M Z A A A A A A C A C A A A G A A C A A A A A A A A A A A A A C A A A A A A V A D C m C A A A A P $.$X+XL *X*X*X",
"*X*X_ T.v. X$X}.+.P D A C B A A A A C A A A A A D A C G K K A A K A A A A A A G A A G A A A C A A C C A A A | *.}.x.O.0.p *X*X*X",
"*X*X) Z.u.T.E.@X$X.X#.P A G A A C K A K A A A A A A A C C A A C A A A A A A A A M A A A A A C A A A A A ^ %.XX|.c.r.s 5.g *X*X*X",
"*X*X) Z.L./.I.h.b.$XXX.X$.K A N C C C C A C A A C C C A A C C A A A A A G A A A A A M G A A A A C A }  X X.X*.0.g.D.,.1.g *X*X*X",
"*X*Xp C.[.D.g.D.~.S.l.XXoX|...P C A A A C V V C A A A K A A C A A A A A A A K A A A A C A C A A +. X.XOXi.t.w.1.-.7.C.-.8 *X*X*X",
"*X*X5 _ r.<.I.!.Z.Z.B.R.M.XXXX{. .A V A A C C A A A C C A A G A A A A A A A A A A A A C A C Q %..X Xp.t.y.8.3.3.s.s d 8 O *X*X*X",
"*X*Xm A A S ) 6.g.L.].D.a.k. XXX$X$X^ T C A A A A A C C C A A A A A A A C C G C A A A K P {..X}.%.~ x >.8.7.1.y t , % % O *X*X*X",
"*X*Xm A A N A S c A.Z.L.P.a.A.&XOX$X$X XQ K A C A C C K C G A A A A A A C V A A A A { .X@X.Xx.f.w.e >.;.f 6.d - O % % % O *X*X*X",
"*X*Xm A A M A A S D h j.D.C.).F.y.n.#X$X+Xp.Q C C G A A M A A A A A K C C A C C ^ +.XX|.x.o.) 6.D.-.=.-.- , @ # # # % %   *X*X*X",
"*X*XV A A n M A A A V F 9.~.B.a.U.B.u.#XOX+X X#.G C A C A A G A A C G A C C Q { }.XX.X0.) -.6.j 1.a.6 : # O # # # # $ %   *X*X*X",
"*X*Xm A A 4 D F D N A A F ~ l V./.L.`.F.u.v.OX@X{.*.L A A A A C A C A A A | .X$X.Xc.) 6.d.3.5.4.8 6 O O # # O : % O % % X *X*X*X",
"*X*Xm A A 5 ` ` / A G A N B A ! 2./.`.C.7.7.i.#X+X.X{. .L C C G A C K Q $.$X$Xx.` l =.-.d.d.s 0 O O # X O & 9 R : & $ % o *X*X*X",
"*X*XM G A V [ t.` A A A A C A A S A.s.D.D.6.N.Q.b.@X$X$X%.@.K C m | x.$X@Xx.] h.3.s ;.C.-.g - % % % # O # & q ( 2 % % $ o *X*X*X",
"*X*Xn A V M / [ ` A A A V A A A V q.B.8.3.7._.P.V.q.l.b.oXoX%.^ +.$X.Xx.' 9.:.6.C.j y s 1.l @ % % % X O O % q R : % % # o *X*X*X",
"*X*Xm A A M V E ` C V A V K A A M ~./.s.a ) F.Z./.5.7.W.n.+X+X$XXX X0.q.k =.s.;.z t - :.B.g.; % 3 & % # # % 3 q : % # # o *X*X*X",
"*X*Xn A A A A A A A A C m D W A m ^.'.`.w C S <.V.3.).'.V.F.b.{.o.w.-.K.s.s 7.t @ # O g.J.V.@ : 0 5 # # % 1 3 & % # # % o *X*X*X",
"*X*Xm A A A A A A C A A M A W A m F.(.(.9 A V C S 2.^.C.Y./.7.4.j B.,.k 7.t 1 % # % O j.C.;.+ < q 9 # % O & % # # O # $   *X*X*X",
"*X*XU @.} A A A A A A A C C E C m a.d.D.V C V V C D E :.W.D.N.7.j ;.8.i 8 + # & & % O k u i + = 9 & # % % % $ % # % # > & *X*X*X",
"*X*X...XoX+.D C A A A V C G K A 4 I.U.1.4 A C A A C G A ~ :.Z.L.1.7 < # # % $ % & # X u a.a.+ O & & # O % $ $ O O * P I b *X*X*X",
"*X*X..oX@X.X XX.Q A A A C A C A n ~.'.!.5 A A A n A N C C D ( <.t % # O # O O # # # O g.K.B.@ % O O % % % % $ = M Q { { b *X*X*X",
"*X*X..$XoX$X$X$XoX} C C C C C K n I.[.[.9 G A N V W C C C A A $ % # # O - - % + % % # g.J.B.+ # # $ $ $ & * J { I { ^ { b *X*X*X",
"*X*X} oXoX$X$X.XoX|.+.Q K C C A b 4.D.P.5 G A N D [ D C C C C o # O # @ , q O % % % O j 3.s + % # $ % * M Y Y { { { { { b *X*X*X",
"*X*X...XoX{. XoX+X$X$XoX%.} C C N c ( 6.9 A A N D ] T C C A A X $ % # + 3 q % % % O O l a , # # # = G J { Y Y Y P J I { b *X*X*X",
"*X*X...XoX= M } $X+XoX$X$X X%.Q G G A w A B A N F ' F V A A A # # $ % @ 3 q % # % % % : % % # # M P Y { Y { Y J # = { I b *X*X*X",
"*X*X{ oXoX= m * v .X$X$X$X$XoX.X@...A M N A C A C D C A G M C O $ # % + : w % % % & % O & = L P U { ^ ^ I I   . # = { Y b *X*X*X",
"*X*X} +XoX= v G * |.oX$X.X.X@X+X@Xc.+.K Z B A A A C C A C Z A O % # % % + % # # % % * b H U { U { U ^ U I M   $ # = { { v *X*X*X",
"*X*X} oXoXv m G = |.$X$XJ P {..X$X$X.X}.} A G C C C C V M A A o % % $ # o O # % # 2 H ^ ^ U { U B & M ^ I M   # X = Y Y b *X*X*X",
"*X*X*X.XoX= m G v }.oXoXM G v P #.$X@X$X@X%.K G A A C A A A C o # % # # # % % & G ^ U Y ^ ^ G #   o b Y I M   $ # = {  .*X*X*X*X",
"*X*X*X*X*Xb v H v {.oXoXB X. .B b P @.oX.X$X.X#.| A A A C C C o # % # # $ $ M P I I I I J = # o % % v Y I M   $ # = +.*X*X*X*X*X",
"*X*X*X*X*X*X*XL v }.XX$XC X.+.} * * M { .X.X@X+X X| P K G A A o O % # $ b B Y I I I B v   # $ * & $ v { I M   * * *X*X*X*X*X*X*X",
"*X*X*X*X*X*X*X*X{.oX$XoXM X.+.X.$ G G v   {.@X$X+X@X.X$.Q G C   O O A H { I I { { B   # $ # # $ $ # b { { { P *X*X*X*X*X*X*X*X*X",
"*X*X*X*X*X*X*X*X*X*X%X$XM X.+.X.$ K K G * |.@X@X+X$X$X@X{.+.P # v G Y { I { I { I B   # $ # # # * $ b { @.*X*X*X*X*X*X*X*X*X*X*X",
"*X*X*X*X*X*X*X*X*X*X*X*XG +.+.X.$ G K G b oX+X.Xp..X$XoXoX+X{.G P { { { I I I I I C o # $ # % * * * J *X*X*X*X*X*X*X*X*X*X*X*X*X",
"*X*X*X*X*X*X*X*X*X*X*X*X*X*X&.X.$ K G G b .X$X%.o b X.$X$X+X.X} P { { P v . B I I B o # $ $ # $ J I *X*X*X*X*X*X*X*X*X*X*X*X*X*X",
"*X*X*X*X*X*X*X*X*X*X*X*X*X*X*X*XG { J B b .X.X%.* m * I oX+X.X{ U { { # #   M I I B o $ $ = B *X*X*X*X*X*X*X*X*X*X*X*X*X*X*X*X*X",
"*X*X*X*X*X*X*X*X*X*X*X*X*X*X*X*X*X{. .G b oXoX%.= G v J oX$XoXI { { { . # # M I I B o $ & I *X*X*X*X*X*X*X*X*X*X*X*X*X*X*X*X*X*X",
"*X*X*X*X*X*X*X*X*X*X*X*X*X*X*X*X*X*X*XoX+.+XoX%.= K v P $XoX.X{ U { U   % # M U Y G $ v *X*X*X*X*X*X*X*X*X*X*X*X*X*X*X*X*X*X*X*X",
"*X*X*X*X*X*X*X*X*X*X*X*X*X*X*X*X*X*X*X*X*X*X%X%.* G b P .X+X|.{ Y Y U   $ X M Y  .X.*X*X*X*X*X*X*X*X*X*X*X*X*X*X*X*X*X*X*X*X*X*X",
"*X*X*X*X*X*X*X*X*X*X*X*X*X*X*X*X*X*X*X*X*X*X*X%.b M M J XXXX X..{ { Y   $ X G +.*X*X*X*X*X*X*X*X*X*X*X*X*X*X*X*X*X*X*X*X*X*X*X*X",
"*X*X*X*X*X*X*X*X*X*X*X*X*X*X*X*X*X*X*X*X*X*X*X*X*X*XG ^ .X+X.X} { { U X * P *X*X*X*X*X*X*X*X*X*X*X*X*X*X*X*X*X*X*X*X*X*X*X*X*X*X",
"*X*X*X*X*X*X*X*X*X*X*X*X*X*X*X*X*X*X*X*X*X*X*X*X*X*X*X.X$X@X.X{ { { { { *X*X*X*X*X*X*X*X*X*X*X*X*X*X*X*X*X*X*X*X*X*X*X*X*X*X*X*X",
"*X*X*X*X*X*X*X*X*X*X*X*X*X*X*X*X*X*X*X*X*X*X*X*X*X*X*X*X*X$X.X{ {  .*X*X*X*X*X*X*X*X*X*X*X*X*X*X*X*X*X*X*X*X*X*X*X*X*X*X*X*X*X*X",
"*X*X*X*X*X*X*X*X*X*X*X*X*X*X*X*X*X*X*X*X*X*X*X*X*X*X*X*X*X*X*X{.*X*X*X*X*X*X*X*X*X*X*X*X*X*X*X*X*X*X*X*X*X*X*X*X*X*X*X*X*X*X*X*X",
"*X*X*X*X*X*X*X*X*X*X*X*X*X*X*X*X*X*X*X*X*X*X*X*X*X*X*X*X*X*X*X*X*X*X*X*X*X*X*X*X*X*X*X*X*X*X*X*X*X*X*X*X*X*X*X*X*X*X*X*X*X*X*X*X"
};
