/* XPM */
static char *result[] = {
/* columns rows colors chars-per-pixel */
"64 64 161 2 ",
"   c #2E353F",
".  c #2D3542",
"X  c #2E3843",
"o  c #2F3C48",
"O  c #303742",
"+  c #323A45",
"@  c #3A3E47",
"#  c #353D49",
"$  c #393E49",
"%  c #3D4046",
"&  c #36414B",
"*  c #3C424B",
"=  c #364652",
"-  c #3C4752",
";  c #3D4A55",
":  c #374D5B",
">  c #3B4C5A",
",  c #3E535F",
"<  c #3E5361",
"1  c #3E5C6B",
"2  c #41464D",
"3  c #43484F",
"4  c #4D4C4E",
"5  c #504F4F",
"6  c #50514F",
"7  c #424751",
"8  c #454A52",
"9  c #4B4D53",
"0  c #514F51",
"q  c #4E5155",
"w  c #41535D",
"e  c #4E5358",
"r  c #535354",
"t  c #595655",
"y  c #5B5957",
"u  c #545559",
"i  c #595759",
"p  c #56595B",
"a  c #5B5B5C",
"s  c #615E5E",
"d  c #5E605F",
"f  c #62605E",
"g  c #425665",
"h  c #4F5C63",
"j  c #435D69",
"k  c #495F6A",
"l  c #545C63",
"z  c #5E5E60",
"x  c #615F61",
"c  c #45626F",
"v  c #4D636E",
"b  c #526066",
"n  c #5D6162",
"m  c #54646C",
"M  c #58676D",
"N  c #55686E",
"B  c #5D696C",
"V  c #4B6471",
"C  c #4B6A77",
"Z  c #4D6C7A",
"A  c #536771",
"S  c #566B73",
"D  c #5A6C73",
"F  c #556E78",
"G  c #586F7B",
"H  c #5B7177",
"J  c #55717B",
"K  c #5B737B",
"L  c #5B787F",
"P  c #636362",
"I  c #686664",
"U  c #656867",
"Y  c #6E6A67",
"T  c #606368",
"R  c #66686A",
"E  c #6D6D6C",
"W  c #706A66",
"Q  c #726D69",
"!  c #6E706E",
"~  c #72726E",
"^  c #7C746B",
"/  c #7E786F",
"(  c #6E7270",
")  c #63757D",
"_  c #747572",
"`  c #797773",
"'  c #777976",
"]  c #797A76",
"[  c #767778",
"{  c #7B7C7A",
"}  c #837B6F",
"|  c #857D73",
" . c #887F75",
".. c #7E807C",
"X. c #868076",
"o. c #888176",
"O. c #83837D",
"+. c #89847A",
"@. c #8E897F",
"#. c #537583",
"$. c #5C7681",
"%. c #537986",
"&. c #5D7A85",
"*. c #567C8B",
"=. c #5D7D89",
"-. c #527F91",
";. c #617C84",
":. c #617E89",
">. c #5E828C",
",. c #5C8592",
"<. c #5C8996",
"1. c #62828C",
"2. c #68848A",
"3. c #618692",
"4. c #648995",
"5. c #688C97",
"6. c #648E9A",
"7. c #698E99",
"8. c #66929D",
"9. c #69939E",
"0. c #6695A2",
"q. c #6A96A3",
"w. c #659AA5",
"e. c #6B99A5",
"r. c #6C9CAA",
"t. c #7C9FA6",
"y. c #6C9FB0",
"u. c #6DA0AA",
"i. c #74A0AD",
"p. c #6DA3B2",
"a. c #71A3B2",
"s. c #72AAB7",
"d. c #75AEBD",
"f. c #76B0BD",
"g. c #838581",
"h. c #878985",
"j. c #8D8A83",
"k. c #858E8B",
"l. c #8B8D89",
"z. c #928D84",
"x. c #8E918B",
"c. c #949187",
"v. c #93938D",
"b. c #95988F",
"n. c #939691",
"m. c #969A93",
"M. c #9A9D95",
"N. c #9EA29A",
"B. c #A0A097",
"V. c #A2A59D",
"C. c #A5A89F",
"Z. c #8BA3A5",
"A. c #A6ABA1",
"S. c #A9ACA5",
"D. c #ABB0A7",
"F. c #ABB2AA",
"G. c #B4B7AC",
"H. c #B6BBB2",
"J. c #BABDB5",
"K. c #BAC0B6",
"L. c None",
/* pixels */
"L.L.L.L.L.L.L.L.L.L.L.L.L.L.L.L.L.L.L.L.L.L.L.L.L.L.L.L.L.L.L.L.L.L.L.L.L.L.L.L.L.L.L.L.L.L.L.L.L.L.L.L.L.L.L.L.L.L.L.L.L.L.L.L.",
"L.L.L.L.L.L.L.L.L.L.L.L.L.L.L.L.L.L.L.L.L.L.L.L.L.L.L.L.L.L.L.L.L.L.L.L.L.L.L.L.L.L.L.L.L.L.L.L.L.L.L.L.L.L.L.L.L.L.L.L.L.L.L.L.",
"L.L.L.L.L.L.L.L.L.L.L.L.L.L.L.L.L.L.L.L.L.L.L.L.L.L.L.L.L.L.L.L.L.L.L.L.L.L.L.L.L.L.L.L.L.L.L.L.L.L.L.L.L.L.L.L.L.L.L.L.L.L.L.L.",
"L.L.L.L.L.L.L.L.L.L.L.L.L.L.L.L.L.L.L.L.L.L.L.L.L.L.L.L.L.L.L.L.L.L.L.L.L.L.L.L.L.L.L.L.L.L.L.L.L.L.L.L.L.L.L.L.L.L.L.L.L.L.L.L.",
"L.L.L.L.L.L.L.L.L.L.L.L.L.L.L.L.L.L.L.L.L.L.L.L.L.L.L.L.L.L.L.L.L.L.L.L.L.L.L.L.L.L.L.L.L.L.L.L.L.L.L.L.L.L.L.L.L.L.L.L.L.L.L.L.",
"L.L.L.L.L.L.L.L.L.L.L.L.L.L.L.L.L.L.L.L.L.L.L.L.L.L.L.L.L.L.L.L.L.L.L.L.L.L.L.L.L.P a P L.L.L.L.L.L.L.L.L.L.L.L.L.L.L.L.L.L.L.L.",
"L.L.L.L.L.L.L.L.L.L.L.L.L.L.L.L.L.L.L.L.L.L.L.L.L.L.L.L.L.L.L.L.L.L.L.L.L.L.L.T p 9 8 9 L.L.L.L.L.L.L.L.L.L.L.L.L.L.L.L.L.L.L.L.",
"L.L.L.L.L.L.L.L.L.L.L.L.L.L.L.L.L.L.L.L.L.L.L.L.L.L.L.L.L.L.L.L.L.L.L.L.L.z P p * $ # # e L.L.L.L.L.L.L.L.L.L.L.L.L.L.L.L.L.L.L.",
"L.L.L.L.L.L.L.L.L.L.L.L.L.L.L.L.L.L.L.L.L.L.L.L.L.L.L.L.L.L.L.L.L.L.L.T a u 9 & = A < $ * L.L.L.L.L.L.L.L.L.L.L.L.L.L.L.L.L.L.L.",
"L.L.L.L.L.L.L.L.L.L.L.L.L.L.L.L.L.L.L.L.L.L.L.L.L.L.L.L.L.L.L.L.L.I a r - $ = -.*.G #.Z + 8 L.L.L.L.L.L.L.L.L.L.L.L.L.L.L.L.L.L.",
"L.L.L.L.L.L.L.L.L.L.L.L.L.L.L.L.L.L.L.L.L.L.L.L.L.L.L.L.L.L.L.I P e - & = > %.,.4.y.8.,.< = u L.L.L.L.L.L.L.L.L.L.L.L.L.L.L.L.L.",
"L.L.L.L.L.L.L.L.L.L.L.L.L.L.L.L.L.L.L.L.L.L.L.L.L.L.L.L.L.i q 8 7 + : 1 c <.w.$.F 6.F 8.%.# # L.L.L.L.L.L.L.L.L.L.L.L.L.L.L.L.L.",
"L.L.L.L.L.L.L.L.L.L.L.L.L.L.L.L.L.L.L.L.L.L.L.L.L.L.E a u 8 8 + : 1 Z <.8.6.M #.3.;.K p.G V # 8 L.L.L.L.L.L.L.L.L.L.L.L.L.L.L.L.",
"L.L.L.L.L.L.L.L.L.L.L.L.L.L.L.L.L.L.L.L.L.L.L.L.L.p a 9 3 = , g <.<.&.q.L >.b >.3.:.=.<.l ,.= & 7 L.L.L.L.L.L.L.L.L.L.L.L.L.L.L.",
"L.L.L.L.L.L.L.L.L.L.L.L.L.L.L.L.L.L.L.L.L.L.L.a p 9 * # > v w.,.u.J &.$.8.S J D :.6.0.1.$.G #.- * ; L.L.L.L.L.L.L.L.L.L.L.L.L.L.",
"L.L.L.L.L.L.L.L.L.L.L.L.L.L.L.L.L.L.L.L.L.t i u 9 # , %.#.v J D 8.L s.K &.&.w.w.r.&.4.3.;.8.r.Z & 9 L.L.L.L.L.L.L.L.L.L.L.L.L.L.",
"L.L.L.L.L.L.L.L.L.L.L.L.L.L.L.L.L.L.L.f P q 2 & = %.,.m K q.e.7.q.&.$.<.&.>.>.S M 1.6.m 3.m =.*.= & 7 L.L.L.L.L.L.L.L.L.L.L.L.L.",
"L.L.L.L.L.L.L.L.L.L.L.L.L.L.L.L.L.P a p d * ; w #.,.3.4.p.e.:.D H 6.6.M b 0.b p.&.K 3.G a.:.q.K <.# & p L.L.L.L.L.L.L.L.L.L.L.L.",
"L.L.L.L.L.L.L.L.L.L.L.L.L.L.L.P P a r u d - > =.w.S $.M q.:.r.6.6.H G 3.6.,.D &.M 8.r.$.D D =.6.i.j & * q L.L.L.L.L.L.L.L.L.L.L.",
"L.L.L.L.L.L.L.L.L.L.L.L.L.L.p a a u n x.' q & , 3.m 7.;.1.:.7.H 1.w.>.1.1.H q.6.1.8.=.4.q.q.:.b H 8.; * 9 L.L.L.L.L.L.L.L.L.L.L.",
"L.L.L.L.L.L.L.L.L.L.L.L.P a p 9 4 _ m.S.C.! q ; 3.&.m =.b q.N &.4.:.3.S q.&.r.N 8.H 1.S q.;.e.;.D D e * # & L.L.L.L.L.L.L.L.L.L.",
"L.L.L.L.L.L.L.L.L.L.L.a a u 3 q h.S.h.U v.x.a q ; ,.r.4.l 6.b 1.:.$.S 6.3.m 8.6.q.D e.>.&.4.) h 9 3 # # * * L.L.L.L.L.L.L.L.L.L.",
"L.L.L.L.L.L.L.L.L.L.e p r 9 y x.A.S.l.e 9 [ _ p 9 =.6.M l =.3.5.K :.m 8.5.1.=.L e.K G $.D B l 9 X X * ; a 3 L.L.L.L.L.L.L.L.L.L.",
"L.L.L.L.L.L.L.L.L.L.3 * e r ' x.A.S.N.9 & l v.U p e h >.L q.K ;.:.8.=.D m <.F 0.F =.1.p r 7 # + & * z p d 9 L.L.L.L.L.L.L.L.L.L.",
"L.L.L.L.L.L.L.L.L.L.P g.q p p a { M.V.g.u B V.h.z u > 4.3.0.N 3.M $.4.3.1.&.m J S G l e + . # 8 u u z z P 8 L.L.L.L.L.L.L.L.L.L.",
"L.L.L.L.L.L.L.L.L.L.P M.q p P p p a ..n.S.S.S.D.[ a 3 k >.$.3.s.K 3.=.0.3.4.2.i u 8 $ + $ 7 8 z u * z i x 8 L.L.L.L.L.L.L.L.L.L.",
"L.L.L.L.L.L.L.L.L.L.f M.a ..b.U a s p f l.n.S.D.V.I u ; &.8.N m N e.q.>.K ;.r 9 $ X $ 7 u z 7 7 # # x z x 8 L.L.L.L.L.L.L.L.L.L.",
"L.L.L.L.L.L.L.L.L.L.P M.q ! N.g.O.u p p a x _ h.S.M.a u - S ) 3.6.1.U l 9 3 & X * 8 p i u i # X O O x s s 8 L.L.L.L.L.L.L.L.L.L.",
"L.L.L.L.L.L.L.L.L.L.d M.9 * f ! v.d T d u i p z _ m.' p * J J M ;.D 8 - # X + 8 a 9 0 8 0 a O . . O z a a 8 L.L.L.L.L.L.L.L.L.L.",
"L.L.L.L.L.L.L.L.L.L.d M.9 * q d v.a l.n.E a a a p a I a q & p D 9 2 # # # 8 u u I $ + X 9 a # O . O x a s 8 L.L.L.L.L.L.L.L.L.L.",
"L.L.L.L.L.L.L.L.L.L.f N.4 % r d v.a { M.N.n.U r a p a a p 3 9 9 $ # # 9 9 i u 8 x @ . . 8 z + O O O x a P 4 L.L.L.L.L.L.L.L.L.L.",
"L.L.L.L.L.L.L.L.L.L.f M.8 $ 4 a v.p * p ( g.' u a p p a a r X . + $ 8 i e 7 # $ x $ . . 8 z # O * 8 a a s 8 L.L.L.L.L.L.L.L.L.L.",
"L.L.L.L.L.L.L.L.L.L.p M.4 * 4 a v.r @ 4 4 _ _ u O.x.! T r i 8 $ 8 u 9 a 8 X . # x @ O . 9 z 7 8 z e x i x 8 L.L.L.L.L.L.L.L.L.L.",
"L.L.L.L.L.L.L.L.L.L.a N.e e p d n.e + q 6 ! [ * q l.N.M._ E 0 u u 9 * a 9 O O # x @ . O 9 a 9 i 9 $ x i x 8 L.L.L.L.L.L.L.L.L.L.",
"L.L.L.L.L.L.L.L.L.L.a M.r ..M.{ v.q @ 4 r E _ $ & p ! j..._ 0 * $ X X a 8 . . + x % @ 8 u x 2 # X O x a s 7 L.L.L.L.L.L.L.L.L.L.",
"L.L.L.L.L.L.L.L.L.L.a M.9 z g.j.v.e @ 4 r ! ` @ & q 4 d ..` 9 . . . X a 9 O O @ x 7 x u e a O . . O s a a 8 L.L.L.L.L.L.L.L.L.L.",
"L.L.L.L.L.L.L.L.L.L.a M.4 * r P n.e @ 4 4 ! _ * % r 4 r ' _ 9 . . . . z 9 . + 7 x 4 2 # e z # . . O s a a 7 L.L.L.L.L.L.L.L.L.L.",
"L.L.L.L.L.L.L.L.L.L.p M.5 @ 5 p v.e 3 q r _ _ * % 6 r 4 { ` 9 . . . . i q 8 l e x @ . O 8 i + . X + z p n 9 L.L.L.L.L.L.L.L.L.L.",
"L.L.L.L.L.L.L.L.L.c.E m.9 * 9 a v.e v e.K _ _ 2 * 4 r 4 { _ 9 .   . @ x e u 7 $ x @ . . e a + O . X x a f 9 t t L.L.L.L.L.L.L.L.",
"L.L.L.L.L.L.L.c.@.X.W m.4 % 0 a v.e m d.u.! _ P ~ ~ u q { ` 9 O O 9 e x 9 + O $ x # . X 8 z # . . + s a a 9 t r i I L.L.L.L.L.L.",
"L.L.L.L.L.c.X.| | | Y m.4 $ q a v.q V f.p.( _ U m.A.g.~ { _ e 7 i e 7 x 9 . . $ x $ O . q z + + # 3 x a s 8 t 5 r t i L.L.L.L.L.",
"L.L.L.@.o.o.} | | | W b.4 * q a x.q A f.a._ _ $ u j.V.M.{ ` e u 9 $ . s 8 . . $ x $ O . 8 s $ 7 i u z i u 4 t t r t t t i L.L.L.",
"L.M.+.} | | | | | o.~ n.r 9 r a x.9 S f.a.~ _ $ % r E { ..] 9 + O . . x 8 . . $ x $ + O 9 s e z a u 0 9 0 r t t t t t t t s I L.",
"L.B.z.o.X.| } | | | ^ n.a O.O.E v.e m d.a._ _ $ 2 r 5 9 { _ 9 X . . . z 9 . . $ x - $ 7 e a u i r 9 0 r t t 6 t t r t t s ' L.L.",
"L.L.L.v.j.+.| | |  .| +.} z.B.h.v.u D s.a._ _ # 2 5 0 r ] ` 9 . . . . x 7 O . $ I 8 i z u a 9 u t r t t t t u t u y s _ L.L.L.L.",
"L.L.L.L.L.v.z. .|  . .| | | +.j.C.M.k.i.r.~ _ $ 2 5 5 0 ] ] 9 . . . . s 8 O $ 7 I 0 a i 9 0 0 r t t r r t t t s f E L.L.L.L.L.L.",
"L.L.L.L.L.L.L.z.+. . . .| | } +.D.H.H.F.Z.{ _ * * 4 r q ] ' 9 . . . . i 9 8 i 9 s 9 i 0 0 t t t t t t t t a s ` L.L.L.L.L.L.L.L.",
"L.L.L.L.L.L.L.L.L.j.j. . .| |  .@.S.H.J.K.N._ 8 4 r 4 r ] ` 9 . . . + z e i x 9 i 9 0 r i r t t t t t y f ` L.L.L.L.L.L.L.L.L.L.",
"L.L.L.L.L.L.L.L.L.L.L.j.X.+. .| |  .X.V.G.A.~ n h.( 0 r ] ` 9 O * u p a r r r q 6 6 6 t t t t t t s I _ L.L.L.L.L.L.L.L.L.L.L.L.",
"L.L.L.L.L.L.L.L.L.L.L.L.L.c.+.+. .|  .+.c.+.~ p v.V.n.P { ' u 8 u a u i e q r t t t t t t t t s W L.L.L.L.L.L.L.L.L.L.L.L.L.L.L.",
"L.L.L.L.L.L.L.L.L.L.L.L.L.L.L.z.+.+.| |  .` o./  .j.V.S.O.' u r p p r 9 q r r u t t t t t f Y ] L.L.L.L.L.L.L.L.L.L.L.L.L.L.L.L.",
"L.L.L.L.L.L.L.L.L.L.L.L.L.L.L.L.L.j. .+. . . .| | |  .z.O.' u q r 9 r r r t t t t t s s ` L.L.L.L.L.L.L.L.L.L.L.L.L.L.L.L.L.L.L.",
"L.L.L.L.L.L.L.L.L.L.L.L.L.L.L.L.L.L.L.z.+.+. . .| | | } +.` r q r r t t t t y y s W ~ +.L.L.L.L.L.L.L.L.L.L.L.L.L.L.L.L.L.L.L.L.",
"L.L.L.L.L.L.L.L.L.L.L.L.L.L.L.L.L.L.L.L.M.z.X. .| |  . .| ^ Q ^ ^ ^ ^ ^ ^ ^ ^ | +.L.L.L.L.L.L.L.L.L.L.L.L.L.L.L.L.L.L.L.L.L.L.L.",
"L.L.L.L.L.L.L.L.L.L.L.L.L.L.L.L.L.L.L.L.L.L.L.z.j. . .|  . .| } | | } } }  .b.V.L.L.L.L.L.L.L.L.L.L.L.L.L.L.L.L.L.L.L.L.L.L.L.L.",
"L.L.L.L.L.L.L.L.L.L.L.L.L.L.L.L.L.L.L.L.L.L.L.L.L.j.o.| | } | | } } X.+.z.L.L.L.L.L.L.L.L.L.L.L.L.L.L.L.L.L.L.L.L.L.L.L.L.L.L.L.",
"L.L.L.L.L.L.L.L.L.L.L.L.L.L.L.L.L.L.L.L.L.L.L.L.L.L.c.z.X.o.| o.o.+.j.L.L.L.L.L.L.L.L.L.L.L.L.L.L.L.L.L.L.L.L.L.L.L.L.L.L.L.L.L.",
"L.L.L.L.L.L.L.L.L.L.L.L.L.L.L.L.L.L.L.L.L.L.L.L.L.L.L.L.L.@.| @.b.L.L.L.L.L.L.L.L.L.L.L.L.L.L.L.L.L.L.L.L.L.L.L.L.L.L.L.L.L.L.L.",
"L.L.L.L.L.L.L.L.L.L.L.L.L.L.L.L.L.L.L.L.L.L.L.L.L.L.L.L.L.L.L.L.L.L.L.L.L.L.L.L.L.L.L.L.L.L.L.L.L.L.L.L.L.L.L.L.L.L.L.L.L.L.L.L.",
"L.L.L.L.L.L.L.L.L.L.L.L.L.L.L.L.L.L.L.L.L.L.L.L.L.L.L.L.L.L.L.L.L.L.L.L.L.L.L.L.L.L.L.L.L.L.L.L.L.L.L.L.L.L.L.L.L.L.L.L.L.L.L.L.",
"L.L.L.L.L.L.L.L.L.L.L.L.L.L.L.L.L.L.L.L.L.L.L.L.L.L.L.L.L.L.L.L.L.L.L.L.L.L.L.L.L.L.L.L.L.L.L.L.L.L.L.L.L.L.L.L.L.L.L.L.L.L.L.L.",
"L.L.L.L.L.L.L.L.L.L.L.L.L.L.L.L.L.L.L.L.L.L.L.L.L.L.L.L.L.L.L.L.L.L.L.L.L.L.L.L.L.L.L.L.L.L.L.L.L.L.L.L.L.L.L.L.L.L.L.L.L.L.L.L.",
"L.L.L.L.L.L.L.L.L.L.L.L.L.L.L.L.L.L.L.L.L.L.L.L.L.L.L.L.L.L.L.L.L.L.L.L.L.L.L.L.L.L.L.L.L.L.L.L.L.L.L.L.L.L.L.L.L.L.L.L.L.L.L.L.",
"L.L.L.L.L.L.L.L.L.L.L.L.L.L.L.L.L.L.L.L.L.L.L.L.L.L.L.L.L.L.L.L.L.L.L.L.L.L.L.L.L.L.L.L.L.L.L.L.L.L.L.L.L.L.L.L.L.L.L.L.L.L.L.L."
};
