/* XPM */
static char *background1709072904[] = {
/* columns rows colors chars-per-pixel */
"64 64 114 2 ",
"   c gray46",
".  c #7E7E7E",
"X  c gray49",
"o  c gray44",
"O  c gray42",
"+  c gray40",
"@  c gray35",
"#  c gray32",
"$  c gray33",
"%  c gray43",
"&  c #7B7B7B",
"*  c gray52",
"=  c #898989",
"-  c #686868",
";  c gray38",
":  c #767676",
">  c #5B5B5B",
",  c #494949",
"<  c #5A5A5A",
"1  c #656565",
"2  c #7C7C7C",
"3  c gray54",
"4  c #939393",
"5  c gray36",
"6  c #717171",
"7  c gray59",
"8  c #606060",
"9  c gray31",
"0  c #4E4E4E",
"q  c #6F6F6F",
"w  c #868686",
"e  c #818181",
"r  c gray56",
"t  c #848484",
"y  c #676767",
"u  c #959595",
"i  c DimGray",
"p  c #838383",
"a  c gray47",
"s  c #777777",
"d  c #646464",
"f  c #626262",
"g  c gray39",
"h  c #797979",
"j  c gray48",
"k  c gray45",
"l  c #5F5F5F",
"z  c #565656",
"x  c #727272",
"c  c #747474",
"v  c gray37",
"b  c #6C6C6C",
"n  c #585858",
"m  c #555555",
"M  c #4B4B4B",
"N  c #5D5D5D",
"B  c #929292",
"V  c gray61",
"C  c #979797",
"Z  c #6A6A6A",
"A  c #535353",
"S  c #505050",
"D  c #515151",
"F  c #888888",
"G  c #8B8B8B",
"H  c gray34",
"J  c gray50",
"K  c #6D6D6D",
"L  c #4C4C4C",
"P  c #444444",
"I  c gray29",
"U  c gray30",
"Y  c #A9A9A9",
"T  c gray63",
"R  c gray55",
"E  c #808080",
"W  c #989898",
"Q  c gray64",
"!  c #909090",
"~  c #9D9D9D",
"^  c #9A9A9A",
"/  c #9F9F9F",
"(  c gray66",
")  c gray58",
"_  c #ACACAC",
"`  c #9B9B9B",
"'  c gray60",
"]  c gray57",
"[  c #A7A7A7",
"{  c #A0A0A0",
"}  c #A4A4A4",
"|  c #8D8D8D",
" . c gray51",
".. c gray62",
"X. c #A5A5A5",
"o. c gray28",
"O. c gray53",
"+. c #8E8E8E",
"@. c gray65",
"#. c #A2A2A2",
"$. c #AAAAAA",
"%. c gray67",
"&. c #B2B2B2",
"*. c #AEAEAE",
"=. c #484848",
"-. c #464646",
";. c #B1B1B1",
":. c gray27",
">. c gray68",
",. c gray70",
"<. c #AFAFAF",
"1. c gray69",
"2. c gray24",
"3. c gray25",
/* pixels */
"  . X o O + @ # $ % & * = - ; % . : > % + , < 1 o 2 3 4 5 6 7 = 6 8 2 - 9 0 q w e r t y w u u y i 6 9 9 5 p e a s : a = * . q O ",
"5 d O f g O s h s j s k h l z 5 % - # 8 + i x o i k : c > - & i ; v b ; < + b x h j o 8 i b i n > 8 # m 8 : s x + d d g y - l d ",
"M 9 N @ N o B V C * 6 ; Z < A S f ; D m + F G X d O g H N d + # H l v N - J K f 6 y v v m L P I 9 A @ ; - b K b @ n m P U $ # 8 ",
"Y T r R E x p W Q J f U $ ! Q ~ ^ / ( b K ) ( _ Q @ $ Z r / ( _ 7 j i . ^ Y ` a # v . ' Q ] x @ f s ~ [ { q v @ i R { p 1 $ i J ",
"} W : ! | 2 h 3 u K < m d t r r & p T 3 p E = t   @ $ < x p r t 3 | d % w W t y $ @ q w ] = 2 2 6 +  .! B x 8 n b t ) | F p 2 : ",
"' R g ] 4 e o 2 F - 5 l b s X E f K W ..r K K f # v 5 m < O j y e C l l x t q 5 > < d : J E  .u X > K 2 t x f < b 2 = ! { X.3 q ",
"9 @ % & a K % 1 + / W x 0 n N n d q X & i o.o.L < w u u l @ f j e . g > A L m Z p w c l 1 Z q w a f i y d 8 1 i v Z x - e ] O.a ",
"2 x > g l n > N - E r | + s t r g @ d g + q n l a | W / { u R / t ; z f 1 A f J W ..r a r V { k l $ 8 8 ; : e R ..p 6 ! ! w - 5 ",
"p h 8 l 5 n n 5 + x O.! Z . +.' b N 5 8 K e f i p = ] ` } V B @.t > n % x n O t 4 ` +.s ) #.} K 5 < b - d . O.r X. .K ^ ] . 8 N ",
"q a | O K 2 b 8 n 5 % a N a p E B  .@ c +.$.h & ! Z q E 1 O . ' J ; s C ' - E F y o Z z J t h y 6 w _ )   w 2 q % N N 4 E i g e ",
"6 x O - . / +.x A 5 l 5 A 5 1 o 2 X & ..V w g N f % b g @ D L D + . 7 4 E - 6 & a q 8 # D # > ! ` ^ 3 x 8 a : K > H $ D ;   ' T ",
"  a % O . ` 4 h n N 1 % 6 l 5 y   h & u | q ; > < y d N o b l U f e / G K ; 1 K % + + % > z > G ..T   g < Z O - d b K A ; s ` ( ",
"j e X o h R 4 J ; l k ! { Z H v k s x E c H g f @ < @ > ) ' 3 5 1 . X.p < z n N N @ 6 W s y f h 7 [ f A m > 5 ;   R 4 Z O   r ( ",
"J B ..e : k 6 - f c : . ` k y k V 4 y i g $ F W u v f & O.B ..~ E ; + f x ^ p 8 0 d * ~ #.C t   K y v e / x f 8 p V $.}  .Z % o ",
"c w V r . i % b Z : : j G x O x 7 ] 6 d f 1 p ] u v f h * 3 ! ~ O.i N g c F * K D d . R ) 7 u x 1 l % * 7 e O ;  .+.) ` G & O O ",
"+ : u ..O.; % k c   : s s 6 % q 3 R . ; g j h p r l 8 k w  .2 C |   < y k Z e 2 z d x : X ] } o l l e w * B s f . & s = ) B b b ",
"; l K % % s ^ { | 5 n ; l O i > v l v % O._ ] j f O.* c - v H y O q j ! u h i ; g 5 z n 1 o j Z x t Y R y g   J v @ > g : . y s ",
"k c c Z x 3 ~ ) E   2 e K l @ m q o f  .C %.p j E ^ r c ; 1 o & 6 i 3 V u b f O . . K n N d i O 2 ] X.t v -  .4 k ; n d O q o w ",
"w R X y a V ..F 6 ! T T J A I D t t y u X.[   2 .._ ^ c > K R B a g C X.) l N : ^ { t @ z @ N K * ~ { 2 z % ! @.3 O n + f f j 7 ",
"k 3 ~ E : 6 % l $ s r @.&.Z < : / B 8 q s s @ g p #.$.T 0 n J $.t m 5 O % < a | p ] O.+ v  .*.a - d b + 1 R * . ~ & ; . e . o y ",
"J B ` E s o v A A : F u T i N x ] w l o q v D N j ! ' 7 H + G 7 : m i - l m Z X J w E o & G 7 q Z o s q i & h   t &   * 2 x K q ",
"F 7 C . s q $ 0 z c J w +.y l % e h l o y U 9 N 6 X O.G v x B t i m x + H H ; o & j a h B +.. 1 O h e h K K K b K h p G   d y : ",
"; ; v z $ l = ) F H > K K < H v b y z U g ) | h @ K c k < @ 8 6 g 9 m K R V E g N @ n l x % 8 D A 8 ] | X q f n < l y j ; I =.> ",
"w & g < N b ! / ..E i @ d e G G q ; n v : ~ ` ) * y f i & E . q g < m 1 h e Z n 5 d d 5 f v n 0 # N s 6 g < 5 8 f 8 N 8 @ m 8   ",
") w y ; d 6 r { X.| K A f +.~ ^ c + g i X / T ~ 4 f 5 1 * | = o Z + m 8 o   ; H f o K > 5 v v S # > K + n A v i K d > n < l b X ",
"u | o * . K X ! V E + m g e R r r C X. .t ` T u h @ @ + c  .+.= ^ / H 9 z 5 @ Z ! #.R 5 l X ~ v 9 S y ; m A : u V j 8 y h t X o ",
"6 6 s  .& O K K k r * b N s E E o   3 . 2 E : p ) q + + j h x i . R > y o 5 ; : R | h 8 X F = J b < % 1 n -   E w % f O.7 C & 1 ",
"    s : K v ; f b G r E ; K   a h j j o b b Z h B t   1 k s : : h h + J w l N q * E % N   . e J x y  .o n + 6 h   d v J r ] x 5 ",
"3 3 : d H , # 8 c J ) ' O f i c C ! O < H z - c  .V = d 1 : G W . f k ` { 1 $ l j   1 n > Z & q K : T e n < b a d < H 1 s X y A ",
"j F / . c x K d > 1 c & 1 K 6 q V B 8 8 y Z 8 l f a x f j X J ` & $ 8 X ' ~ c S # z f b 9 S < 5 N 1 7 G q m A n - Z d I H d g h ",
"% j ! & X = & + # 8 1 d n - o k +.O.Z j e E 8 @ 5 f v H Z o   R j ; l : r C k n ; b X F N S 9 ; f y u R c z 8 6  .F e D # < O O.",
"f - q q p / w y L l @ L -.l K & j a 2 V } ` f n N U , =.0 > Z s j s f k *  .O 1 2 B } [ o m o.K q K 4 G   < h ^ @.*.X.; # $ h ) ",
"z H N K  .~ X.= > A 6 ' ~ O z A > + a | ^ @.l 9 z u { ) K < S 8 % . C X v @ ; + i ! Y Q ) : m O t u d m A y O k Q [ / J y l J { ",
"6 s h k j F R 2 g y s +...% v - 2 & q X * R f > d = W ^ + ; b X s 6 e   K h b ; y J r | j :   o a J O + g N g q r B G   k c h F ",
"r ..^ j o K % Z b J & & ~ x Z p } u d b % b + Z   : = V N Z +./  .8 d Z  .} & < + O 6 c < k ' s - g s 2 h 0 > % h a c - E | x Z ",
"K = ;.G & b l N 1 j s : G 6 b : ..4 f ; 8 n N - s Z c  .; ; K 3   @ 5 p Y $.+.Z # n v v l X T j d v ` } ` s 8 A v v 8   r W s s ",
"- . #.7 e y 6 x o x x x x b b o 4 4 j f + : i - Z Z K q + g 1 & h 6 ; j W ~ O.Z n n 5 v v a C   g l G 7 4 c ; m N v 8 % w ! 6 o ",
"+ c 4 / O.f p O.& O q 6 > - b i = B ! g % u : i 8 K - N Z y 8 % . F y x w +.. O ; @ @ 8 l c R o d ; j w G 6 d 5 v v 8 - X O.Z i ",
"h a b g o R / ] s . r W 2 N @ ; . X y r #.$.2 : p { 4 k f 6 F +.: g +.T ) 8 c 7 @.h # 0 p  .q K E C V e i | { / > 0 @ W h g t ..",
"x  .| : x & t   f h r / u Z ; q ^ ! g h w | + - p #.#.] z + R #.J < k  .a S - r #.W . + E O.w Z q j & K f e ^ } p K Z ) . Z b j ",
"x = ~ . c k c 1 @ a r T #.q 1 s X.W f q s & @ ; p #.[ ~ D g r $.t H y 6 i M + 3 / X.B 6 J R B i + % O g 8 & u X.u & q ]  .q ; i ",
"* 7 ' J : % < S # x J G 7 b d h ] F y K d L z d : * | R v q ! G q n c Z @ m b E p B w 1 O.7 W g Z a 9 S 8 j e * ] k ; = * a f % ",
"d b 6 8 < H H 5 f ; % & k < A N H H > D v 2 x i ; s j 6 0 @ 6 X Z $ N % a o y Z & E x 5 b q O A m f 2 : O - q : & + > s i @ D < ",
"i + f A m f 6 h & y y O g y Z b 9 I D z b ) = E   6 % - U 9 < O v U v h | O.c i % % o k o - 5 L A + ! r e K O K K 6 x q v D D d ",
"= : v D ; w #.Y { . + m > R ~ ` 1 9 -.x 3 T T @.( b f y m M P U -.:.x G ~ T B : N n h ( 3   ; I 5 X ` [ [ t x 1 ; | X.O > m < w ",
"` r % 2 k y F ..*.Y 2 U l p ! u ~ ..' 2 . 7 Q V F > A N F ! +.] W C b : 4 %.u b L m b t ^ = b O.& i R V { p + # + & | { ! t 3 F ",
"4 G c F J O & | ~ 4 k # > s t 3 | u } = t R ^ | o n H g G ^ ..* C } O b w } = g 0 N x  .B *   ' p d e ! ) c v $ q . 3 ] | | 7 e ",
"e X j R R E x s & l > > # -   X v Z W ` B J G & < > g o X ! ` @ s ` O g   W s z n b p +.X h X ` p f s e e 5 n v j | +.1 c F 7 k ",
"- i : . a + S L S @ % 3 ~ % ; q J E h y d Z   p 4 t o < g 6 h v 1 % z N i K J r | 6 g % s a : q v U > i s O.* 2 g 1 o F : y i ; ",
"o c X : o i b g < b : * 7 % g o w p q g g + Z c e e x N b x :   b g + Z Z y : O.G o ; b h e t y f g v d K & X h 1 + q | E o f Z ",
". * w q - o 7 = q w J : * % i k R * y + y g v v ; h k 1 & h   B s < 2 j K + i : p o d K . +.W ; b * 1 l 8 1 K c K b k r r e 5 s ",
"s 3 [ p . = V ! s X a 6 s l < l a j q 2  .* 8 n > @ z A ; Z c r E x ` ..w < > ; l < N O % x a p B V c g @ l H S z 1 q % % s 7 W ",
"Z c w s E ] = 2 O K O i 1 % k : K K x w ! u ; m < c : % d g + j j 2 T ( | A A d   x i g 8 d K X 4 X.= % z n b j O + g d i k R W ",
"5 5 v Z e W x 1 v 5 l 8 # J r ] g l s ] / [ f # < 7 ~ +.Z 5 H 1 c O.[ &.) L , - ] r : @ D H ; c B >.{ j A # w >.p y m @ 1 o J u ",
"] 7  .k o K n   ' a d > b = ^ *.R s g o   : f ; i h B } f b | $.w > + : k A 8   E / ) 1 O.| * K 1 d j % f X O.! X.2 d ..G c b > ",
"J B #.*   1 y h B 7 : n 6 3 ! ] / | 8 b O f v i h q J ] l Z = Q p l x Z N @ O   o ! ] q E 4 V 1 g K ; f y . 2 . / e K ) r p 1 @ ",
"  r ,.! a f 6 2 +.X.J z k = 3 E ( ' ; i y @ l K E Z k * N Z * V e g h d # 5 o   + w +.c 2 ) ( f g 6 m 5 Z J : k '  .x R ] 3 f n ",
"; : T } t @ e w . & - z - % k h E R ` d O 7 o - b o 1 z N d % s G 4 l K   5 v K j g N K - J V 4 : v G . + % b + H Z s q = C . O ",
"v - p J a   ` / R i Z c : d N N o s a - X ( 2 y n N < n x K 8 ; d - K p | s d 5 - ; f b v b J K K s ..+.x ; l v > - o g % c y 2 ",
"- O 6 - o O.#...* g 6 F  .Z d i y - b j ! <.& d n O x c 6 y @ 8 < @ X u 7 : y - : O g 1 f + b > b F { | x K q o 1 g 1 o O d l p ",
"t p 1 n b 4 C  .1 Z  .W 3 t G / g > c ` [ Y i N b ~ 1.<.@ 0 < h q y B } B H i ! @.p v A x q 8 v s 4 ) & + ) #.T s @ z ' E 1 f t ",
"c p r b - 6 % ; n s G 7 R k   G 3 . i : 2 2 l + . X E * X % f F x n k s i U 8 J 4 ] h N & w O.f y c ; > N E = R ! Z H R 3 2 5 o ",
"c w u 6 1 f > # A k J w O.- y . | E v 8 y k i K h i 1 -   q i p i M N v @ $ 5 % E t k @ % : s v v d 8 8 f b k & R i m 2 . k A v ",
". G O.q g @ # 9 D 8 g y & N > x 2 o # 0 v j E a 1 H # 0 0 v 6 6 n 2.=.M m i 5 @ - d n 0 # I 3.A n 5 J . 6 A > - k v 9 1 N # -.I "
};
