/* XPM */
static char *result[] = {
/* columns rows colors chars-per-pixel */
"64 64 57 1 ",
"  c black",
". c #020200",
"X c #030300",
"o c #090900",
"O c #0A0A00",
"+ c #0C0C00",
"@ c #111100",
"# c #151500",
"$ c #161600",
"% c #272700",
"& c #282800",
"* c #2E2E00",
"= c #414100",
"- c #474700",
"; c #484800",
": c #4B4B00",
"> c #4D4D00",
", c #505000",
"< c #525200",
"1 c #585800",
"2 c #595900",
"3 c #5C5C00",
"4 c #5E5E00",
"5 c #606000",
"6 c #616100",
"7 c #626200",
"8 c #676700",
"9 c #6B6B00",
"0 c #707000",
"q c #777700",
"w c #868600",
"e c #999900",
"r c #9B9B00",
"t c #9F9F00",
"y c #B8B800",
"u c #C0C000",
"i c #C4C400",
"p c #C5C500",
"a c #C6C600",
"s c #C8C800",
"d c #C9C900",
"f c #CACA00",
"g c #DADA00",
"h c #DBDB00",
"j c #E0E000",
"k c #E6E600",
"l c #ECEC00",
"z c #F0F000",
"x c #F1F100",
"c c #F5F500",
"v c #F8F800",
"b c #FAFA00",
"n c #FCFC00",
"m c #FDFD00",
"M c #FEFE00",
"N c yellow",
"B c None",
/* pixels */
"BBBBBBBBBBBBBBBBBBBBBBBBBBBBBBBBBBBBBBBBBBBBBBBBBBBBBBBBBBBBBBBB",
"BBBBBBBBBBBBBBBBBBBBBBBBBBBBBBBBBBBBBBBBBBBBBBBBBBBBBBBBBBBBBBBB",
"BBBBBBBBBBBBBBBBBBBBBBBBBBBBBBBBBBBBBBBBBBBBBBBBBBBBBBBBBBBBBBBB",
"BBBBBBBBBBBBBBBBBBBBBBBBBBBBBBBBBBBBBBBBBBBBBBBBBBBBBBBBBBBBBBBB",
"BBBBBBBBBBBBBBBBBBBBBBBBBBBBBBBBBBBBBBBBBBBBBBBBBBBBBBBBBBBBBBBB",
"BBBBBBBBBBBBBBBBBBBBBBBBBBBBBBBBBBBBBBBBBBBBBBBBBBBBBBBBBBBBBBBB",
"BBBBBBBBBBBBBBBBBBBBBBBBBBBBBBBBBBBBBBBBBBBBBBBBBBBBBBBBBBBBBBBB",
"BBBBBBBBBBBBBBBBBBBBBBBBBBBBBBBBBBBBBBBBBBBBBBBBBBBBBBBBBBBBBBBB",
"BBBBBBBBBBBBBBBBBBBBBBBBBBBBBBBBBBBBBBBBBBBBBBBBBBBBBBBBBBBBBBBB",
"BBBBBBBBBBBBBBBBBBBBBBBBBBBBBBBBBBBBBBBBBBBBBBBBBBBBBBBBBBBBBBBB",
"BBBBBBBBBBBBBBBBBBBBBBBBBBBBBBBBBBBBBBBBBBBBBBBBBBBBBBBBBBBBBBBB",
"BBBBBBBBBBBBBBBBBBBBBBBBBBBB         BBBBBBBBBBBBBBBBBBBBBBBBBBB",
"BBBBBBBBBBBBBBBBBBBBBBBB                 BBBBBBBBBBBBBBBBBBBBBBB",
"BBBBBBBBBBBBBBBBBBBBBB    +;wfNNNNNdw-O    BBBBBBBBBBBBBBBBBBBBB",
"BBBBBBBBBBBBBBBBBBBB   oqpNNNNNNNNNNNNNpqo   BBBBBBBBBBBBBBBBBBB",
"BBBBBBBBBBBBBBBBBBB   4kNNNNNNNNNNNNNNNNNk3   BBBBBBBBBBBBBBBBBB",
"BBBBBBBBBBBBBBBBBB  *sNNNNNNNNNNNNNNNNNNNNNs*  BBBBBBBBBBBBBBBBB",
"BBBBBBBBBBBBBBBBB  :xNNNNNNNNNNNNNNNNNNNNNNNl=  BBBBBBBBBBBBBBBB",
"BBBBBBBBBBBBBBBB  8nNNNNNNNNNNNNNNNNNNNNNNNNNn9  BBBBBBBBBBBBBBB",
"BBBBBBBBBBBBBBB  0NNNNNNNNNNNNNNNNNNNNNNNNNNNNN0  BBBBBBBBBBBBBB",
"BBBBBBBBBBBBBB  >mNNNNNNNNNNNNNNNNNNNNNNNNNNNNNm,  BBBBBBBBBBBBB",
"BBBBBBBBBBBBB  %cNNNNNNNNNNNNNNNNNNNNNNNNNNNNNNNz%  BBBBBBBBBBBB",
"BBBBBBBBBBBBB  fNNNNNNNNNNNNNNNNNNNNNNNNNNNNNNNNNs  BBBBBBBBBBBB",
"BBBBBBBBBBBB  5NNNNNNNNNNNNNNNNNNNNNNNNNNNNNNNNNNN5  BBBBBBBBBBB",
"BBBBBBBBBBBB XhNNNNNNNNNNNNNNNNNNNNNNNNNNNNNNNNNNNgX BBBBBBBBBBB",
"BBBBBBBBBBB  5NNNNNNNNNNNNNNNNNNNNNNNNNNNNNNNNNNNNN5 BBBBBBBBBBB",
"BBBBBBBBBBB  uNNNNNNNNNNNNNNNNNNNNNNNNNNNNNNNNNNNNNy  BBBBBBBBBB",
"BBBBBBBBBBB #MNNNNNNNNNNNNNNNNNNNNNNNNNNNNNNNNNNNNNb$ BBBBBBBBBB",
"BBBBBBBBBBB 5NNNNNNNNNNNNNNNNNNNNNNNNNNNNNNNNNNNNNNN5 BBBBBBBBBB",
"BBBBBBBBBB  rNNNNNNNNNNNNNNNNNNNNNNNNNNNNNNNNNNNNNNNe  BBBBBBBBB",
"BBBBBBBBBB  uNNNNNNNNNNNNNNNNNNNNNNNNNNNNNNNNNNNNNNNu  BBBBBBBBB",
"BBBBBBBBBB  jNNNNNNNNNNNNNNNNNNNNNNNNNNNNNNNNNNNNNNNj  BBBBBBBBB",
"BBBBBBBBBB  vNNNNNNNNNNNNNNNNNNNNNNNNNNNNNNNNNNNNNNNz  BBBBBBBBB",
"BBBBBBBBBB  NNNNNNNNNNNNNNNNNNNNNNNNNNNNNNNNNNNNNNNNv  BBBBBBBBB",
"BBBBBBBBBB  vNNNNNNNNNNNNNNNNNNNNNNNNNNNNNNNNNNNNNNNv  BBBBBBBBB",
"BBBBBBBBBB  jNNNNNNNNNNNNNNNNNNNNNNNNNNNNNNNNNNNNNNNj  BBBBBBBBB",
"BBBBBBBBBB  uNNNNNNNNNNNNNNNNNNNNNNNNNNNNNNNNNNNNNNNu  BBBBBBBBB",
"BBBBBBBBBB  tNNNNNNNNNNNNNNNNNNNNNNNNNNNNNNNNNNNNNNNe  BBBBBBBBB",
"BBBBBBBBBBB 5NNNNNNNNNNNNNNNNNNNNNNNNNNNNNNNNNNNNNNN1 BBBBBBBBBB",
"BBBBBBBBBBB #NNNNNNNNNNNNNNNNNNNNNNNNNNNNNNNNNNNNNNN@ BBBBBBBBBB",
"BBBBBBBBBBB  uNNNNNNNNNNNNNNNNNNNNNNNNNNNNNNNNNNNNNy  BBBBBBBBBB",
"BBBBBBBBBBB  3NNNNNNNNNNNNNNNNNNNNNNNNNNNNNNNNNNNNN3 BBBBBBBBBBB",
"BBBBBBBBBBBB XgNNNNNNNNNNNNNNNNNNNNNNNNNNNNNNNNNNNhX BBBBBBBBBBB",
"BBBBBBBBBBBB  6NNNNNNNNNNNNNNNNNNNNNNNNNNNNNNNNNNN2  BBBBBBBBBBB",
"BBBBBBBBBBBBB .sNNNNNNNNNNNNNNNNNNNNNNNNNNNNNNNNNf  BBBBBBBBBBBB",
"BBBBBBBBBBBBB  %cNNNNNNNNNNNNNNNNNNNNNNNNNNNNNNNz%  BBBBBBBBBBBB",
"BBBBBBBBBBBBBB  <NNNNNNNNNNNNNNNNNNNNNNNNNNNNNNN>  BBBBBBBBBBBBB",
"BBBBBBBBBBBBBBB  0NNNNNNNNNNNNNNNNNNNNNNNNNNNNN0  BBBBBBBBBBBBBB",
"BBBBBBBBBBBBBBBB  9nNNNNNNNNNNNNNNNNNNNNNNNNNn8  BBBBBBBBBBBBBBB",
"BBBBBBBBBBBBBBBBB  :xNNNNNNNNNNNNNNNNNNNNNNNx:  BBBBBBBBBBBBBBBB",
"BBBBBBBBBBBBBBBBBB  &sNNNNNNNNNNNNNNNNNNNNNi%  BBBBBBBBBBBBBBBBB",
"BBBBBBBBBBBBBBBBBBB   7kNNNNNNNNNNNNNNNNNk3   BBBBBBBBBBBBBBBBBB",
"BBBBBBBBBBBBBBBBBBBB   oqpNNNNNNNNNNNNNpqo   BBBBBBBBBBBBBBBBBBB",
"BBBBBBBBBBBBBBBBBBBBBB    +-wdNNNNNaw;+    BBBBBBBBBBBBBBBBBBBBB",
"BBBBBBBBBBBBBBBBBBBBBBBB                 BBBBBBBBBBBBBBBBBBBBBBB",
"BBBBBBBBBBBBBBBBBBBBBBBBBBBB         BBBBBBBBBBBBBBBBBBBBBBBBBBB",
"BBBBBBBBBBBBBBBBBBBBBBBBBBBBBBBBBBBBBBBBBBBBBBBBBBBBBBBBBBBBBBBB",
"BBBBBBBBBBBBBBBBBBBBBBBBBBBBBBBBBBBBBBBBBBBBBBBBBBBBBBBBBBBBBBBB",
"BBBBBBBBBBBBBBBBBBBBBBBBBBBBBBBBBBBBBBBBBBBBBBBBBBBBBBBBBBBBBBBB",
"BBBBBBBBBBBBBBBBBBBBBBBBBBBBBBBBBBBBBBBBBBBBBBBBBBBBBBBBBBBBBBBB",
"BBBBBBBBBBBBBBBBBBBBBBBBBBBBBBBBBBBBBBBBBBBBBBBBBBBBBBBBBBBBBBBB",
"BBBBBBBBBBBBBBBBBBBBBBBBBBBBBBBBBBBBBBBBBBBBBBBBBBBBBBBBBBBBBBBB",
"BBBBBBBBBBBBBBBBBBBBBBBBBBBBBBBBBBBBBBBBBBBBBBBBBBBBBBBBBBBBBBBB",
"BBBBBBBBBBBBBBBBBBBBBBBBBBBBBBBBBBBBBBBBBBBBBBBBBBBBBBBBBBBBBBBB"
};
