/* XPM */
static char *result[] = {
/* columns rows colors chars-per-pixel */
"64 64 68 1 ",
"  c black",
". c #030000",
"X c #040000",
"o c #070000",
"O c #080000",
"+ c #0A0000",
"@ c #0C0000",
"# c #0D0000",
"$ c #0E0000",
"% c #0F0000",
"& c #150000",
"* c #160000",
"= c #1E0000",
"- c #200000",
"; c #240000",
": c #280000",
"> c #290000",
", c #2B0000",
"< c #2E0000",
"1 c #2F0000",
"2 c #300000",
"3 c #330000",
"4 c #350000",
"5 c #360000",
"6 c #380000",
"7 c #390000",
"8 c #3B0000",
"9 c #3D0000",
"0 c #400000",
"q c #440000",
"w c #480000",
"e c #500000",
"r c #580000",
"t c #600000",
"y c #680000",
"u c #700000",
"i c #780000",
"p c #800000",
"a c #880000",
"s c #8F0000",
"d c #900000",
"f c #980000",
"g c #A80000",
"h c #B00000",
"j c #B80000",
"k c #BF0000",
"l c #C00000",
"z c #C60000",
"x c #C80000",
"c c #C90000",
"v c #D00000",
"b c #D40000",
"n c #D60000",
"m c #D80000",
"M c #DF0000",
"N c #E00000",
"B c #E10000",
"V c #E50000",
"C c #E70000",
"Z c #E90000",
"A c #EA0000",
"S c #F10000",
"D c #F20000",
"F c #F70000",
"G c #F80000",
"H c #FC0000",
"J c red",
"K c None",
/* pixels */
"KKKKKKKKKKKKKKKKKKKKKKKKKKKKKKKKKKKKKKKKKKKKKKKKKKKKKKKKKKKKKKKK",
"KKKKKKKKKKKKKKKKKKKKKKKKKKKKKKKKKKKKKKKKKKKKKKKKKKKKKKKKKKKKKKKK",
"KKKKKKKKKKKKKKKKKKKKKKKKKKKKKKKKKKKKKKKKKKKKKKKKKKKKKKKKKKKKKKKK",
"KKKKKKKKKKKKKKKKKKKKKKKKKKKKKKKKKKKKKKKKKKKKKKKKKKKKKKKKKKKKKKKK",
"KKKKKKKKKKKKKKKKKKKKKKKKKKKKKKKKKKKKKKKKKKKKKKKKKKKKKKKKKKKKKKKK",
"KKKKKKKKKKKKKKKKKKKKKKKKKKKKKKKKKKKKKKKKKKKKKKKKKKKKKKKKKKKKKKKK",
"KKKKKKKKKKKKKKKKKKKKKKKKKKKKKKKKKKKKKKKKKKKKKKKKKKKKKKKKKKKKKKKK",
"KKKKKKKKKKKKKKKKKKKKKKKKKKKKKKKKKKKKKKKKKKKKKKKKKKKKKKKKKKKKKKKK",
"KKKKKKKKKKKKKKKKKKKKKKKKKKKKKKKKKKKKKKKKKKKKKKKKKKKKKKKKKKKKKKKK",
"KKKKKKKKKKKKKKKKKKKKKKKKKKK          KKKKKKKKKKKKKKKKKKKKKKKKKKK",
"KKKKKKKKKKKKKKKKKKKKKKK                  KKKKKKKKKKKKKKKKKKKKKKK",
"KKKKKKKKKKKKKKKKKKKKK                      KKKKKKKKKKKKKKKKKKKKK",
"KKKKKKKKKKKKKKKKKKK                          KKKKKKKKKKKKKKKKKKK",
"KKKKKKKKKKKKKKKKKK                            KKKKKKKKKKKKKKKKKK",
"KKKKKKKKKKKKKKKK                                KKKKKKKKKKKKKKKK",
"KKKKKKKKKKKKKKK                                  KKKKKKKKKKKKKKK",
"KKKKKKKKKKKKKK                                    KKKKKKKKKKKKKK",
"KKKKKKKKKKKKK                                      KKKKKKKKKKKKK",
"KKKKKKKKKKKK               skkkkkkkkk1              KKKKKKKKKKKK",
"KKKKKKKKKKKK               lJJJJJJJJJ0              KKKKKKKKKKKK",
"KKKKKKKKKKK                xJJJJJJJJJ6               KKKKKKKKKKK",
"KKKKKKKKKK                 vJJJJJJJJJ2                KKKKKKKKKK",
"KKKKKKKKKK                 vJJJJJJJJJ2                KKKKKKKKKK",
"KKKKKKKKK                  vJJJJJJJJJ2                 KKKKKKKKK",
"KKKKKKKKK                  vJJJJJJJJJ2                 KKKKKKKKK",
"KKKKKKKK                   vJJJJJJJJJ2                  KKKKKKKK",
"KKKKKKKK                   mJJJJJJJJJ:                  KKKKKKKK",
"KKKKKKKK                   NJJJJJJJJJ-                  KKKKKKKK",
"KKKKKKKK                   NJJJJJJJJJ-                  KKKKKKKK",
"KKKKKKK                    NJJJJJJJJJ-                   KKKKKKK",
"KKKKKKK            <986432<VJJJJJJJJJ<%@+oX              KKKKKKK",
"KKKKKKK            rJJJJJJJJJJJJJJJJJJJJJJJj             KKKKKKK",
"KKKKKKK             zJJJJJJJJJJJJJJJJJJJJJG>             KKKKKKK",
"KKKKKKK             7JJJJJJJJJJJJJJJJJJJJJa              KKKKKKK",
"KKKKKKK              hJJJJJJJJJJJJJJJJJJJA#              KKKKKKK",
"KKKKKKK              ,HJJJJJJJJJJJJJJJJJJt               KKKKKKK",
"KKKKKKK               fJJJJJJJJJJJJJJJJJc                KKKKKKK",
"KKKKKKK               *SJJJJJJJJJJJJJJJH5                KKKKKKK",
"KKKKKKK                iJJJJJJJJJJJJJJJf                 KKKKKKK",
"KKKKKKKK               OMJJJJJJJJJJJJJD&                KKKKKKKK",
"KKKKKKKK                rJJJJJJJJJJJJJu                 KKKKKKKK",
"KKKKKKKK                 zJJJJJJJJJJJn.                 KKKKKKKK",
"KKKKKKKK                 7JJJJJJJJJJJq                  KKKKKKKK",
"KKKKKKKKK                 gJJJJJJJJJg                  KKKKKKKKK",
"KKKKKKKKK                 -FJJJJJJJG=                  KKKKKKKKK",
"KKKKKKKKKK                 aJJJJJJJp                  KKKKKKKKKK",
"KKKKKKKKKK                 $ZJJJJJBo                  KKKKKKKKKK",
"KKKKKKKKKKK                 yJJJJJe                  KKKKKKKKKKK",
"KKKKKKKKKKKK                .bJJJj                  KKKKKKKKKKKK",
"KKKKKKKKKKKK                 wJJH>                  KKKKKKKKKKKK",
"KKKKKKKKKKKKK                 jJd                  KKKKKKKKKKKKK",
"KKKKKKKKKKKKKK                ,C#                 KKKKKKKKKKKKKK",
"KKKKKKKKKKKKKKK                ;                 KKKKKKKKKKKKKKK",
"KKKKKKKKKKKKKKKK                                KKKKKKKKKKKKKKKK",
"KKKKKKKKKKKKKKKKKK                            KKKKKKKKKKKKKKKKKK",
"KKKKKKKKKKKKKKKKKKK                          KKKKKKKKKKKKKKKKKKK",
"KKKKKKKKKKKKKKKKKKKKK                      KKKKKKKKKKKKKKKKKKKKK",
"KKKKKKKKKKKKKKKKKKKKKKK                  KKKKKKKKKKKKKKKKKKKKKKK",
"KKKKKKKKKKKKKKKKKKKKKKKKKKK          KKKKKKKKKKKKKKKKKKKKKKKKKKK",
"KKKKKKKKKKKKKKKKKKKKKKKKKKKKKKKKKKKKKKKKKKKKKKKKKKKKKKKKKKKKKKKK",
"KKKKKKKKKKKKKKKKKKKKKKKKKKKKKKKKKKKKKKKKKKKKKKKKKKKKKKKKKKKKKKKK",
"KKKKKKKKKKKKKKKKKKKKKKKKKKKKKKKKKKKKKKKKKKKKKKKKKKKKKKKKKKKKKKKK",
"KKKKKKKKKKKKKKKKKKKKKKKKKKKKKKKKKKKKKKKKKKKKKKKKKKKKKKKKKKKKKKKK",
"KKKKKKKKKKKKKKKKKKKKKKKKKKKKKKKKKKKKKKKKKKKKKKKKKKKKKKKKKKKKKKKK"
};
