/* XPM */
static char *down1709072904[] = {
/* columns rows colors chars-per-pixel */
"64 64 134 2 ",
"   c None",
".  c #020202",
"X  c #060708",
"o  c #06080A",
"O  c #0B0B0C",
"+  c #0D0F11",
"@  c #021014",
"#  c #0F1114",
"$  c #00151A",
"%  c #0F1618",
"&  c #00181E",
"*  c #0F1C1F",
"=  c #141414",
"-  c #141619",
";  c #16191B",
":  c #1C1C1C",
">  c #001D25",
",  c #0E1D22",
"<  c #1C1E21",
"1  c #0D2329",
"2  c #162226",
"3  c #1D2124",
"4  c #15252A",
"5  c #1F2429",
"6  c #15282E",
"7  c #1D282B",
"8  c #0D2A33",
"9  c #102A31",
"0  c #13333C",
"q  c #1E373D",
"w  c #232323",
"e  c #22262A",
"r  c #242A2C",
"t  c #2A2A2B",
"y  c #262C32",
"u  c #282E36",
"i  c #2A3136",
"p  c #24363C",
"a  c #2D343C",
"s  c gray23",
"d  c #123640",
"f  c #113A46",
"g  c #143F4A",
"h  c #2E3742",
"j  c #223B42",
"k  c #2F3944",
"l  c #343B44",
"z  c #353E48",
"x  c #383F48",
"c  c #1A444F",
"v  c #094555",
"b  c #124554",
"n  c #194652",
"m  c #134B5A",
"M  c #1A4D5C",
"N  c #37404B",
"B  c #3B444E",
"V  c #3D4651",
"C  c #3E4954",
"Z  c #3F4B59",
"A  c #08576D",
"S  c #175364",
"D  c #1B5564",
"F  c #135669",
"G  c #195769",
"H  c #165869",
"J  c #19596B",
"K  c #0E5B70",
"L  c #155E72",
"P  c #195F72",
"I  c #0E667F",
"U  c #176277",
"Y  c #186275",
"T  c #176479",
"R  c #16687F",
"E  c #424A55",
"W  c #424D5A",
"Q  c #46515E",
"!  c #49515C",
"~  c #5A5A5A",
"^  c #475360",
"/  c #4A5562",
"(  c #4E5966",
")  c #515B66",
"_  c #535D6A",
"`  c #56616D",
"'  c #5A636E",
"]  c #5C6672",
"[  c #5F6975",
"{  c #646464",
"}  c #616B76",
"|  c #636D79",
" . c #66707B",
".. c #69737D",
"X. c #7C7C7C",
"o. c #0A6780",
"O. c #0D6983",
"+. c #086C88",
"@. c #126C84",
"#. c #0C738F",
"$. c #10728D",
"%. c #0A7593",
"&. c #077897",
"*. c #097997",
"=. c #0C7B99",
"-. c #137591",
";. c #117D9B",
":. c #0D85A5",
">. c #0C87A9",
",. c #0488AC",
"<. c #0D89AC",
"1. c #048EB4",
"2. c #0C8DB0",
"3. c #0590B5",
"4. c #0494BB",
"5. c #0B94B9",
"6. c #049BC5",
"7. c #019FCA",
"8. c #03A2CE",
"9. c #01A6D3",
"0. c #02A9D7",
"q. c #01ADDC",
"w. c #02B0DF",
"e. c #01B3E3",
"r. c #01B7E8",
"t. c #01BAEC",
"y. c #00BEF2",
"u. c #818181",
"i. c #898989",
"p. c #A5A5A5",
"a. c #BCBCBC",
"s. c #D2D2D2",
"d. c #DFDFDF",
"f. c #E1E1E1",
/* pixels */
"                                                                                                                                ",
"                                                                                                                                ",
"                                                                                                                                ",
"                                            f.f.i.X X X . X X O X X O X X X = { f.s.p.                                          ",
"                                        X t u.a.u.w : w : w : : : : w w w w t ~ p.X.t : O                                       ",
"                                      O = : t s t : : : : : : : : : : : : : : w w w : : = X X                                   ",
"                                    X O = = = O = + + O O O O O O = O O O O O = = = = = = = =                                   ",
"                                    O = = O = O O O O O O O O O X O O O O O O O O = O = O = O .                                 ",
"                                  O : : ; : = = O O O # % 1 , = = = - 8 1 = = = = - = : = = O O .                               ",
"                                  . O O = = : = ; = : : m 7.%.6 : 3 K 8.*.3 : ; ; - : = = X X . .                               ",
"                                  . X O = : : : w : : 3 F r.9.o.2 b 6.r.>.e w : w : w : = O . . .                               ",
"                                  . X + : : w w w w 3 e H r.e.%.2 m 9.t.>.7 w w w w w : : + X . .                               ",
"                                  X O = : : w w w w w w G r.e.%.2 b 8.t.<.7 w w w w w : : = X . .                               ",
"                                  . O = : w w w w w w e S e.q.%.2 b 8.r.<.7 w w w w w w : = O . .                               ",
"                                  . O = : w w w w w w w M 9.e.&.4 b 8.w.:.r 3 w w w w w : = X . .                               ",
"                                  . O = : w : w : w w 3 b 6.e.&.4 b 6.w.*.7 w : : : : : : = O . .                               ",
"                                  . O = : : : : : : : < g 1.6.+.4 f ,.4.o.< : : : - ; ; - = O . .                               ",
"                                  . . + = = = = = = = - ; 8 8 1 - ; 4 4 , ; = ; ; ; : - = O . . .                               ",
"                                  . O 5 7 e e e e y y y y y y y y y y u u u u u u u u y < = . . .                               ",
"                                  . = a < a k l l l l l l l l z z z z z z z z N z z l 5 - a . . .                               ",
"                                  . - z h 5 z C V C C C E B E E C C C C W E C C E V u + 2 h o . .                               ",
"                                  . - C C p 5 V E E C C C E E E V C V V V B V B B a - < V l X . .                               ",
"                                  . = V W h - < w 3 : 3 : < w : < : < : : < < : : ; < z W l o . .                               ",
"                                  . % C C h ; : : < : : : : : : : 3 : < : w : : < < 5 z W l o . .                               ",
"                                  . % V C k < : w w < : : : w : w w w w w w : w w w w a W z O . .                               ",
"                                  . + V W h < : w < : : = = : : : w < w w w w w w w : w V z o . .                               ",
"                                  . # V W h < < w : : = = = = : : : w w w w w w w : : < V z O . .                               ",
"                                  . # B V w : < w : : + = = = = = = ; : : : w : < : : < B z O . .                               ",
"                                  . + z N < = : : : : = = = : = = = = : : : : : - - - : a a o . .                               ",
"                                  . . # = + = : : w : = = = = : : : = = = = : = = = - = ; = . . .                               ",
"                                  . O a h ; = = : : : : = = : : w : : = = = = = = = = < z z O . .                               ",
"                                  . + V W h ; = = = = : : = = : : w w w : : = = = = ; < B B O . .                               ",
"                                  . + V Q V w ; = = = - = = = = : w w w : : : : : : : : V V + . .                               ",
"                                  . O B / V w : : : = = = = = = : : w w w w w w : w : : C V + . .                               ",
"                                  . + V / V w : : : - = = = + = = : w w w w : : : : - : V V + . .                               ",
"                                  . O V ^ V 3 = = = = = = = + # = : : = = = : = = < : : V E # . .                               ",
"                                  . O B E 5 a a - = = = = # = % ; = - - : : - ; < h l < h V + . .                               ",
"                                  . O B C 3 a V s l l a k s N s l x x x s N x N x B B u ; a # . .                               ",
"                                  . o l e a V ! E C E B V V V V E B E V E E E E E E W V ; y + . .                               ",
"                          = : O . . o a 3 B ) ) ( ! ! W W Z Q Q W ! ! ! ! / ! ! ( ( ( / y = . . . . O O .                       ",
"                          O : : . . . # l ( ] [ ] ` ! ! / / / / ) ( _ _ _ _ ` ` ] ] ] ] ) ; . . . . : w O                       ",
"                            O O . . . O V ] | ..| ] ' ` ` ` ` ` ] ] ] ] [ [ } } [ } | } ' t O . . . . .                         ",
"                                . . . u ! ' ......| } [ [ [ [ | } | } | } } } } } } ] ] _ E = . .                               ",
"                                . . . + : E ' ] } ] ' ' [ | | [ [ [ ] ] ] ' ! ! W W W E x = . . .                               ",
"                                . . X O O - - - = = = ; E ) ) ( ( / ! ! W E ; O O O O = = = = O .                               ",
"                                . . O = = = = = = + # # : < : : ; : : - - = = = = = = = - : = = .                               ",
"                                . . O = : : : : : : 2 4 4 4 ; - = - : : 4 0 d 0 3 : : : w : ; O .                               ",
"                                  . O ; : w w 3 w 7 O.6.8.3.c r e w w r %.0.w.6.c w w w w w : O .                               ",
"                                  . O ; < w w w w r =.r.y.r.D t w t r y 2.y.y.8.c w w w t w : O .                               ",
"                                  . . O : w w w w t $.q.y.r.Y t t w r j 5.y.r.4.c w w t w w = X                                 ",
"                                  . . O : w w w w w q :.r.y.8.M w t y -.e.y.0.H w w w w w : = .                                 ",
"                                  . . O = : w t w w r %.e.y.e.J t w t >.y.y.9.M w w t t w : X .                                 ",
"                                    . . O : w w w w w #.e.y.t.P w w t <.y.y.0.m w w t w : : X .                                 ",
"                                    . . O = w w w e r #.e.y.t.Y t t t :.y.y.0.S t w w w : = .                                   ",
"                                      . O = : w t t t @.q.y.t.Y w t t >.y.t.6.M t w w w - X .                                   ",
"                                      . . O = : w w t p =.e.t.@.y t p 2.y.0.P t t w w : = X                                     ",
"                                        . . O : w e t t $.e.y.9.D t R 0.y.9.G t w w < = O .                                     ",
"                                        . . O = : w t t R 0.t.t.T t :.y.t.8.D t e : : O X                                       ",
"                                          . . O = : t t u -.e.y.R r :.y.w.P t t w = = .                                         ",
"                                            . . O = : w w R q.y.R r -.t.0.F w w = = . .                                         ",
"                                              . . . . = = A 6.9.Y w I 8.3.v # X . .                                             ",
"                                                    . . . @ > > @ X @ & $ o . .                                                 ",
"                                                                                                                                ",
"                                                                                                                                "
};
