/* XPM */
static char *exit_open1709073593[] = {
/* columns rows colors chars-per-pixel */
"64 64 232 2 ",
"   c None",
".  c #040403",
"X  c #0A0605",
"o  c #0A0807",
"O  c #0B0B0B",
"+  c #080808",
"@  c #140A06",
"#  c #120D0C",
"$  c #150806",
"%  c #0F100E",
"&  c #13100E",
"*  c #1A110E",
"=  c #0E0E10",
"-  c #120F10",
";  c #141414",
":  c #181515",
">  c #161816",
",  c #181916",
"<  c #161818",
"1  c #1A1A19",
"2  c #171718",
"3  c #0F1011",
"4  c #22120C",
"5  c #2B190F",
"6  c #3D190B",
"7  c #241411",
"8  c #291611",
"9  c #231E1C",
"0  c #2B1D17",
"q  c #311B13",
"w  c #1F201C",
"e  c #23221E",
"r  c #2B221C",
"t  c #3C231A",
"y  c #35241D",
"u  c #252522",
"i  c #2B2622",
"p  c #272823",
"a  c #2A2A26",
"s  c #2D2C29",
"d  c #302D2B",
"f  c #372B26",
"g  c #33312D",
"h  c #3C322C",
"j  c #353431",
"k  c #3B3633",
"l  c #3C3A36",
"z  c #3E3D39",
"x  c #2F302D",
"c  c #411D0F",
"v  c #441E11",
"b  c #4A2315",
"n  c #4D2619",
"m  c #4D291A",
"M  c #46271B",
"N  c #542B1D",
"B  c #5A2E1E",
"V  c #50271A",
"C  c #5D301F",
"Z  c #532E22",
"A  c #5B2F20",
"S  c #4B392D",
"D  c #46342A",
"F  c #543124",
"G  c #5E3122",
"H  c #5D3B2C",
"J  c #57382C",
"K  c #413E3B",
"L  c #473B35",
"P  c #5C3E32",
"I  c #643525",
"U  c #6A3624",
"Y  c #6C3926",
"T  c #643C2C",
"R  c #6D3B29",
"E  c #683728",
"W  c #733E2B",
"Q  c #783F2D",
"!  c #633E30",
"~  c #602F20",
"^  c #3F403B",
"/  c #43413D",
"(  c #4C423B",
")  c #5C4234",
"_  c #59473B",
"`  c #6B402D",
"'  c #75412D",
"]  c #7A422E",
"[  c #634434",
"{  c #6C4433",
"}  c #6B4C3B",
"|  c #674A39",
" . c #744432",
".. c #7D4532",
"X. c #7E4935",
"o. c #724D3A",
"O. c #7C4C37",
"+. c #76543B",
"@. c #6C523E",
"#. c #464440",
"$. c #4A4643",
"%. c #4B4A45",
"&. c #4F4D49",
"*. c #434649",
"=. c #514F4C",
"-. c #584D4A",
";. c #55524D",
":. c #505047",
">. c #595654",
",. c #595658",
"<. c #5B595B",
"1. c #595654",
"2. c #6C5747",
"3. c #745442",
"4. c #785A47",
"5. c #625D58",
"6. c #6E4F40",
"7. c #7E624C",
"8. c #6A635E",
"9. c #696159",
"0. c #786557",
"q. c #5F5F61",
"w. c #615E61",
"e. c #656465",
"r. c #6E6C6E",
"t. c #686A68",
"y. c #766D65",
"u. c #747475",
"i. c #7C7C7E",
"p. c #797974",
"a. c #7B746C",
"s. c #824633",
"d. c #834935",
"f. c #8A4C36",
"g. c #824D39",
"h. c #8A4E38",
"j. c #82553E",
"k. c #825C43",
"l. c #815F4C",
"z. c #855945",
"x. c #915D45",
"c. c #83614D",
"v. c #8C624A",
"b. c #896449",
"n. c #93644B",
"m. c #9A6A4D",
"M. c #96654C",
"N. c #896653",
"B. c #8C6A52",
"V. c #8D6D5A",
"C. c #826755",
"Z. c #936B53",
"A. c #9A6D54",
"S. c #936E5A",
"D. c #9B6853",
"F. c #8F745D",
"G. c #9C7156",
"H. c #95725B",
"J. c #9D755B",
"K. c #9D795E",
"L. c #957156",
"P. c #A96C54",
"I. c #A2755C",
"U. c #A37A5E",
"Y. c #A9775A",
"T. c #A1654D",
"R. c #887769",
"E. c #9A7762",
"W. c #9D7A64",
"Q. c #997A67",
"!. c #A57D63",
"~. c #AA7E63",
"^. c #A17D6A",
"/. c #AE7F68",
"(. c #B47C63",
"). c #7E8078",
"_. c #9D826B",
"`. c #988473",
"'. c #88837C",
"]. c #AA8366",
"[. c #A58169",
"{. c #AC856B",
"}. c #AB896E",
"|. c #A68166",
" X c #B3856B",
".X c #B48A6C",
"XX c #B98869",
"oX c #AC8C72",
"OX c #A88874",
"+X c #B48D73",
"@X c #B78D75",
"#X c #AC917B",
"$X c #B4927B",
"%X c #BC967B",
"&X c #BD997D",
"*X c #B79275",
"=X c #C49C7D",
"-X c #C39778",
";X c #807F81",
":X c #7F898B",
">X c #848485",
",X c #8C8B8A",
"<X c #888785",
"1X c #948E89",
"2X c #91908F",
"3X c #9C9387",
"4X c #969493",
"5X c #999795",
"6X c #9A9894",
"7X c #899597",
"8X c #BD9B81",
"9X c #BA9883",
"0X c #A99482",
"qX c #BBA18D",
"wX c #8E9DA0",
"eX c #B2AFA8",
"rX c #9FAEAC",
"tX c #C39D82",
"yX c #C79E86",
"uX c #C4A18A",
"iX c #CCA58B",
"pX c #C8A085",
"aX c #C9AA95",
"sX c #D3AE95",
"dX c #D6B39A",
"fX c #E1BBA1",
"gX c #DABCA5",
"hX c #B9C0B7",
"jX c #BDCACA",
"kX c #C3D3D1",
"lX c #D0E2DE",
"zX c #D7EAEC",
/* pixels */
"                                                                                                                                ",
"                                                                                                                                ",
"                                                                                                                                ",
"                                                                                                                                ",
"                                                                                                                                ",
"  2X4X                                                                                                                          ",
"'.<X<X<X<X<X,X<X,X,X,X,X2X,X,X4X2X4X4X5X5X5X5X5X5X5X                                                                            ",
"'.u.u.p.p.u.).:Xi.i.i.:X>X>X>X>X>X>X>X>X>X<X>X>X,X<X,X,X,X2X,X,X,X,X4X,X4X2X4X4X4X5X5X5X5X5X5X5X                                ",
"  %.( %.$.*.=.=.>.<.,.<.,.,.w.w.q.w.t.t.r.r.u.u.u.u.u.u.i.i.i.i.;X;X>X>X>X>X>X>X>X>X>X>X>X<X<X<X<X<X,X,X,X,X2X,X4X2X4X2X2X4X4X4X",
"    -.S h u D D f f f f D h f d f h l K k k K K K $.%.%.&.&.=.>.>.>.>.,.<.9.<.t.e.t.r.r.u.u.u.u.u.u.i.i.i.i.i.i.>X>X;X;X>X>X>X>X",
"    C.c.2.$.3.3.} | [ } o.6.[ ) P P | -.P -.P -.-.S L D S S D D y f L L h h h L k K h k z K K $.$.&.&.&.;.,.,.,.,.,.q.q.q.w.e.t.",
"      iX0X8.OXOXW.tX9X{.+XOXS.S.N.l./.E.E.^.^.V.V.l.c.c.B.N.c.c.} [ 6.2.2.2.2.2.| _ S J P S ) D D S L D L D h f f h a a u D k K ",
"      dX8Xa.qXtXS.l.N.N.N.E.S.E.E.H.uXdXdXaXuX9XaXdXaX9XtXpXtXtXW.L.B.S.B.B.l.c.o.+.+.@.+.b.E.F.N.V.C.7.7.0.C.P ) ) ) ) g -.} ) ",
"    *X*XOX5.Q.I.{ 6 c c v v v 6 Z v Z V n F J J ! J J } o.} N.l.l.V.C.E.W.W.Q.W.N.oXoXOX[.}.tXiXtXyX8XoX9X0X#XE.V.c.l.4.-.Q.~.C.",
"    -X=XOXy.OX.X3.n n n V V Z V Z V V Z Z N V A Z V V v b b b c c b b 6 6 6 Z Z m M b F T H [ T H } 3.} l.l.V.Q.^.Q.&X*Xe.#X=XW.",
"    j.z.N.0.!.U.O.V N A A A A A A A A A A A N A A A A A B B B N B A N N A A Z N N Z B N A m V n n b m m b n b b v F [.!.8.[..XS.",
"    =X.X&XoX%XiXv.N A I I I T I E E I I I I I T E E I I G I I G G G G G A G A I G G C C C B B B B B A B N N N B V T dXgXt.qXsXoX",
"    =X.X=X=X%XiXn.N ~ U I I R R R R R R E R E R Y Y R T R Y Y T T R U R E I U T I E E E U I I I U I I I I I ~ A N H OX$Xy.9XiX}.",
"    |.m.J.G.|.iXn.I U R R R W W W W R R R W R W Y ' Y Y R R Y Y R R R R R R R R R R Y Y Y Y Y ' R U U E U E E E G T 9X%XR.8X*XK.",
"    |.U.U.U.!.=Xv.B U Y Y Y Y W W W W Q W W W W Y ' ' ' R ' W R R W R R R W ' R U R Y ' Y Y Y W R Y W R W R R R I { uX8X$X=XyX|.",
"    %X*X.X|.|.].z.R ' X.g.g.f.s.s.X.] ] W W W Y Y Y Y Y Y U U Y U R U U U Y Y Y R Y W ' W Y Y Y ' W W W ' ' W W T { uX8X]. X XL.",
"    *X-X&XE.].XXj.R ' X.g.d.s.s.d.d.d.d.d.d.g.f.g.d.s.s.d.g.g.s.X.X.X.X...' ..' ' W ' Y ` U Y Y U U U U I U U I B T +X+XB.B.n.+.",
"    }.}.F._ J. Xz.R ] s.f.s.f.s.d.] s.s.....] ] ] ] Q W ] ] ] Q W Q .. .] ....X.X.X.] ..X.g.g.X.X...O.g.O.d.....' { #X}.}.|.}.B.",
"    &XiXR.q._.iXn.W ] s.s.s.f.f.d.s.] ..X.] ] s.] s.s.] Q ] Q W s.X.Q ..Q Q ] ] ] ' ] ' ' ' ' ' ' ' W Y W W W W R { uXiXuX$XpX!.",
"    |.|.p.:Xp.W.j.Q ..s.s.s.f.s.d.d.s.' P  .....] ..] Q Q Q Q Q Q ..Q ..Q ] Q ] Q ..] ....' ' ' ' W ......X.Q ..` ` [.{.C.0.+XH.",
"    |.[.6XkX6X9XA. .s.f.f.f.f.f.d.f.] G 7 R ..s.s.s.s.s.....s.Q ....] Q Q ] ] ] ] ] ] ] ' ' ` ) ` ' ' ] Q W W W U ` {.W.9.1.{.B.",
"    B.E.eXzXeX$XG.' ] f.f.s.h.h.f.f.s. .J X.X.d.s.s.s.s.s.s.s...s.s.X...] s...] ] X.X.] ..' ` 5 Z ' ] ..] Q W Q Y ' +X_.e.t.OXN.",
"      iXeXzXeX&Xn.] s.f.f.h.f.f.h.h.d.g.d.d.s.........] ........Q ......] ] ....] ] X.......` F T ' ] ] ] ] Q Q R { +X_.:XwX#XQ.",
"    oX$X`.rX3X*Xz.F T ! R  . . .O.g.g.g.O.s.X...X.d.g.X.X.X.g.s.s.X.s.X.s.X.O...] ..s.......X. .] ..X.] X.....Q W ! W.`.kXkX3XF.",
"    &X+X`.r.C.|.| o X $ $ * * 4 4 4 5 q 0 t M t M M M F F F F Z G T T R R R  . . .'  ... .....O.....X.s.X.g.....Y o.iXqXkXlXaX_.",
"    pX+X}.R.F..Xo.. . . . X o o X o o O # # # # ; * # * * * 8 7 7 7 8 8 8 8 8 8 q q q t t t M M M F F m F F F G G P $XoXhXjXqX|.",
"    *X{.].[.L. X| . . . . + o O O O % & ; O ; ; ; ; ; ; ; ; : : 2 2 : ; * ; ; & & & % # % @ @ O @ X X @ @ @ @ $ $ y V.L.p.p.[.H.",
"    |.K.L.m.b.m.H . . . . . + O O = 3 3 3 ; ; ; ; < ; ; < < 2 2 2 2 < 2 ; ; ; ; % ; 3 3 3 ; ; O O O O O o o + . . 0 E.S.0.9. X^.",
"    =X=X.XJ.Y. X| . . . . o + O O O - - - - ; 2 ; ; ; 2 ; ; 2 < < 2 < < < < ; ; ; ; ; ; ; 3 3 - ; 3 O O O + . . . 0 E.Z.l.4.I.H.",
"    L.m.b.b.Y.].[ . . . o + + O - - 3 ; ; ; ; ; ; < ; 2 < ; 2 < < < < < < ; < 3 ; ; ; ; ; # 3 ; - = O O + + . . . 9 B.x.k.z.!.J.",
"    G.I.I.|.-X=X3.. . . o + O O O 3 3 ; ; ; ; ; ; ; 2 2 2 2 2 1 1 1 < < < < < < : ; ; 2 ; ; ; O # 3 O O o o + + . 0 *X/.~.!.!.Z.",
"    U.G.m.].-X-X3.. . . . o O O = 3 - ; ; ; ; ; < < ; 2 2 , , 1 1 1 1 , < < < 2 < ; ; ; ; ; ; ; 3 3 O O o + . . . y tX XU.!./.H.",
"    +X.XXX].XX*X} . . . + o O o O - 3 - ; ; ; 2 ; ; 2 2 2 : 2 1 1 1 2 < < ; ; 2 ; 2 ; ; ; ; 3 % - O O o + + + . . 9 ^.{.tX8XpX{.",
"    +XXXXX].~.~.) . . . o + O + O - 3 ; ; ; ; ; 2 ; 2 2 2 2 1 < 2 2 , : : 2 2 ; ; ; ; ; ; & % 3 3 3 O O + + + . . r yX$XdXdXfX*X",
"    .XXXXXY.XXXX} . . . o + + O O 3 O O ; - - ; ; ; ; ; 2 2 2 < : 2 < : < < ; ; 2 ; ; ; ; 3 ; 3 3 O O o + O . . . 9 +X].tXtXiX[.",
"    K.U.U.I.I.I.[ + . . + + o o O O O % 3 % ; & % & ; ; ; ; ; ; 2 2 ; 2 ; ; & ; ; ; ; % ; % 3 3 3 O + O + + . . . 0 }. X XZ.A.k.",
"    =XpX=X-X=XXX6.. . . . . . . . O o O O O % O O o O % = % % % O ; 3 # % % % 3 ; 3 3 % % % % % O O + + + . . . . 9 !.A.J.v.v.k.",
"    }.*X.XK.U.U.} . . . . . . o O % & ; , , > > > > < ; ; ; 3 ; % O O O O O O O O o + O o % o o + + . + + . . . . i $XG.J.J.A.OX",
"    %XfXsX=XpXdX7.. . O + O % ; ; 1 w e p p p e p e u u u w e w w w w 1 1 w , 1 1 > ; ; % % % o O . . . . . . . . r &XU.I.U.Z.*X",
"    K.{.}.].].&X6.O = ; 2 < w u p s s x g g g g x g g x g x s s s s s p p p p p p p r e e e w , ; % O . . . . . . e }.Z.A.A.n.oX",
"    ~.Y. XU.~.}.6.3 ; 1 u u a s s s j l z l ^ l l l k l k k l j g g j j j k h g g g g d g x a e e e 1 : ; # o o . p &X+X~.!.!.B.",
"    J.I. X/.~. X6.< w p s s x j l l l z / / / ^ z / ^ ^ ^ ^ ^ / / ^ / z ^ ^ z ^ ^ l l l ^ j j g d s p e 1 1 ; & o e |.J.A.I.!.B.",
"    {.!.m.M.D.A.! u a x x j l l z ^ / / / / $./ %.$./ #./ / #.#./ $./ / / / / / / / / / ^ ^ ^ k g d d a a u w 1 & r #X&XyXyX-XJ.",
"    %X{.m.A.J.J.| g k z z / / #.%.%.%.&.                        ;.&.&.%.%.%.%.%.( %.$./ / / / K K l k g g s u 9 2 d oX}.*X+X].B.",
"    +X{.U. X{.+X4.z / %.&.&.;.                                              ;.1.;.;.;.;.;.%.%.$.#./ z l l j d s e h oX+X%X*X*XL.",
"    %X=X*X=XiXiXV.=.;.1.                                                                1.1.;.>.=.:.%.%./ ^ l k s L dXsXsX&XI.b.",
"    ].Y.m.A.Y.Y.c.5.                                                                              <.1.>.;.%.%./ z :.+X{.].U.n.+.",
"    -X-XI.m.m. XS.                                                                                      8.9.1.;.:.;.8X+XXX.X XB.",
"    @XXXm.M.x. X                                                                                            y.8.5.9.}.G.m.P.G.b.",
"    Y.Y.T.j.n.                                                                                                '.R.R.sX+Xm.m.m.+.",
"     X~.(.XX-X                                                                                                  3X`.iX].n.M.n. .",
"    ^.H.E.~.                                                                                                        D.T.T.x.P.j.",
"                                                                                                                    Y.P.P.P.(.x.",
"                                                                                                                    L.D.T.D.T.l.",
"                                                                                                                                ",
"                                                                                                                                ",
"                                                                                                                                ",
"                                                                                                                                ",
"                                                                                                                                "
};
