/* XPM */
static char *exit1709072904[] = {
/* columns rows colors chars-per-pixel */
"64 64 230 2 ",
"   c None",
".  c #23140A",
"X  c #3E1E11",
"o  c #3C1E0E",
"O  c #282118",
"+  c #3D2216",
"@  c #3D241A",
"#  c #39281E",
"$  c #352A23",
"%  c #3D2C22",
"&  c #352E2C",
"*  c #362A26",
"=  c #36312D",
"-  c #39312D",
";  c #383231",
":  c #2D2D2E",
">  c #431C0C",
",  c #411F13",
"<  c #432114",
"1  c #4B2112",
"2  c #45241A",
"3  c #4C261A",
"4  c #4B291B",
"5  c #532515",
"6  c #5A2917",
"7  c #51271C",
"8  c #542B1D",
"9  c #5B2B1C",
"0  c #5E311E",
"q  c #6A331F",
"w  c #63311F",
"e  c #612F1E",
"r  c #422C23",
"t  c #492E25",
"y  c #542C21",
"u  c #5A2E20",
"i  c #45332B",
"p  c #4A362C",
"a  c #4D3A2E",
"s  c #483226",
"d  c #5D3122",
"f  c #5D3629",
"g  c #5D392A",
"h  c #553427",
"j  c #4D3B33",
"k  c #503E35",
"l  c #503F39",
"z  c #643524",
"x  c #6C3522",
"c  c #663926",
"v  c #6B3926",
"b  c #66362A",
"n  c #643A2B",
"m  c #6C3B2A",
"M  c #683729",
"N  c #723B27",
"B  c #743E2A",
"V  c #793E29",
"C  c #783C27",
"Z  c #6C372A",
"A  c #58463C",
"S  c #4A423A",
"D  c #6A422D",
"F  c #75412D",
"G  c #7A422E",
"H  c #6D4632",
"J  c #6B4E3A",
"K  c #684734",
"L  c #744332",
"P  c #7D4531",
"I  c #734B36",
"U  c #7B4A34",
"Y  c #734D38",
"T  c #7C4D3A",
"R  c #76523D",
"E  c #7A533D",
"W  c #6F503A",
"Q  c #56514B",
"!  c #5A534E",
"~  c #5A594E",
"^  c #5A5553",
"/  c #5D5A55",
"(  c #5B5A56",
")  c #534643",
"_  c #655448",
"`  c #745443",
"'  c #7B5643",
"]  c #7B5944",
"[  c #755C4B",
"{  c #7B5D4C",
"}  c #735747",
"|  c #615C55",
" . c #635D5B",
".. c #765F50",
"X. c #7B5F50",
"o. c #634F45",
"O. c #78614F",
"+. c #68625B",
"@. c #7A6253",
"#. c #756357",
"$. c #625F60",
"%. c #656664",
"&. c #6D6965",
"*. c #686766",
"=. c #726D6D",
"-. c #706966",
";. c #76726D",
":. c #7A7674",
">. c #656C70",
",. c #81442D",
"<. c #814632",
"1. c #844934",
"2. c #8A4C35",
"3. c #844C39",
"4. c #8C4E39",
"5. c #894733",
"6. c #904F3B",
"7. c #904F37",
"8. c #86513D",
"9. c #8C513C",
"0. c #8E5036",
"q. c #92523B",
"w. c #8D5442",
"e. c #835B46",
"r. c #8A5C43",
"t. c #825C49",
"y. c #875543",
"u. c #925641",
"i. c #945943",
"p. c #995B44",
"a. c #935D49",
"s. c #84624C",
"d. c #8D634A",
"f. c #896649",
"g. c #92654C",
"h. c #94694E",
"j. c #97664B",
"k. c #836452",
"l. c #8A6655",
"z. c #866955",
"x. c #8B6A54",
"c. c #8B6C5B",
"v. c #86695A",
"b. c #946C54",
"n. c #9A6C52",
"m. c #956E59",
"M. c #967153",
"N. c #9C7156",
"B. c #93725C",
"V. c #9C745B",
"C. c #9C795C",
"Z. c #8D705D",
"A. c #A2674D",
"S. c #A76E53",
"D. c #A2755B",
"F. c #A37A5E",
"G. c #A77659",
"H. c #B27A5F",
"J. c #8D7A6C",
"K. c #877366",
"L. c #947461",
"P. c #9B7C65",
"I. c #987B67",
"U. c #89766C",
"Y. c #A37D63",
"T. c #AB7E62",
"R. c #A47F69",
"E. c #AA7F68",
"W. c #B27E65",
"Q. c #7E807B",
"!. c #9A8675",
"~. c #948374",
"^. c #A58166",
"/. c #AB8265",
"(. c #A4826C",
"). c #AB856B",
"_. c #AD896D",
"`. c #A5886F",
"'. c #B3866C",
"]. c #B38A6C",
"[. c #BB8B6E",
"{. c #B18165",
"}. c #A48673",
"|. c #AB8C75",
" X c #A88A77",
".X c #B48C72",
"XX c #BA8E73",
"oX c #B78F79",
"OX c #BB9275",
"+X c #B3927B",
"@X c #BB947A",
"#X c #BD997C",
"$X c #B39378",
"%X c #AE9179",
"&X c #C2967C",
"*X c #C49A7C",
"=X c #C59A78",
"-X c #728886",
";X c #838582",
":X c #868981",
">X c #948F8A",
",X c #92918E",
"<X c #949090",
"1X c #909C9A",
"2X c #8E9491",
"3X c #BC9B82",
"4X c #B99884",
"5X c #A5988A",
"6X c #B9A18C",
"7X c #BBA290",
"8X c #8BA2A3",
"9X c #B7ACA1",
"0X c #A9ACA4",
"qX c #C49D83",
"wX c #CA9E82",
"eX c #C69E89",
"rX c #CBA184",
"tX c #CBA58B",
"yX c #C5A38A",
"uX c #D0A88C",
"iX c #CBA892",
"pX c #D2AC91",
"aX c #D8B59B",
"sX c #E3BC9E",
"dX c #E2BDA3",
"fX c #B6C9BF",
"gX c #B4CBC8",
"hX c #C6DADC",
"jX c #CBE1E3",
"kX c #D8ECEB",
/* pixels */
"                                                                                                                                ",
"                                                                                                                                ",
"                                                                                                                                ",
"                                                                                                                                ",
"    <X,X<X,X,X,X,X,X<X2X<X,X,X,X,X,X,X<X<X<X<X2X,X,X,X,X,X,X<X,X<X<X2X2X,X,X<X<X<X<X,X,X,X,X,X<X<X,X,X,X,X,X<X<X,X<X<X<X>X      ",
"    ~.;X;X;X;X;X;X;X-X;X;X;X;X;X;X;X;X;X;X;X;X;X;X;X;X;X;X;X;X;X~.;X-X~.;X;X;X;X-X~.;X;X;X;X;X;X;X;X;X;X;X;X;X;X;X;X;X-XQ.      ",
"    ;.%.%.%.%.%.%.%.%.%.%.%.%.%.%.%.%.%.%.%.%.%.%.%.%.%.%.%.%.*.%.%.%.%.%.*.*.%.%.*.%.+.%.%.%.%.%.%.%.*.%.%.*.%.%.%.%.%.:.      ",
"      *.& & : : = ; = & = = = = & & ; ; & & = & = = = = = = & & = ; - - - - & & & = = - - - ; = ; - - & & * & : ; ; ) =.        ",
"        j S O - p p p i i i s % % % k k s S l l l S a k a a r % p A ) A l A k p p p p a a p j p j l j % % % * * & j )           ",
"        z.@.S O.] ` } J k.s.t.R ` Y t.{ s.x.k.v.k.s.l.m.m.m.E E ` ] ] ] ` ` ' I K K x.B.m.d.B.s.c.c.c.J J J J o._ B.v.          ",
"        |.4X$.4XY.m.4X+X4X4X+X.X|.R.aXaXaXaXyXiXiXiX+XeXeXeXV.).m.R.^.R.R.R.P.R.Y.R.@X*XqX+X#X|.4X4X4X X}.l.V.X.K.OXP.          ",
"        aXaX&.aXOX' @.] t.{ ' ` ` } c.c.x.v.@.c.l.l.k.v.l.z.` X.} k.k.{ t.{ ] { { l.l.v.l.k.v.k.X.k.c.L.Z.L.wXK.J.=X(.          ",
"        .X@X+.+XD.f o > , , X @ X @ + X > , , , < < < < < , @ @ 2 @ < < 1 < , , 1 < < 2 2 , # @ + < @ 1 + K `.K.;./.I.          ",
"        *X*X+._./.n X 2 2 2 $ $ # # @ 3 3 3 3 3 3 4 1 3 3 2 * $ * * @ 3 4 4 3 3 2 4 3 3 7 3 # & & $ # 4 < } dX9X5XdX3X          ",
"        h.N...M.F.c < 3 3 t Q ! Q Q r 7 7 7 y y y 8 3 7 3 t Q | ^ ~ # 3 3 y y y y y y 7 7 3 l / / ~ $ 7 3 K ].!.I.OX^.          ",
"        #X_.Z..XrXW 3 7 7 t  .%. .^ r 7 u 9 u u u u 8 u 9 y  .-. ./ s 0 u u y u u u u u 9 u ) -. ./ % 8 4 ` tXC.|.=X_.          ",
"        rXOX$X#XtXW 3 8 8 s #.&. .^ i 9 d u d d d d 8 d d h &.-. ./ s d d u f u d d u z d d ! =. ./ i u 8 ' tXC.#X=X_.          ",
"        tXOX*X*XyXI 5 9 0 h :.&.( ^ a d z z z z z c z z z f :.=. ./ p z M z z z z z z c c z / :.%.| i z u ' iXY.=X=X_.          ",
"        Y.M.F.C.tXI 8 0 d y :.%.( ~ a c z c c M M c c c z n =.-./ ! h M c z b Z c z z c M n | =./ ! j z d ' yXs.M.g.x.          ",
"        ^.T.Y.Y.=XH 8 0 z f j j a i h D m m c c M M z M c n l k j p h m c z Z Z m v c m m n a j j j p z d L P.s.x.N.x.          ",
"        ).).^.F.T.n 9 0 z b g n g n c z c c z m z b z z z z g g f g f b b z e b z q z z z z c g h f h b u y.iXyXyXwX(.          ",
"        yX*X`.'.].F z D B L I L U L F F L L F F L L G L F L L L B B L B B ` V B L L L B F F L H L L L I b t.iXiX!.wX`.          ",
"        ^.^.o.z.F.m b m B P P B F P F F F F F F F F F F B L B D B L B B B B B I L B B V F D F F Z m B B b B Y.I.A D.B.          ",
"        *XrX .+.eXL z Z P V G V B V C G F G F F F F N F B B B F B B B B B B Z B B B B B F F m N B L B m b ' ).U.^ .XI.          ",
"        *XqX>.( 3XL z v B G P P P P G G V V <.T V T B B B V F F I B B B B V F F G F N N F F F G G G V B M E XX+.>. XL.          ",
"        C.J.8X-XP.H M N P G G P P G G G ' V V V V B Z B F V F F L B V B F V B F F F N F F C F N N N v v z E +X=.8X!.^.          ",
"        ^. XgXgX4Xt.z B P P P P P P G P V V V V B P V V F F G G L B B B G G F F F F B F F F F F F F v B b I R.2XjX<X^.          ",
"        B.!.kXgX}.Y M F P P 3.1.P 1.P P <.V y.P P P L P G G G P P P B P G G F G G F F G F F F C F F B B z y.eX0XkX6X!.          ",
"        +X7XhXgXqXU c G P G <.<.1.P V <.V ' V V B L B B B G B L F V B G G V V B B F N F F G V F G G F m z t.pX9XkXyX%X          ",
"        +X%X2X~.).H m G 1.1.1.3.1.3.<.<.P P ,.<.P P P V G G V F G G F G F F F G G G G G G F F F G G F F b H P.J.1X(.P.          ",
"        &X).:.U./.F w F C F C B N B Z V Z Z Z x x x x x x x x x q q q q q q q x q q x x q q x x w x z w 6 H Y.v.%.).(.          ",
"        wX].K.}.W.P U q.i.i.q.i.w.w.u.w.w.w.w.w.w.4.9.w.4.8.9.9.9.9.8.8.8.8.8.8.8.8.8.8.9.3.8.3.3.3.y.w.L ' N.l.! '.`.          ",
"        wX.XP.).{.I L 3.4.4.3.3.3.1.1.1.1.3.1.P P <.P P P P <.P P P P P P P P P P P P P G P G G G L L G m I N.d.] m.P.          ",
"        /.L.m.N.n.F F 1.4.3.2.5.<.1.P 1.P P P P P P V P P P P L G F B G G G F G G F F F G F F F G G F F c H g.E E B.P.          ",
"        @X'.M.n.^.F F P 3.5.4.4.4.4.P 1.1.P 1.1.1.3.P P P V <.1.1.P G P G G U U P P B F G F G P P L B L z R './.F.Y.P.          ",
"        +X].N.n.^.F B 1.5.5.2.2.5.5.1.5.5.<.P <.<.P V P <.P P P P P G G G G G G G P V G G G B G B V m B z y.&X/.T./.P.          ",
"        b.h.r.{.].U F 1.4.4.4.4.1.2.1.2.5.<.<.<.1.1.P 1.<.P 3.<.<.<.P P P P P P P P G P G G V G P F B B Z Y ).qX@X3X`.          ",
"        Y.N.n.=X=XU F ,.5.5.4.4.9.2.1.4.3.5.1.1.1.1.P 1.<.<.P 3.<.<.P P P P P P P P V P G G F G F G B B z R XXdXaXaX#X          ",
"        F.N.j.=X*X8.F <.2.2.2.4.2.5.<.1.3.5.,.P <.<.B <.P P P P P P P P P P G G G G G P G G F F P F B B z ' @XaXpXpX$X          ",
"        OX[.F././.G U 2.4.6.4.9.9.q.4.8.4.5.3.3.3.3.<.3.3.1.1.1.<.<.P U 1.P P 1.1.P P P P P P P G P L B Z H V.R.V.C.c.          ",
"        XX].H.F.G.B v G ,.V G ,.G G G G G C C V F C C F C N B N B B x B m v N v x x x N x x x x q x q e 5 Y ].].V.V.x.          ",
"        XX'.{.[.].8.y.u.p.p.p.p.p.q.q.i.i.i.u.w.i.i.w.w.i.u.u.w.w.w.w.w.q.9.8.9.9.9.8.4.9.8.3.3.1.T 3.T L I n.h.d.d.B.          ",
"        N.N.n.G.F.P U 9.u.q.6.q.0.4.0.4.4.4.4.1.1.1.1.2.1.1.2.1.1.1.<.3.1.2.P 1.U P P 1.P P P G B F F F z ' F.G.N.b.4X          ",
"        &X*XOX@X_.U P 2.6.q.q.q.4.0.2.4.2.2.4.8.0.0.1.1.2.2.2.2.1.5.<.<.<.1.P 1.1.1.G G G G G G U P F F M ' F.G.G.n.3X          ",
"        &X#XOXOX/.U U 2.7.2.q.q.q.0.2.4.4.2.4.1.2.2.<.2.1.5.2.2.4.2.<.<.5.1.1.U <.U B P P P V L F F m v e Y N.j.h.d.|.          ",
"        _.$X/._.#XE P 2.5.4.q.7.2.0.2.4.4.4.2.4.4.1.,.2.2.2.2.2.2.2.<.1.<.<.P <.<.<.P P P P P P V B B v e E #XC.T.T.B.          ",
"        pXsXyXtXsX9.,.2.7.7.q.6.7.q.4.7.0.2.4.0.4.4.5.4.4.8.4.4.2.4.<.1.2.<.5.1.3.1.P P P P V V G V B x z H ^.M.D.F.P.          ",
"        M.F.N.d.F.P P 5.2.q.q.q.7.q.7.4.9.9.0.0.0.0.2.4.4.4.4.9.2.4.1.2.2.2.1.1.<.1.P P P G P V G B m N z E uXuXtXrX|.          ",
"        N.'.].F.[.<.G 2.2.0.4.q.0.0.2.q.2.2.4.2.2.2.,.2.2.2.1.1.5.5.<.2.2.<.,.P P P V P G G G F F B m m z I ).E.'./.I.          ",
"        C.OXXXW.[.1.3.0.0.9.q.q.q.q.q.q.q.q.7.6.q.q.0.9.4.4.4.9.4.4.4.4.4.8.1.3.1.3.1.1.P P P G P L m B b ] oXeXqXeX X          ",
"        M.f.h.d.g.v N P ,.,.<.,.5.,.,.,.G ,.,.,.,.<.G ,.,.,.,.G G G G G V V C C N N B N N x x x z z z e u I `..X).B.c.          ",
"        rXV.D.D.C.F 4.q.q.p.p.p.q.j.q.q.q.j.p.p.p.q.p.p.p.p.u.i.j.q.i.q.p.u.u.9.q.w.4.w.3.3.U 1.P P U L m t.aXsXpXV.z.          ",
"        _.n.b.F.F.F <.0.q.q.7.2.2.2.0.7.7.9.2.2.2.7.0.0.2.0.0.2.5.5.1.2.2.5.G <.P G <.<.G P m v B Z c c z Y ].T.N.h.s.          ",
"        &X*X@XtXrX8.<.2.q.7.q.q.q.q.7.0.0.4.q.u.q.q.,.0.0.2.q.q.q.0.1.2.2.2.2.2.3.1.V P F P U P P L m m c e.=X[.[.[.C.          ",
"        ].].Y._.].U ,.2.7.0.7.7.2.q.0.8.T 4.4.6.7.7.7.7.2.0.0.4.4.4.2.2.2.1.1.5.1.P G P D D B F N x z z e Y R.h.h.N.x.          ",
"        XXXXh.h.^.U ,.2.0.q.q.q.7.q.4.U + 3.6.q.q.q.2.7.0.0.0.9.4.2.2.2.2.2.1.1.<.<.,.L O h B N N m c z e t.uXn.j.n.s.          ",
"        &X=Xn.h./.U G 2.0.q.q.q.6.6.7.B . T 6.u.q.q.7.q.q.0.q.q.0.0.2.4.0.2.2.1.<.1.G U . h N F N m c c z l.aXN.A.n.s.          ",
"        &XXXg.a.G.G P 2.0.7.q.q.u.q.4.4.L w.6.w.q.q.4.7.q.6.4.6.9.9.1.4.2.1.1.1.<.<.G P H F F B B B z z 9 U S.w.9.p.t.          ",
"        S.j.j.p.j.D G 5.4.6.6.4.q.4.4.9.u.4.4.4.4.6.4.4.4.4.4.4.4.4.5.2.2.<.<.,.P P G V G F N B m B c z z U S.G.G.H.b.          ",
"        '.n.[.XX[.U 1.2.4.4.u.w.9.w.q.9.4.9.9.4.4.9.9.4.4.4.9.4.4.3.1.1.1.1.1.1.U P P P F F F m m c c z d T A.A.A.G.b.          ",
"        Y.y.b.n.d.z 5 9 9 9 9 9 9 9 9 9 9 0 6 9 9 9 9 6 6 6 6 6 6 6 5 6 6 6 5 5 5 5 5 5 5 3 1 1 1 1 > > > n a.a.a.g.{ J.        ",
"        %XJ.k.[ } } [ [ } } } } } } [ { { } { { { [ [ { { { O.O.O.O.O.O.[ [ O.O.[ @.O.#.[ O.@.@.O.#.O.[ O.@.@.@.@.@.J.          ",
"                                                                                                                                ",
"                                                                                                                                "
};
