/* XPM */
static char *result[] = {
/* columns rows colors chars-per-pixel */
"64 64 57 1 ",
"  c black",
". c #010000",
"X c #020000",
"o c #040000",
"O c #070000",
"+ c #0A0000",
"@ c #0D0000",
"# c #120000",
"$ c #160000",
"% c #1C0000",
"& c #220000",
"* c #2A0000",
"= c #2F0000",
"- c #360000",
"; c #370000",
": c #400000",
"> c #480000",
", c #500000",
"< c #530000",
"1 c #5C0000",
"2 c #620000",
"3 c #650000",
"4 c #6B0000",
"5 c #750000",
"6 c #770000",
"7 c #7E0000",
"8 c #7F0000",
"9 c #800000",
"0 c #870000",
"q c #8A0000",
"w c #9A0000",
"e c #9C0000",
"r c #A30000",
"t c #A50000",
"y c #A90000",
"u c #B10000",
"i c #B70000",
"p c #BF0000",
"a c #C00000",
"s c #C80000",
"d c #D70000",
"f c #DC0000",
"g c #DD0000",
"h c #E30000",
"j c #E80000",
"k c #E90000",
"l c #ED0000",
"z c #F00000",
"x c #F20000",
"c c #F40000",
"v c #F50000",
"b c #F80000",
"n c #FB0000",
"m c #FD0000",
"M c #FE0000",
"N c red",
"B c None",
/* pixels */
"BBBBBBBBBBBBBBBBBBBBBBBBBBBBBBBBBBBBBBBBBBBBBBBBBBBBBBBBBBBBBBBB",
"BBBBBBBBBBBBBBBBBBBBBBBBBBBBBBBBBBBBBBBBBBBBBBBBBBBBBBBBBBBBBBBB",
"BBBBBBBBBBBBBBBBBBBBBBBBBBBBBBBBBBBBBBBBBBBBBBBBBBBBBBBBBBBBBBBB",
"BBBBBBBBBBBBBBBBBBBBBBBBBBBBBBBBBBBBBBBBBBBBBBBBBBBBBBBBBBBBBBBB",
"BBBBBBBBBBBBBBBBBBBBBBBBBBBBBBBBBBBBBBBBBBBBBBBBBBBBBBBBBBBBBBBB",
"BBBBBBBBBBBBBBBBBBBBBBBBBBBBBBBBBBBBBBBBBBBBBBBBBBBBBBBBBBBBBBBB",
"BBBBBBBBBBBBBBBBBBBBBBBBBBBBBBBBBBBBBBBBBBBBBBBBBBBBBBBBBBBBBBBB",
"BBBBBBBBBBBBBBBBBBBBBBBBBBBBBBBBBBBBBBBBBBBBBBBBBBBBBBBBBBBBBBBB",
"BBBBBBBBBBBBBBBBBBBBBBBBBBBBBBBBBBBBBBBBBBBBBBBBBBBBBBBBBBBBBBBB",
"BBBBBBBBBBBBBBBBBBBBBBBBBBB          BBBBBBBBBBBBBBBBBBBBBBBBBBB",
"BBBBBBBBBBBBBBBBBBBBBBB                  BBBBBBBBBBBBBBBBBBBBBBB",
"BBBBBBBBBBBBBBBBBBBBB                      BBBBBBBBBBBBBBBBBBBBB",
"BBBBBBBBBBBBBBBBBBB                          BBBBBBBBBBBBBBBBBBB",
"BBBBBBBBBBBBBBBBBB                            BBBBBBBBBBBBBBBBBB",
"BBBBBBBBBBBBBBBB                                BBBBBBBBBBBBBBBB",
"BBBBBBBBBBBBBBB                                  BBBBBBBBBBBBBBB",
"BBBBBBBBBBBBBB                                    BBBBBBBBBBBBBB",
"BBBBBBBBBBBBB                                      BBBBBBBBBBBBB",
"BBBBBBBBBBBB                                        BBBBBBBBBBBB",
"BBBBBBBBBBBB                                        BBBBBBBBBBBB",
"BBBBBBBBBBB                                          BBBBBBBBBBB",
"BBBBBBBBBB                                            BBBBBBBBBB",
"BBBBBBBBBB                      =u                    BBBBBBBBBB",
"BBBBBBBBB                     $emz                     BBBBBBBBB",
"BBBBBBBBB                   O6xNNz                     BBBBBBBBB",
"BBBBBBBB                   <gNNNNz                      BBBBBBBB",
"BBBBBBBB                 ;aNNNNNNz                      BBBBBBBB",
"BBBBBBBB               %tMNNNNNNNz                      BBBBBBBB",
"BBBBBBBB             +9vNNNNNNNNNz                      BBBBBBBB",
"BBBBBBB            .1hNNNNNNNNNNNc::::::::::::*          BBBBBBB",
"BBBBBBB           ;sNNNNNNNNNNNNNNNNNNNNNNNNNNy          BBBBBBB",
"BBBBBBB         &tMNNNNNNNNNNNNNNNNNNNNNNNNNNNy          BBBBBBB",
"BBBBBBB       @qbNNNNNNNNNNNNNNNNNNNNNNNNNNNNNy          BBBBBBB",
"BBBBBBB     X3kNNNNNNNNNNNNNNNNNNNNNNNNNNNNNNNy          BBBBBBB",
"BBBBBBB     -gNNNNNNNNNNNNNNNNNNNNNNNNNNNNNNNNy          BBBBBBB",
"BBBBBBB      O7vNNNNNNNNNNNNNNNNNNNNNNNNNNNNNNy          BBBBBBB",
"BBBBBBB        %rMNNNNNNNNNNNNNNNNNNNNNNNNNNNNy          BBBBBBB",
"BBBBBBB          ;sNNNNNNNNNNNNNNNNNNNNNNNNNNNy          BBBBBBB",
"BBBBBBB           .2jNNNNNNNNNNNNNNNNNNNNNNNNNy          BBBBBBB",
"BBBBBBBB            @0bNNNNNNNNNNnpppppppppppp8         BBBBBBBB",
"BBBBBBBB              &iNNNNNNNNNz                      BBBBBBBB",
"BBBBBBBB                >dNNNNNNNz                      BBBBBBBB",
"BBBBBBBB                 o4lNNNNNz                      BBBBBBBB",
"BBBBBBBBB                  #wmNNNz                     BBBBBBBBB",
"BBBBBBBBB                    =aNNz                     BBBBBBBBB",
"BBBBBBBBBB                     ,fz                    BBBBBBBBBB",
"BBBBBBBBBB                      O5                    BBBBBBBBBB",
"BBBBBBBBBBB                                          BBBBBBBBBBB",
"BBBBBBBBBBBB                                        BBBBBBBBBBBB",
"BBBBBBBBBBBB                                        BBBBBBBBBBBB",
"BBBBBBBBBBBBB                                      BBBBBBBBBBBBB",
"BBBBBBBBBBBBBB                                    BBBBBBBBBBBBBB",
"BBBBBBBBBBBBBBB                                  BBBBBBBBBBBBBBB",
"BBBBBBBBBBBBBBBB                                BBBBBBBBBBBBBBBB",
"BBBBBBBBBBBBBBBBBB                            BBBBBBBBBBBBBBBBBB",
"BBBBBBBBBBBBBBBBBBB                          BBBBBBBBBBBBBBBBBBB",
"BBBBBBBBBBBBBBBBBBBBB                      BBBBBBBBBBBBBBBBBBBBB",
"BBBBBBBBBBBBBBBBBBBBBBB                  BBBBBBBBBBBBBBBBBBBBBBB",
"BBBBBBBBBBBBBBBBBBBBBBBBBBB          BBBBBBBBBBBBBBBBBBBBBBBBBBB",
"BBBBBBBBBBBBBBBBBBBBBBBBBBBBBBBBBBBBBBBBBBBBBBBBBBBBBBBBBBBBBBBB",
"BBBBBBBBBBBBBBBBBBBBBBBBBBBBBBBBBBBBBBBBBBBBBBBBBBBBBBBBBBBBBBBB",
"BBBBBBBBBBBBBBBBBBBBBBBBBBBBBBBBBBBBBBBBBBBBBBBBBBBBBBBBBBBBBBBB",
"BBBBBBBBBBBBBBBBBBBBBBBBBBBBBBBBBBBBBBBBBBBBBBBBBBBBBBBBBBBBBBBB",
"BBBBBBBBBBBBBBBBBBBBBBBBBBBBBBBBBBBBBBBBBBBBBBBBBBBBBBBBBBBBBBBB"
};
