/* XPM */
static char *result[] = {
/* columns rows colors chars-per-pixel */
"64 64 35 1 ",
"  c black",
". c #010000",
"X c #040000",
"o c #070000",
"O c #0D0000",
"+ c #0E0000",
"@ c #120000",
"# c #1C0000",
"$ c #220000",
"% c #2F0000",
"& c #370000",
"* c #480000",
"= c #490000",
"- c #500000",
"; c #620000",
": c #6B0000",
"> c #7E0000",
", c #870000",
"< c #9A0000",
"1 c #A30000",
"2 c #B70000",
"3 c #C00000",
"4 c #C80000",
"5 c #D40000",
"6 c #D70000",
"7 c #DC0000",
"8 c #DD0000",
"9 c #E80000",
"0 c #ED0000",
"q c #F50000",
"w c #F80000",
"e c #FD0000",
"r c #FE0000",
"t c red",
"y c None",
/* pixels */
"yyyyyyyyyyyyyyyyyyyyyyyyyyyyyyyyyyyyyyyyyyyyyyyyyyyyyyyyyyyyyyyy",
"yyyyyyyyyyyyyyyyyyyyyyyyyyyyyyyyyyyyyyyyyyyyyyyyyyyyyyyyyyyyyyyy",
"yyyyyyyyyyyyyyyyyyyyyyyyyyyyyyyyyyyyyyyyyyyyyyyyyyyyyyyyyyyyyyyy",
"yyyyyyyyyyyyyyyyyyyyyyyyyyyyyyyyyyyyyyyyyyyyyyyyyyyyyyyyyyyyyyyy",
"yyyyyyyyyyyyyyyyyyyyyyyyyyyyyyyyyyyyyyyyyyyyyyyyyyyyyyyyyyyyyyyy",
"yyyyyyyyyyyyyyyyyyyyyyyyyyyyyyyyyyyyyyyyyyyyyyyyyyyyyyyyyyyyyyyy",
"yyyyyyyyyyyyyyyyyyyyyyyyyyyyyyyyyyyyyyyyyyyyyyyyyyyyyyyyyyyyyyyy",
"yyyyyyyyyyyyyyyyyyyyyyyyyyyyyyyyyyyyyyyyyyyyyyyyyyyyyyyyyyyyyyyy",
"yyyyyyyyyyyyyyyyyyyyyyyyyyyyyyyyyyyyyyyyyyyyyyyyyyyyyyyyyyyyyyyy",
"yyyyyyyyyyyyyyyyyyyyyyyyyyy          yyyyyyyyyyyyyyyyyyyyyyyyyyy",
"yyyyyyyyyyyyyyyyyyyyyyy                  yyyyyyyyyyyyyyyyyyyyyyy",
"yyyyyyyyyyyyyyyyyyyyy                      yyyyyyyyyyyyyyyyyyyyy",
"yyyyyyyyyyyyyyyyyyy                          yyyyyyyyyyyyyyyyyyy",
"yyyyyyyyyyyyyyyyyy                            yyyyyyyyyyyyyyyyyy",
"yyyyyyyyyyyyyyyy                                yyyyyyyyyyyyyyyy",
"yyyyyyyyyyyyyyy                                  yyyyyyyyyyyyyyy",
"yyyyyyyyyyyyyy                                    yyyyyyyyyyyyyy",
"yyyyyyyyyyyyy                                      yyyyyyyyyyyyy",
"yyyyyyyyyyyy                                        yyyyyyyyyyyy",
"yyyyyyyyyyyy                                        yyyyyyyyyyyy",
"yyyyyyyyyyy                                          yyyyyyyyyyy",
"yyyyyyyyyy                                            yyyyyyyyyy",
"yyyyyyyyyy                  =,O                       yyyyyyyyyy",
"yyyyyyyyy                   -t9;.                      yyyyyyyyy",
"yyyyyyyyy                   -ttt4&                     yyyyyyyyy",
"yyyyyyyy                    -ttttr1#                    yyyyyyyy",
"yyyyyyyy                    -ttttttq>o                  yyyyyyyy",
"yyyyyyyy                    -tttttttt7-                 yyyyyyyy",
"yyyyyyyy                    -tttttttttt3%               yyyyyyyy",
"yyyyyyy         tttttttttttttttttttttttte<@              yyyyyyy",
"yyyyyyy         tttttttttttttttttttttttttt0:X            yyyyyyy",
"yyyyyyy         tttttttttttttttttttttttttttt6*           yyyyyyy",
"yyyyyyy         tttttttttttttttttttttttttttttt2$         yyyyyyy",
"yyyyyyy         tttttttttttttttttttttttttttttttw,O       yyyyyyy",
"yyyyyyy         ttttttttttttttttttttttttttttttttt5+      yyyyyyy",
"yyyyyyy         tttttttttttttttttttttttttttttttw,O       yyyyyyy",
"yyyyyyy         tttttttttttttttttttttttttttttt2$         yyyyyyy",
"yyyyyyy         tttttttttttttttttttttttttttt6*           yyyyyyy",
"yyyyyyy         tttttttttttttttttttttttttt0:X            yyyyyyy",
"yyyyyyyy                    -ttttttttttte<@             yyyyyyyy",
"yyyyyyyy                    -tttttttttt3%               yyyyyyyy",
"yyyyyyyy                    -tttttttt8-                 yyyyyyyy",
"yyyyyyyy                    -ttttttq>o                  yyyyyyyy",
"yyyyyyyyy                   -ttttr1#                   yyyyyyyyy",
"yyyyyyyyy                   -ttt4&                     yyyyyyyyy",
"yyyyyyyyyy                  -t9;.                     yyyyyyyyyy",
"yyyyyyyyyy                  =,O                       yyyyyyyyyy",
"yyyyyyyyyyy                                          yyyyyyyyyyy",
"yyyyyyyyyyyy                                        yyyyyyyyyyyy",
"yyyyyyyyyyyy                                        yyyyyyyyyyyy",
"yyyyyyyyyyyyy                                      yyyyyyyyyyyyy",
"yyyyyyyyyyyyyy                                    yyyyyyyyyyyyyy",
"yyyyyyyyyyyyyyy                                  yyyyyyyyyyyyyyy",
"yyyyyyyyyyyyyyyy                                yyyyyyyyyyyyyyyy",
"yyyyyyyyyyyyyyyyyy                            yyyyyyyyyyyyyyyyyy",
"yyyyyyyyyyyyyyyyyyy                          yyyyyyyyyyyyyyyyyyy",
"yyyyyyyyyyyyyyyyyyyyy                      yyyyyyyyyyyyyyyyyyyyy",
"yyyyyyyyyyyyyyyyyyyyyyy                  yyyyyyyyyyyyyyyyyyyyyyy",
"yyyyyyyyyyyyyyyyyyyyyyyyyyy          yyyyyyyyyyyyyyyyyyyyyyyyyyy",
"yyyyyyyyyyyyyyyyyyyyyyyyyyyyyyyyyyyyyyyyyyyyyyyyyyyyyyyyyyyyyyyy",
"yyyyyyyyyyyyyyyyyyyyyyyyyyyyyyyyyyyyyyyyyyyyyyyyyyyyyyyyyyyyyyyy",
"yyyyyyyyyyyyyyyyyyyyyyyyyyyyyyyyyyyyyyyyyyyyyyyyyyyyyyyyyyyyyyyy",
"yyyyyyyyyyyyyyyyyyyyyyyyyyyyyyyyyyyyyyyyyyyyyyyyyyyyyyyyyyyyyyyy",
"yyyyyyyyyyyyyyyyyyyyyyyyyyyyyyyyyyyyyyyyyyyyyyyyyyyyyyyyyyyyyyyy"
};
