/* XPM */
static char *result[] = {
/* columns rows colors chars-per-pixel */
"64 64 62 1 ",
"  c black",
". c #030000",
"X c #070000",
"o c #0D0000",
"O c #0E0000",
"+ c #150000",
"@ c #160000",
"# c #1E0000",
"$ c #200000",
"% c #290000",
"& c #2B0000",
"* c #360000",
"= c #3C0000",
"- c #480000",
"; c #510000",
": c #540000",
"> c #580000",
", c #680000",
"< c #700000",
"1 c #780000",
"2 c #800000",
"3 c #870000",
"4 c #880000",
"5 c #8E0000",
"6 c #900000",
"7 c #940000",
"8 c #980000",
"9 c #9B0000",
"0 c #A00000",
"q c #A10000",
"w c #A70000",
"e c #A80000",
"r c #AE0000",
"t c #B00000",
"y c #B40000",
"u c #B80000",
"i c #BB0000",
"p c #BF0000",
"a c #C40000",
"s c #C70000",
"d c #C90000",
"f c #CC0000",
"g c #CF0000",
"h c #D40000",
"j c #D60000",
"k c #E10000",
"l c #E20000",
"z c #E90000",
"x c #EA0000",
"c c #ED0000",
"v c #F00000",
"b c #F10000",
"n c #F20000",
"m c #F30000",
"M c #F50000",
"N c #F70000",
"B c #F80000",
"V c #FA0000",
"C c #FC0000",
"Z c #FD0000",
"A c red",
"S c None",
/* pixels */
"SSSSSSSSSSSSSSSSSSSSSSSSSSSSSSSSSSSSSSSSSSSSSSSSSSSSSSSSSSSSSSSS",
"SSSSSSSSSSSSSSSSSSSSSSSSSSSSSSSSSSSSSSSSSSSSSSSSSSSSSSSSSSSSSSSS",
"SSSSSSSSSSSSSSSSSSSSSSSSSSSSSSSSSSSSSSSSSSSSSSSSSSSSSSSSSSSSSSSS",
"SSSSSSSSSSSSSSSSSSSSSSSSSSSSSSSSSSSSSSSSSSSSSSSSSSSSSSSSSSSSSSSS",
"SSSSSSSSSSSSSSSSSSSSSSSSSSSSSSSSSSSSSSSSSSSSSSSSSSSSSSSSSSSSSSSS",
"SSSSSSSSSSSSSSSSSSSSSSSSSSSSSSSSSSSSSSSSSSSSSSSSSSSSSSSSSSSSSSSS",
"SSSSSSSSSSSSSSSSSSSSSSSSSSSSSSSSSSSSSSSSSSSSSSSSSSSSSSSSSSSSSSSS",
"SSSSSSSSSSSSSSSSSSSSSSSSSSSSSSSSSSSSSSSSSSSSSSSSSSSSSSSSSSSSSSSS",
"SSSSSSSSSSSSSSSSSSSSSSSSSSSSSSSSSSSSSSSSSSSSSSSSSSSSSSSSSSSSSSSS",
"SSSSSSSSSSSSSSSSSSSSSSSSSSS          SSSSSSSSSSSSSSSSSSSSSSSSSSS",
"SSSSSSSSSSSSSSSSSSSSSSS                  SSSSSSSSSSSSSSSSSSSSSSS",
"SSSSSSSSSSSSSSSSSSSSS                      SSSSSSSSSSSSSSSSSSSSS",
"SSSSSSSSSSSSSSSSSSS                          SSSSSSSSSSSSSSSSSSS",
"SSSSSSSSSSSSSSSSSS                            SSSSSSSSSSSSSSSSSS",
"SSSSSSSSSSSSSSSS                                SSSSSSSSSSSSSSSS",
"SSSSSSSSSSSSSSS                                  SSSSSSSSSSSSSSS",
"SSSSSSSSSSSSSS                                    SSSSSSSSSSSSSS",
"SSSSSSSSSSSSS                   .;                 SSSSSSSSSSSSS",
"SSSSSSSSSSSS                    ,b@                 SSSSSSSSSSSS",
"SSSSSSSSSSSS                   oxA8                 SSSSSSSSSSSS",
"SSSSSSSSSSS                    6AAC&                 SSSSSSSSSSS",
"SSSSSSSSSS                    %CAAAu                  SSSSSSSSSS",
"SSSSSSSSSS                    iAAAAA-                 SSSSSSSSSS",
"SSSSSSSSS                    >AAAAAAh.                 SSSSSSSSS",
"SSSSSSSSS                   XkAAAAAAA,                 SSSSSSSSS",
"SSSSSSSS                    2AAAAAAAAzO                 SSSSSSSS",
"SSSSSSSS                   #BAAAAAAAAA4                 SSSSSSSS",
"SSSSSSSS                   tAAAAAAAAAAN$                SSSSSSSS",
"SSSSSSSS                  -AAAAAAAAAAAAe                SSSSSSSS",
"SSSSSSS                  .jAAAAAAAAAAAAA&                SSSSSSS",
"SSSSSSS                  <AAAAAAAAAAAAAAu                SSSSSSS",
"SSSSSSS                 +nAAAAAAAAAAAAAAA-               SSSSSSS",
"SSSSSSS                 0AAAAAAAAAAAAAAAAh.              SSSSSSS",
"SSSSSSS                *AAAAAAAAAAAAAAAAAA,              SSSSSSS",
"SSSSSSS               .dAAAAAAAAAAAAAAAAAAzO             SSSSSSS",
"SSSSSSS               ,AAAAAAAAAAAAAAAAAAAA4             SSSSSSS",
"SSSSSSS              oxAAAAAAAAAAAAAAAAAAAAN$            SSSSSSS",
"SSSSSSS              6AAAAAAAAAAAAAAAAAAAAAAe            SSSSSSS",
"SSSSSSS             +pasdfglAAAAAAAAABcvmMBVZ=           SSSSSSS",
"SSSSSSSS                   ,AAAAAAAAA8                  SSSSSSSS",
"SSSSSSSS                   <AAAAAAAAA6                  SSSSSSSS",
"SSSSSSSS                   <AAAAAAAAA6                  SSSSSSSS",
"SSSSSSSS                   <AAAAAAAAA6                  SSSSSSSS",
"SSSSSSSSS                  <AAAAAAAAA6                 SSSSSSSSS",
"SSSSSSSSS                  1AAAAAAAAA4                 SSSSSSSSS",
"SSSSSSSSSS                 2AAAAAAAAA2                SSSSSSSSSS",
"SSSSSSSSSS                 2AAAAAAAAA2                SSSSSSSSSS",
"SSSSSSSSSSS                2AAAAAAAAA2               SSSSSSSSSSS",
"SSSSSSSSSSSS               2AAAAAAAAA2              SSSSSSSSSSSS",
"SSSSSSSSSSSS               2AAAAAAAAA2              SSSSSSSSSSSS",
"SSSSSSSSSSSSS              4AAAAAAAAA1             SSSSSSSSSSSSS",
"SSSSSSSSSSSSSS             -3579qwryi:            SSSSSSSSSSSSSS",
"SSSSSSSSSSSSSSS                                  SSSSSSSSSSSSSSS",
"SSSSSSSSSSSSSSSS                                SSSSSSSSSSSSSSSS",
"SSSSSSSSSSSSSSSSSS                            SSSSSSSSSSSSSSSSSS",
"SSSSSSSSSSSSSSSSSSS                          SSSSSSSSSSSSSSSSSSS",
"SSSSSSSSSSSSSSSSSSSSS                      SSSSSSSSSSSSSSSSSSSSS",
"SSSSSSSSSSSSSSSSSSSSSSS                  SSSSSSSSSSSSSSSSSSSSSSS",
"SSSSSSSSSSSSSSSSSSSSSSSSSSS          SSSSSSSSSSSSSSSSSSSSSSSSSSS",
"SSSSSSSSSSSSSSSSSSSSSSSSSSSSSSSSSSSSSSSSSSSSSSSSSSSSSSSSSSSSSSSS",
"SSSSSSSSSSSSSSSSSSSSSSSSSSSSSSSSSSSSSSSSSSSSSSSSSSSSSSSSSSSSSSSS",
"SSSSSSSSSSSSSSSSSSSSSSSSSSSSSSSSSSSSSSSSSSSSSSSSSSSSSSSSSSSSSSSS",
"SSSSSSSSSSSSSSSSSSSSSSSSSSSSSSSSSSSSSSSSSSSSSSSSSSSSSSSSSSSSSSSS",
"SSSSSSSSSSSSSSSSSSSSSSSSSSSSSSSSSSSSSSSSSSSSSSSSSSSSSSSSSSSSSSSS"
};
