/* XPM */
static char *up1709072905[] = {
/* columns rows colors chars-per-pixel */
"64 64 102 2 ",
"   c None",
".  c #010101",
"X  c #070708",
"o  c #07090A",
"O  c #0C0C0C",
"+  c #0C0E10",
"@  c #0E1113",
"#  c #141414",
"$  c #151619",
"%  c #14191A",
"&  c #1C1C1C",
"*  c #0F1C20",
"=  c #171F21",
"-  c #1A1D21",
";  c #0F2125",
":  c #0E262D",
">  c #162326",
",  c #1D2125",
"<  c #16262A",
"1  c #182428",
"2  c #13282E",
"3  c #152D34",
"4  c #232323",
"5  c #24272B",
"6  c #262B2C",
"7  c #2A2A2A",
"8  c #352122",
"9  c #252E33",
"0  c #282F36",
"q  c #243135",
"w  c #293037",
"e  c #2A3139",
"r  c #123640",
"t  c #143B45",
"y  c #123E4A",
"u  c #2C3642",
"i  c #213A41",
"p  c #2E3844",
"a  c #343C45",
"s  c #353E49",
"d  c #17404B",
"f  c #19434F",
"g  c #154C5B",
"h  c #194D5B",
"j  c #204048",
"k  c #36404B",
"l  c #3C444E",
"z  c #354351",
"x  c #3D4651",
"c  c #3E4954",
"v  c #105568",
"b  c gray31",
"n  c #414A56",
"m  c #414D59",
"M  c #44505D",
"N  c #4A535E",
"B  c gray32",
"V  c #585858",
"C  c #475360",
"Z  c #4B5663",
"A  c #4E5966",
"S  c #535C67",
"D  c #525D6A",
"F  c #56616D",
"G  c #58626E",
"H  c #5B6671",
"J  c #5E6874",
"K  c #616B76",
"L  c #636D78",
"P  c #69737E",
"I  c #08708D",
"U  c #077390",
"Y  c #077C9C",
"T  c #097F9F",
"R  c #087FA0",
"E  c #6C7580",
"W  c #0887AA",
"Q  c #078BAF",
"!  c #008AB0",
"~  c #088CB1",
"^  c #0991B6",
"/  c #0395BD",
"(  c #0A94BA",
")  c #029AC4",
"_  c #019ECA",
"`  c #00A1CE",
"'  c #00A6D3",
"]  c #00A8D6",
"[  c #00ABDA",
"{  c #02B5E6",
"}  c #00B7E9",
"|  c #01BAEC",
" . c #00BFF2",
".. c gray52",
"X. c #909090",
"o. c #9F9F9F",
"O. c #B2B2B2",
"+. c gray75",
"@. c gray76",
"#. c gray87",
"$. c #E6E6E6",
"%. c #EAEAEA",
/* pixels */
"                                                                                                                                ",
"                                                                                                                                ",
"                                                  . . . . . . . . . . . . . .                                                   ",
"                                              . . . O O Q ' ] 4 4 [ [ / # O . . . .                                             ",
"                                          . . O # 4 7 & )  . .6 7  . .` & 7 4 # @ . .                                           ",
"                                          . O # & 4 7 8 _  . .6 4  . .` 8 6 7 4 # @ . .                                         ",
"                                        . O # & & 7 7 ~ |  . .6 7 |  .| ( 0 7 7 & # O . .                                       ",
"                                      . . # & 4 7 7 7 _  . .' 6 7 `  . .` 6 7 7 4 & # O .                                       ",
"                                      . O & 4 4 5 7 7 )  . .e 4 4 q |  .` 6 7 7 7 4 $ @ . .                                     ",
"                                    . . # & 4 & 7 5 Q |  . .q 7 7 4 |  . ./ 6 5 4 4 & # @ .                                     ",
"                                    . O & 4 4 7 4 7 )  . . .9 7 7 7 |  . .` 7 7 4 7 4 & # . .                                   ",
"                                  . . # & 4 4 4 4 $ )  . . .6 7 4 7 {  . .` > 4 4 4 4 & # . .                                   ",
"                                  . . $ 4 4 7 4 4 7 /  . . .q 4 7 4 {  . .` 6 4 4 4 4 4 # # . .                                 ",
"                                  . + & 4 7 4 4 4 7 /  . .' q 7 7 7 )  . .` 9 & 4 4 7 4 & # . .                                 ",
"                                  . # & 4 5 4 4 4 W }  . .j 7 4 4 7 q {  . .) q 4 4 4 4 & # . .                                 ",
"                                . . % 4 4 7 4 4 & /  . .| q 7 7 7 4 4 {  . .' q 4 4 4 4 4 # # .                                 ",
"                                . . & & 4 4 4 4 4 (  . .] q 7 4 7 7 7 / |  .` 9 4 4 4 4 4 $ # .                                 ",
"                                . O & & 4 & 4 & & 2 3 3 2 & $ $ # $ $ > < < 1 & & 4 & & & $ # . .                               ",
"                                . # # $ & # # # # # # O + @ @ # @ O + @ # # # # # # $ & $ # @ . .                               ",
"                                . X @ @ O # X . . . . n M N N N N S S S D o . . . . . . # O O . .                               ",
"                                . . . . e B N N N Z Z D H H H K K K K L L H G G K K G S O . . . .                               ",
"                                . . . n H K J J K K K L L L L L L L K K K K L P P P P K A M o . .                               ",
"                          . . . . . . # F K K K L K K L J J J H H G G G F F D J L P P K D + . . . . .                           ",
"                        . 4 7 X . . . . S J J H G F F F D D S S S S Z Z Z Z A S J K K G A X . . . 4 7 X                         ",
"                        . X X . . . . @ $ N D A A A Z Z N N M M M M M m M M M Z S F D S O x o . . . 4 #                         ",
"                                . . . s X x n n n x n x n n n l x x l l l x l n n n N m O n O .                                 ",
"                                . . . x X 6 l l x l l l n s s n l l l l l l l n n l n O x Z + .                                 ",
"                                . . . x n # a n % # # # # # # # # # + @ @ @ O O O a l X x Z O .                                 ",
"                                . . . x Z # $ & # $ # $ & $ & # # # # O # # # # # # @ l C Z O .                                 ",
"                                . . . x A % $ & 4 & 4 4 4 & 4 & & # # # # # & & & & $ l Z Z + .                                 ",
"                                . . . x Z - & & & 4 & 4 4 4 4 & & # O # # # # & & & % x C Z + .                                 ",
"                                . . . x C - $ & & & & & & 4 4 4 & # # # # # # # $ $ & x Z Z O .                                 ",
"                                . . . z M & $ $ # # & & & & 4 4 4 & # # # & & # # # # a N N O .                                 ",
"                                . . . s m & # # # # # # $ $ & & & & & # # & & & # # # # l m + .                                 ",
"                                . . . O # # # # # # # # # # $ & & & & # # # & & & & # @ X . . .                                 ",
"                                . . . u s & # & & & & & & & # # # & & # # # & & 4 & $ O l m + .                                 ",
"                                . . . k m - & & & & 4 & & & & # # # # # # # # & 4 & $ $ x C + .                                 ",
"                                . . . s m & & & 4 4 4 4 4 & 4 & & & # # # # & & 4 & $ u c m @ .                                 ",
"                                . . . s M 4 & & 4 & 4 4 4 4 4 4 & & & # % # & & 4 4 % p m C + .                                 ",
"                                . . . s m a 4 4 4 4 4 4 & 4 4 4 4 4 & 4 & & & 8 4 - & p c m @ .                                 ",
"                                . . . s M z , & & 4 & & & 4 4 & & 4 & & - & & 4 & & # a m C @ .                                 ",
"                                . . . s M z & & $ $ $ & & $ # # # # # & # # $ $ # # O p m M @ .                                 ",
"                                . . . s C - O p x x c c n x n c n c b c n c n m m m # a m C @ .                                 ",
"                                . . . a - . e c m m m m n n n n M c n n m n m n c c x # s m # .                                 ",
"                                . . . a @ 5 s s s s s s s s s s k k a s s s a s s s a a @ s # .                                 ",
"                                . . . + 1 0 w w w w e w e q 0 0 9 q 0 0 0 q 0 9 0 0 9 9 9 0 O .                                 ",
"                                . . X X # # $ # # # # # # # # # # # # # # # @ @ @ @ @ @ @ O . .                                 ",
"                                . . X # $ $ & & & $ & & I ` / r $ U ' ) t & & & & & & & & # O .                                 ",
"                                . . O # & 4 & 4 & & 4 4 R } ] t & Y } ] d & & & 4 & & & & # O .                                 ",
"                                . . O # & 4 4 4 4 4 4 4 R } ] y $ T } [ f 4 4 4 4 4 4 4 4 & O .                                 ",
"                                . . X # & 4 & 4 & 4 & 4 ^  .] y $ W } | h 4 4 4 4 4 4 4 & # O .                                 ",
"                                . . . # & 4 4 4 4 4 4 4 (  .] y $ U } | h 4 4 4 & 4 4 4 & # X .                                 ",
"                                . . X # # 4 4 4 4 4 4 4 ~ | ] d & Y }  .h 4 4 4 4 4 4 & & O X .                                 ",
"                                . . . O # & 4 4 4 & 4 4 (  .[ d & U }  .h & 4 & 4 & 4 & $ @ X .                                 ",
"                                . . . X # # # & # & 4 & ^  .v & % > (  .h & & & # & # # # O . .                                 ",
"                                . O # # # & & & # O O # > : $ # $ % % ; # O O O O # & & & & & X                                 ",
"                                  X O # @ O O O O O O O X O X X X X X X X O O O O O O O # # #                                   ",
"                                    # # # # # O # O O O O O O O O O O O O O O O O O @ @ # O X                                   ",
"                                    . X # 4 & 4 & & & & & & $ & & & & & & & & & & & & & & X                                     ",
"                                        X & 4 ..O.B 4 7 4 4 7 4 4 4 4 4 4 4 4 4 X.@.V O .                                       ",
"                                            @.#.%.B . X X X . X . X . X . . X . o.%.$.                                          ",
"                                                                                                                                ",
"                                                                                                                                ",
"                                                                                                                                "
};
