/* XPM */
static char *result[] = {
/* columns rows colors chars-per-pixel */
"64 64 217 2 ",
"   c #1F2C3C",
".  c #1F2A36",
"X  c #252C34",
"o  c #282D34",
"O  c #222E3B",
"+  c #26303C",
"@  c #2A333C",
"#  c #2B353B",
"$  c #33393F",
"%  c #252B2F",
"&  c #1F2E41",
"*  c #202F41",
"=  c #243244",
"-  c #2B3645",
";  c #2B3945",
":  c #24354A",
">  c #2C3748",
",  c #26394C",
"<  c #2D3A4A",
"1  c #333943",
"2  c #323C4B",
"3  c #393F43",
"4  c #253B54",
"5  c #2A3D52",
"6  c #273E5A",
"7  c #363F50",
"8  c #2F414F",
"9  c #3A4144",
"0  c #35404C",
"q  c #3C4349",
"w  c #3A444B",
"e  c #2F4254",
"r  c #2D445D",
"t  c #2B455E",
"y  c #344354",
"u  c #3A4552",
"i  c #3E4954",
"p  c #31495C",
"a  c #3D4E5C",
"s  c #334857",
"d  c #284464",
"f  c #2B496A",
"g  c #324D63",
"h  c #324E6B",
"j  c #325167",
"k  c #33526B",
"l  c #39546B",
"z  c #345674",
"x  c #365975",
"c  c #395A75",
"v  c #365A7B",
"b  c #3A5E7C",
"n  c #30537F",
"m  c #3B617E",
"M  c #444A4F",
"N  c #40464C",
"B  c #454D51",
"V  c #494E51",
"C  c #414E5C",
"Z  c #4C5355",
"A  c #43535D",
"S  c #4C565A",
"D  c #4E595D",
"F  c #455156",
"G  c #515656",
"H  c #535857",
"J  c #515759",
"K  c #52595A",
"L  c #455B63",
"P  c #4C5B64",
"I  c #4D5C69",
"U  c #475765",
"Y  c #535D62",
"T  c #4D616B",
"R  c #4B636A",
"E  c #546265",
"W  c #596365",
"Q  c #55656A",
"!  c #59666B",
"~  c #59696C",
"^  c #57696C",
"/  c #4B6272",
"(  c #466179",
")  c #4A6574",
"_  c #556C74",
"`  c #5A6E74",
"'  c #526C79",
"]  c #54747E",
"[  c #5C747B",
"{  c #5D7072",
"}  c #61747C",
"|  c #607476",
" . c #2D5B8E",
".. c #355D84",
"X. c #335D8A",
"o. c #385F8A",
"O. c #356185",
"+. c #3B6281",
"@. c #36628B",
"#. c #3A658C",
"$. c #3D6B8D",
"%. c #376393",
"&. c #3B6A92",
"*. c #34679D",
"=. c #376A98",
"-. c #3F7199",
";. c #3D7B9D",
":. c #397197",
">. c #2F659B",
",. c #346BA8",
"<. c #3978A9",
"1. c #2D70B6",
"2. c #3575B4",
"3. c #3376BB",
"4. c #3C7DBB",
"5. c #3978B1",
"6. c #496882",
"7. c #426D8C",
"8. c #466984",
"9. c #4C7383",
"0. c #4B768A",
"q. c #4F798C",
"w. c #527481",
"e. c #597A84",
"r. c #547989",
"t. c #417396",
"y. c #457A9C",
"u. c #4B7D99",
"i. c #477698",
"p. c #517E97",
"a. c #627C83",
"s. c #427BA2",
"d. c #4579A2",
"f. c #347AC0",
"g. c #3C81A7",
"h. c #3D8CB7",
"j. c #5B828C",
"k. c #5F888E",
"l. c #4C829C",
"z. c #47819E",
"x. c #548295",
"c. c #52859C",
"v. c #59879C",
"b. c #5B8B9C",
"n. c #5C8391",
"m. c #668993",
"M. c #668C97",
"N. c #69929B",
"B. c #71949C",
"V. c #66868B",
"C. c #4682A2",
"Z. c #4B85A4",
"A. c #4B89A6",
"S. c #4C87A9",
"D. c #468AAB",
"F. c #4A8BAB",
"G. c #4687AA",
"H. c #548CA5",
"J. c #5B8DA3",
"K. c #538EAB",
"L. c #5085AD",
"P. c #4E91AE",
"I. c #5E93A6",
"U. c #5594AD",
"Y. c #5A93AC",
"T. c #5B98AF",
"R. c #5698AF",
"E. c #4182BB",
"W. c #498DBA",
"Q. c #4D92B1",
"!. c #4994BB",
"~. c #5395B2",
"^. c #5A97B1",
"/. c #5599B4",
"(. c #5C9CB4",
"). c #599BBB",
"_. c #6393A5",
"`. c #6B9BA4",
"'. c #6F9EA9",
"]. c #6499AA",
"[. c #729CA5",
"{. c #629DB4",
"}. c #669EB5",
"|. c #5FA1B7",
" X c #5CA1BC",
".X c #6AA1AD",
"XX c #64A2B6",
"oX c #6AA3B5",
"OX c #63A4BA",
"+X c #6CA5BA",
"@X c #66A9BD",
"#X c #6BAABD",
"$X c #6EAAB5",
"%X c #72ADBC",
"&X c #73A7B6",
"*X c #76B4BD",
"=X c #79B3BE",
"-X c #71A1A9",
";X c #4C8EC1",
":X c #5797C3",
">X c #59A1C0",
",X c #6BABC5",
"<X c #66A4C4",
"1X c #71ADC3",
"2X c #6DB1C3",
"3X c #75B4C3",
"4X c #7AB6C2",
"5X c #7BBBC6",
"6X c #7BB6C9",
"7X c #7CBECA",
"8X c #70B4CB",
"9X c #7EC0CB",
"0X c #82BEC9",
"qX c #80B5C5",
"wX c #82C1CB",
"eX c #8AC2CA",
"rX c None",
/* pixels */
"rXrXrXrXrXrXrXrXrXrXrXrXrXrXrXrXrXrXrXrXrXrXrXrXrXrXrXrXrXrXrXrXrXrXrXrXrXrXrXrXrXrXrXrXrXrXrXrXrXrXrXrXrXrXrXrXrXrXrXrXrXrXrXrX",
"rXrXrXrXrXrXrXrXrXrXrXrXrXrXrXrXrXrXrXrXrXrXrXrXrXrXrXrXrXrXrXrXrXrXrXrXrXrXrXrXrXrXrXrXrXrXrXrXrXrXrXrXrXrXrXrXrXrXrXrXrXrXrXrX",
"rXrXrXrXrXrXrXrXrXrXrXrXrXrXrXrXrXrXrXrXrXrXrXrXrXrXrXrXrXrXrXrXrXrXrXrXrXrXrXrXrXrXrXrXrXrXrXrXrXrXrXrXrXrXrXrXrXrXrXrXrXrXrXrX",
"rXrXrXrXrXrXrXrXrXrXrXrXrXrXrXrXrXrXrXrXrXrXrXrXrXrXrXrXrXrXrXrXrXrXrXrXrXrXrXrXrXrXrXrXrXrXrXrXrXrXrXrXrXrXrXrXrXrXrXrXrXrXrXrX",
"rXrXrXrXrXrXrXrXrXrXrXrXrXrXrXrXrXrXrXrXrXrXrXrXrXrXrXrXrXoXz.G.oXY.rXrXrXrXrXrXrXrXrXrXrXrXrXrXrXrXrXrXrXrXrXrXrXrXrXrXrXrXrXrX",
"rXrXrXrXrXrXrXrXrXrXrXrXrXrXrXrXrXrXrXrXrXrXrXrXrXrXrXU.Y.J.z p.U.#XXXY.rXrXrXrXrXrXrXrXrXrXrXrXrXrXrXrXrXrXrXrXrXrXrXrXrXrXrXrX",
"rXrXrXrXrXrXrXrXrXrXrXrXrXrXrXrXrXrXrXrXrXrXrXrXrXoX(.Z.O.g - $ N.3XF.XX}.rXrXrXrXrXrXrXrXrXrXrXrXrXrXrXrXrXrXrXrXrXrXrXrXrXrXrX",
"rXrXrXrXrXrXrXrXrXrXrXrXrXrXrXrXrXrXrXrXrXrXrX+XoXy.#.x 2 # q G B L .X3X{.#XqXrXrXrXrXrXrXrXrXrXrXrXrXrXrXrXrXrXrXrXrXrXrXrXrXrX",
"rXrXrXrXrXrXrXrXrXrXrXrXrXrXrXrXrXrXrXrXrXrX4XZ.i...r @ N Z K J J Z i ] $X5XG.|.rXrXrXrXrXrXrXrXrXrXrXrXrXrXrXrXrXrXrXrXrXrXrXrX",
"rXrXrXrXrXrXrXrXrXrXrXrXrXrXrXrXrXrXrXrX}.Y.c.b k - $ B J K J K J J K M i w.*X/.|.F.(.rXrXrXrXrXrXrXrXrXrXrXrXrXrXrXrXrXrXrXrXrX",
"rXrXrXrXrXrXrXrXrXrXrXrXrXrXrXrXrXrXI.&Xy.7.z < @ 9 S K H H K J K K H K Z B L `.3XXXF.$XrXrXrXrXrXrXrXrXrXrXrXrXrXrXrXrXrXrXrXrX",
"rXrXrXrXrXrXrXrXrXrXrXrXrXrXrXrXrX+Xi.7.z y o q J K K K K K J D K H K K H H Z q L .X2X~.(.Y.rXrXrXrXrXrXrXrXrXrXrXrXrXrXrXrXrXrX",
"rXrXrXrXrXrXrXrXrXrXrXrXrXrXrX^.-.i...r - 1 Z H K J H K H K K K K K K K J H K K Z q ) `.3X/.(.{.rXrXrXrXrXrXrXrXrXrXrXrXrXrXrXrX",
"rXrXrXrXrXrXrXrXrXrXrXrXrXY.K.p.z k # # M K K H K J K K D K K H K K K H K K K K K Z Z B ) *X@XF.).(.rXrXrXrXrXrXrXrXrXrXrXrXrXrX",
"rXrXrXrXrXrXrXrXrXrXrX].t.u.O.h < X q G G E N.! K K K J G K K H J K K K H K K D K K H G V 9 e.4X@XF.(.rXrXrXrXrXrXrXrXrXrXrXrXrX",
"rXrXrXrXrXrXrXrXrX&XZ.Z.#.c 5 $ q Z G H ' =X3X(.B.Y J K K D K K H K K J D H K J K D H D K Z w A -X3X~.).+XrXrXrXrXrXrXrXrXrXrXrX",
"rXrXrXrXrXrXrXT.A.].7.v , - $ V H H W `./.!.!. X).R J K J H H K K K K J K J K H K K K G K K K V 3 R %X#XC.~.Y.rXrXrXrXrXrXrXrXrX",
"rXrXrXrXrX1XG.F.G.#.g @ 1 B H K ! j.I.).h.!.>X/.:.L G K K K K D H K J K H K H K K K K K K K K K G V A j.4X~.{.}.rXrXrXrXrXrXrXrX",
"rXrXrXrXrXH.(.F.T.H.s M G H K K } 0X#X!. X,Xg.:.k 9 Z G H K K K K K K K J K K K G K K H K K K K H K H R K.G.y.&.rXrXrXrXrXrXrXrX",
"rXrXrXrXrX(.XXP.R./.H.B.Y H H K V.0X0X4XQ.g.@.e + % # Z K K K H K K H H K K H H G K K K H H K K K E ] A. X-.X...rXrXrXrXrXrXrXrX",
"rXrXrXrXrXT.|./.@X+XF.#XT.m.K H | wXeX|.O.j + % X 9 G G K K K K K J K K K K K K K K K K K K K Y Q I. Xs.&.@.O.b rXrXrXrXrXrXrXrX",
"rXrXrXrXrXT b.XXR.F./.XXR.P.c._ K | %XI.+ X + $ Z D K K K K H H K J K K K K K K K K K K J Y Y q.3Xs.&.@.#.O.t ; rXrXrXrXrXrXrXrX",
"rXrXrXrXrXK K ^ l.#X(.(.@XXXP.$X-XW E i X $ w G K H K K K K K H K K J K G K K K G J H H K r.I.S.:.#.@...z ; X X rXrXrXrXrXrXrXrX",
"rXrXrXrXrXM.~ K K [ l.(././.XXD.g.R.N.R Z H H D K K J K K K H K J K K K K K J J K G J e.H.Y.t...=.@...y + X + p rXrXrXrXrXrXrXrX",
"rXrXrXrXrXwX4X-X~ K K e.c.OX@XP.XXP.@XI.' W K K K K H K K K K K K K H K K K K K K } v.oXU.@.#...@.g ; X - e x m rXrXrXrXrXrXrXrX",
"rXrXrXrXrXwX9XwX4Xq.W H E k.H.(.|.|.R.@XG.I.[ K K K D H H H K K K K J K K K H Y 6.U.R.=.@.@...z , X X - c m m m rXrXrXrXrXrXrXrX",
"rXrXrXrXrXwX7X9X9X;.$XR Y H R b.XX@X(.|.F./.{.b.~ K H H K K K H H K H K K Y a.p.~.$.O.X.X.v r @ X ; j b m m m m rXrXrXrXrXrXrXrX",
"rXrXrXrXrXwX9X9X9X;.#XF.J._ Y K _ q.|.@XQ.XX/./.OXb.E K K H H H K K K K Y p.Y.Y.#...@.@.z @ o o j m m m m m m m rXrXrXrXrXrXrXrX",
"rXrXrXrXrX*X9X9X9X;.%XF.U.XX'.E H K [ K.D.P.%X@XQ.@Xl.e.K K H H K K W a.{.d.t.%.#.@.b e + o 8 l m m m ( m +.+.b rXrXrXrXrXrXrXrX",
"rXrXrXrXrXE V.=X9X;.#XA.U.OXwXC.k.E K K [ #X/.P.Q.D.D.#Xn.' E G K a._.K.t.7.%.X...t @ X ; j x m m m m m m b g # rXrXrXrXrXrXrXrX",
"rXrXrXrXrXZ K { -X;.#XA.U.|.9XC.XXl.e.K K K r.OX(.G.P.@X(.|.n.V.v.{.L.....o.o.h # O O p m m m m m m m m k < o o rXrXrXrXrXrXrXrX",
"rXrXrXrXrXK H H K R ].A.H.XX7XC.|.C.(.I.M.D H ^ 0.#X@XQ.P./.R.<.A.X.....o...g o o s k m m m m m m m k 5 X X X X rXrXrXrXrXrXrXrX",
"rXrXrXrXrXG K H H H K ` c.#X0XC.XXC.T.T.9X*X` K J _ l.#XP.(.XXK.#.&.@...g @ o X p m m m +.m m m c g O % X % X X rXrXrXrXrXrXrXrX",
"rXrXrXrXrXH K Y ) Y K J Y r.5XC.XXC.T.XX9X9X5X.X_ K Y a.b.T.(.d.#.O.z < @ @ s x m +.m m m m m k ; X % X X X . X # rXrXrXrXrXrXrX",
"rXrXrXrXrXH P ..W.v.D Y K K ! 6.XXz.T.(.9X7X8X9XH.m.E J K w.(.y.h 5 + # < c +.+.m m +.+.m j < o X % X % X X X O - 2 rXrXrXrXrXrX",
"rXrXrXrXrXG / 3.8X;X5.x.Y K K Y ] 0.Y.(.9X7X5X9XG.#Xl.m.Y K E ' @ o < g m +.+.+.+.+.m x g # X X % X X X . X   O - 2 2 u rXrXrXrX",
"rXrXrXrXrXG / :X<Xf.;X1X-.U J K K K / I.wX9X9X5XG.#XC.XXl.V.H 3 # e v +.+.m m +.+.m k # X O O % X X X     O . . - > > 2 2 rXrXrX",
"rXrXrXrXrXK ( 1XE.f.<X:X .5 I J K G K E N.*X9X9XZ.+XC.XXA.5X[.L z m m m +.m m +.l , X X + * * X % % X     X   X - > 1 > - M rXrX",
"rXrXrXrXrXJ K [ %.5.6Xf.f 4 h b I K H K K _ B.*XZ.,XC.XXA.0X7XJ.m m +.m m +.v g + X X O = : * X X % . O   X & O - > 2 > < 2 7 7 ",
"rXrXrXrXrXK H J B l }.X.h : 4 ,.,.I K K K H K [ 0.#XC.XXG.7X7XI.+.m +.+.m j + X @ X X = * & * X % % . X +   = & - > > > > > < < ",
"rXrXrXrXrXH K H P 0 0 - S :  .2.4.6.K Y ( K K K Y ` i.}.S.7X7XI.m m m z 2 X o + o o X = : & * O X % X O & & * * - - > < > 2 rXrX",
"rXrXrXrXrXK H H K U - - U 4 *.3.3.6.K / ,Xd./ Y K J K w.i.7X7XI.+.m p o o X = + X + o   * * O X X . & & & = > < > > < 1 rXrXrXrX",
"rXrXrXrXrXS W K K Y Y A A 5 =.3.3.6.I L.qXf.<Xp.I Y J J K N.7XJ.g @ % X : , v f X X O & * * * O   X   = : < < < > > C rXrXrXrXrX",
"rXrXrXrXrXrXrXW K K Y E D , U -.2.6.#.6XE.f.<Xs.,._.P J D K ^ L X % O t d @.{...o X & * * * O       = > < - < 2 7 rXrXrXrXrXrXrX",
"rXrXrXrXrXrXrXrXrXE K K D 5 S Y Q / ( }.3.:X<X1.:X<Xd.( J S J 3 X X 4 +.s.,.I.d.t X O     , = O * = < < > > 7 rXrXrXrXrXrXrXrXrX",
"rXrXrXrXrXrXrXrXrXrXrXK Q rXrXK Y W Y 7 *.6Xs.1.6X4.2.f Z K J 9 X X 6 X.{.,.,.(.4 O O O + = - = < < > - 2 P rXrXrXrXrXrXrXrXrXrX",
"rXrXrXrXrXrXrXrXrXrXrXrXrXrXrXrXrXY K B 5 q.,.:X,X3. .4 Z S H 9 X . d ..Y.d.n 0.+ O O X = > - < - - 2 7 rXrXrXrXrXrXrXrXrXrXrXrX",
"rXrXrXrXrXrXrXrXrXrXrXrXrXrXrXrXrXU K G s : u p.%.,.5 , S J J 9 X X 6 d 7.c.= * + + O X - < < < 1 C rXrXrXrXrXrXrXrXrXrXrXrXrXrX",
"rXrXrXrXrXrXrXrXrXrXrXrXrXrXrXa.C u A J S U s : : U s , S S J 3 X X *   * = &   X X @ @ < < 2 i rXrXrXrXrXrXrXrXrXrXrXrXrXrXrXrX",
"rXrXrXrXrXrXrXrXrXrXrXrXrXrXrX2 - a ' H Z K D e =   O : Z J K q X X +     O X X o + - < < u rXrXrXrXrXrXrXrXrXrXrXrXrXrXrXrXrXrX",
"rXrXrXrXrXrXrXrXrXrXrXrXrXrXC y rXrXrXrXE K J K P r < g S H H $ X % o X X X X - > - - 2 u rXrXrXrXrXrXrXrXrXrXrXrXrXrXrXrXrXrXrX",
"rXrXrXrXrXrXrXrXrXrXrXrXrXrXrXrXrXrXrXrXrX! Y H J Y Q H K K K 9 % X X X O = - < - < 0 rXrXrXrXrXrXrXrXrXrXrXrXrXrXrXrXrXrXrXrXrX",
"rXrXrXrXrXrXrXrXrXrXrXrXrXrXrXrXrXrXrXrXrXrXrX! K K K K S J Z q % % O o - > > - > 2 rXrXrXrXrXrXrXrXrXrXrXrXrXrXrXrXrXrXrXrXrXrX",
"rXrXrXrXrXrXrXrXrXrXrXrXrXrXrXrXrXrXrXrXrXrXrXrXrXQ Y J S J G q X X + ; > < < rXrXrXrXrXrXrXrXrXrXrXrXrXrXrXrXrXrXrXrXrXrXrXrXrX",
"rXrXrXrXrXrXrXrXrXrXrXrXrXrXrXrXrXrXrXrXrXrXrXrXrXrXrXY K J S q @ ; ; < > 3 rXrXrXrXrXrXrXrXrXrXrXrXrXrXrXrXrXrXrXrXrXrXrXrXrXrX",
"rXrXrXrXrXrXrXrXrXrXrXrXrXrXrXrXrXrXrXrXrXrXrXrXrXrXrXrXrX! K u - - ; y rXrXrXrXrXrXrXrXrXrXrXrXrXrXrXrXrXrXrXrXrXrXrXrXrXrXrXrX",
"rXrXrXrXrXrXrXrXrXrXrXrXrXrXrXrXrXrXrXrXrXrXrXrXrXrXrXrXrXrXrXC 2 u rXrXrXrXrXrXrXrXrXrXrXrXrXrXrXrXrXrXrXrXrXrXrXrXrXrXrXrXrXrX",
"rXrXrXrXrXrXrXrXrXrXrXrXrXrXrXrXrXrXrXrXrXrXrXrXrXrXrXrXrXrXrXrXrXrXrXrXrXrXrXrXrXrXrXrXrXrXrXrXrXrXrXrXrXrXrXrXrXrXrXrXrXrXrXrX",
"rXrXrXrXrXrXrXrXrXrXrXrXrXrXrXrXrXrXrXrXrXrXrXrXrXrXrXrXrXrXrXrXrXrXrXrXrXrXrXrXrXrXrXrXrXrXrXrXrXrXrXrXrXrXrXrXrXrXrXrXrXrXrXrX",
"rXrXrXrXrXrXrXrXrXrXrXrXrXrXrXrXrXrXrXrXrXrXrXrXrXrXrXrXrXrXrXrXrXrXrXrXrXrXrXrXrXrXrXrXrXrXrXrXrXrXrXrXrXrXrXrXrXrXrXrXrXrXrXrX",
"rXrXrXrXrXrXrXrXrXrXrXrXrXrXrXrXrXrXrXrXrXrXrXrXrXrXrXrXrXrXrXrXrXrXrXrXrXrXrXrXrXrXrXrXrXrXrXrXrXrXrXrXrXrXrXrXrXrXrXrXrXrXrXrX",
"rXrXrXrXrXrXrXrXrXrXrXrXrXrXrXrXrXrXrXrXrXrXrXrXrXrXrXrXrXrXrXrXrXrXrXrXrXrXrXrXrXrXrXrXrXrXrXrXrXrXrXrXrXrXrXrXrXrXrXrXrXrXrXrX",
"rXrXrXrXrXrXrXrXrXrXrXrXrXrXrXrXrXrXrXrXrXrXrXrXrXrXrXrXrXrXrXrXrXrXrXrXrXrXrXrXrXrXrXrXrXrXrXrXrXrXrXrXrXrXrXrXrXrXrXrXrXrXrXrX",
"rXrXrXrXrXrXrXrXrXrXrXrXrXrXrXrXrXrXrXrXrXrXrXrXrXrXrXrXrXrXrXrXrXrXrXrXrXrXrXrXrXrXrXrXrXrXrXrXrXrXrXrXrXrXrXrXrXrXrXrXrXrXrXrX"
};
