/* XPM */
static char *result[] = {
/* columns rows colors chars-per-pixel */
"64 64 208 2 ",
"   c #1F1F1D",
".  c #21211F",
"X  c #252523",
"o  c #272926",
"O  c #292926",
"+  c #2C2D2A",
"@  c #282725",
"#  c #2F302E",
"$  c #31322E",
"%  c #2D3131",
"&  c #343533",
"*  c #363937",
"=  c #363A3A",
"-  c #3A3C3B",
";  c #393B37",
":  c #3D413F",
">  c #41413E",
",  c #373E42",
"<  c #0F3678",
"1  c #133A7B",
"2  c #133877",
"3  c #3D4343",
"4  c #364648",
"5  c #39565A",
"6  c #3A5C63",
"7  c #2D487A",
"8  c #3D6268",
"9  c #444543",
"0  c #464846",
"q  c #494946",
"w  c #454C4B",
"e  c #4B4C4A",
"r  c #444748",
"t  c #49514E",
"y  c #52524E",
"u  c #4C5352",
"i  c #45595C",
"p  c #4B5B5C",
"a  c #465557",
"s  c #535553",
"d  c #565956",
"f  c #5A5A56",
"g  c #555C5A",
"h  c #5B5D5C",
"j  c #4C4F50",
"k  c #615F5B",
"l  c #5D605E",
"z  c #62625D",
"x  c #455E61",
"c  c #4E5F61",
"v  c #5B5F60",
"b  c #476265",
"n  c #4C6364",
"m  c #4C666A",
"M  c #4C6A6E",
"N  c #45676D",
"B  c #546262",
"V  c #5C6262",
"C  c #546669",
"Z  c #556A6B",
"A  c #5B6B6C",
"S  c #5C6866",
"D  c #5F706E",
"F  c #456D73",
"G  c #4C6C71",
"H  c #536E71",
"J  c #5C6E71",
"K  c #43737C",
"L  c #4A757C",
"P  c #4C7479",
"I  c #5C7375",
"U  c #55767C",
"Y  c #5A7579",
"T  c #5C7A7D",
"R  c #537579",
"E  c #626463",
"W  c #646965",
"Q  c #696A65",
"!  c #636C6C",
"~  c #6B6D6A",
"^  c #676765",
"/  c #716F69",
"(  c #6E716D",
")  c #60706E",
"_  c #72726D",
"`  c #77786F",
"'  c #607373",
"]  c #627B7D",
"[  c #6D7574",
"{  c #737572",
"}  c #767874",
"|  c #7A7B75",
" . c #7C7D79",
".. c #787773",
"X. c #626E70",
"o. c #807E76",
"O. c #7E807A",
"+. c #83837C",
"@. c #89877F",
"#. c #8A8A7F",
"$. c #113D84",
"%. c #144389",
"&. c #154B97",
"*. c #16509E",
"=. c #335F9D",
"-. c #274881",
";. c #3E6F8F",
":. c #144EA3",
">. c #1451A5",
",. c #1554AB",
"<. c #1A5AAC",
"1. c #1955A5",
"2. c #195EB5",
"3. c #185EB8",
"4. c #2458A4",
"5. c #1A65BD",
"6. c #1B63B7",
"7. c #296BB7",
"8. c #3168AC",
"9. c #467A83",
"0. c #4B7B83",
"q. c #447883",
"w. c #547C82",
"e. c #5D7D82",
"r. c #4A6B95",
"t. c #5B789B",
"y. c #586A88",
"u. c #617A83",
"i. c #617C9D",
"p. c #737C8D",
"a. c #4E75A4",
"s. c #4E7AA9",
"d. c #475D85",
"f. c #1B66C1",
"g. c #1C6CC4",
"h. c #1E6FC9",
"j. c #206FC8",
"k. c #4D838B",
"l. c #5C8185",
"z. c #52848C",
"x. c #5B858B",
"c. c #5C898E",
"v. c #548389",
"b. c #4F8993",
"n. c #4F8590",
"m. c #548B94",
"M. c #5D8C93",
"N. c #548C97",
"B. c #56929B",
"V. c #5C929B",
"C. c #5E939A",
"Z. c #618285",
"A. c #618589",
"S. c #64888D",
"D. c #628C93",
"F. c #648E98",
"G. c #758596",
"H. c #62949B",
"J. c #669096",
"K. c #7B838B",
"L. c #5C9BA4",
"P. c #5D9EA9",
"I. c #5996A2",
"U. c #5E80A1",
"Y. c #629AA4",
"T. c #659AA4",
"R. c #6382A3",
"E. c #5EA1AD",
"W. c #5FA5B3",
"Q. c #63A2AD",
"!. c #69A2AE",
"~. c #63A6B2",
"^. c #64A9B5",
"/. c #65ACBA",
"(. c #6AAEBA",
"). c #68A8B3",
"_. c #6AB1BE",
"`. c #66B1BF",
"'. c #6AB4C2",
"]. c #6CBACA",
"[. c #73BDCD",
"{. c #73BED1",
"}. c #6DBED1",
"|. c #72C0CF",
" X c #73C2D2",
".X c #77C3D6",
"XX c #6DC0D0",
"oX c #858680",
"OX c #878881",
"+X c #8B8B84",
"@X c #898A88",
"#X c #918E86",
"$X c #94938B",
"%X c #99968D",
"&X c #9A998E",
"*X c #9D9C93",
"=X c #979793",
"-X c #8A9198",
";X c #A19E95",
":X c #A5A296",
">X c #ABA69B",
",X c #ADA99D",
"<X c #A6A499",
"1X c #B0AB9F",
"2X c #AEABA1",
"3X c #B1ADA1",
"4X c #80C6D7",
"5X c None",
/* pixels */
"5X5X5X5X5X5X5X5X5X5X5X5X5X5X5X5X5X5X5X5X5X5X5X5X5X5X5X5X5X5X5X5X5X5X5X5X5X5X5X5X5X5X5X5X5X5X5X5X5X5X5X5X5X5X5X5X5X5X5X5X5X5X5X5X",
"5X5X5X5X5X5X5X5X5X5X5X5X5X5X5X5X5X5X5X5X5X5X5X5X5X5X5X5X5X5X5X{ _ 5X5X5X5X5X5X5X5X5X5X5X5X5X5X5X5X5X5X5X5X5X5X5X5X5X5X5X5X5X5X5X",
"5X5X5X5X5X5X5X5X5X5X5X5X5X5X5X5X5X5X5X5X5X5X5X5X5X5X5X5X5X5X} ( { } | 5X5X5X5X5X5X5X5X5X5X5X5X5X5X5X5X5X5X5X5X5X5X5X5X5X5X5X5X5X",
"5X5X5X5X5X5X5X5X5X5X5X5X5X5X5X5X5X5X5X5X5X5X5X5X5X5X5X5X} } } { _ { } } | 5X5X5X5X5X5X5X5X5X5X5X5X5X5X5X5X5X5X5X5X5X5X5X5X5X5X5X",
"5X5X5X5X5X5X5X5X5X5X5X5X5X5X5X5X5X5X5X5X5X5X5X5X5X5X{ { ( } { d E [ } { } } 5X5X5X5X5X5X5X5X5X5X5X5X5X5X5X5X5X5X5X5X5X5X5X5X5X5X",
"5X5X5X5X5X5X5X5X5X5X5X5X5X5X5X5X5X5X5X5X5X5X5X5X| } { { ~ s s 9 v E ( ~ } { [ } 5X5X5X5X5X5X5X5X5X5X5X5X5X5X5X5X5X5X5X5X5X5X5X5X",
"5X5X5X5X5X5X5X5X5X5X5X5X5X5X5X5X5X5X5X5X5X5X| } { { ! f d > 9 9 h v v E ~ { [ } }  .5X5X5X5X5X5X5X5X5X5X5X5X5X5X5X5X5X5X5X5X5X5X",
"5X5X5X5X5X5X5X5X5X5X5X5X5X5X5X5X5X5X5X5X{ { { { ( ~ d 9 9 9 9 9 h h v h v E { [ { } } ( 5X5X5X5X5X5X5X5X5X5X5X5X5X5X5X5X5X5X5X5X",
"5X5X5X5X5X5X5X5X5X5X5X5X5X5X5X5X5X5X5X{ { { { ~ e 9 9 > 9 9 9 9 d h h h E h v V ~ { { } } 5X5X5X5X5X5X5X5X5X5X5X5X5X5X5X5X5X5X5X",
"5X5X5X5X5X5X5X5X5X5X5X5X5X5X5X5X5X{ } } ( ( e q 9 q 9 q 9 9 f z  .{ h h h v h h h v ~ { ( { { { 5X5X5X5X5X5X5X5X5X5X5X5X5X5X5X5X",
"5X5X5X5X5X5X5X5X5X5X5X5X5X5X5X{ } { ( { e 9 9 9 9 9 9 q / _ |  .*X+X..| k v v h h h E ! { { { } } 5X5X5X5X5X5X5X5X5X5X5X5X5X5X5X",
"5X5X5X5X5X5X5X5X5X5X5X5X5X{ { } ..( e q 9 > > 9 9 q f f +.+Xr.7.7.s.*X=X~ E v v v h v v E E ( { { } { 5X5X5X5X5X5X5X5X5X5X5X5X5X",
"5X5X5X5X5X5X5X5X5X5X5X .....| } k y 9 9 > > > 9 q y +.%XG.7.7.g.5.7.7.t.;X=X~ ^ ^ h h l l l E ~ { } { } { 5X5X5X5X5X5X5X5X5X5X5X",
"5X5X5X5X5X5X5X5X5X .{ { ..{ ~ 9 9 q 9 9 9 q e ` @.@.i.8.8.3.h.h.h.h.6.8.s.R.*X*X+.v l h h h h V v { ..{ }  .} 5X5X5X5X5X5X5X5X5X",
"5X5X5X5X5X5X5X{ } } { { ~ d y 9 > > q 9 e _ | #.U.s.8.2.>.>.5.h.g.&.$.*.5.7.s.F.@X+.@.h h h l V v E E ( } } { { { 5X5X5X5X5X5X5X",
"5X5X5X5X5X5X~ { } { ~ f y 9 0 9 q e y z  .#.G.G.7.5.f.5.3.>.5.g.f.%.< *.f.f.5.7.G.p.*X+X+.E l l h h h E E { { { } { [ 5X5X5X5X5X",
"5X5X5X5X5X5XE ~ { { ~ ^ s e q y f { { @.&X*X=.,.3.g.j.g.3.,.,.&.%.$.%.1.5.g.g.6.%.-.*X*X$X+. .E E h h E W ( ( ~ f y e 5X5X5X5X5X",
"5X5X5X5X5X5Xh E W ( _ { { ( ~ +.+.+X&X&X:X;X=.>.,.3.3.g.f.f.f.>.&.<.5.5.h.6.1.&.2 -.=X;X*X*X&X .@X} _ { _ ( E q 9 9 9 5X5X5X5X5X",
"5X5X5X5X5X5Xg h l V l S { { } { @.$X;X;X;X*Xr.4.>.>.1.2.f.h.g.h.h.g.g.6.1.%.2 < 1 y.*X;X*X:X*XOX@X} ~ ( E e 0 > 9 3 9 5X5X5X5X5X",
"5X5X5X5X5X5Xh v l V V V E ^ _ { { o.+X$X;X;X=X-Xt.1.:.<.3.g.g.h.j.j.5.%.< 2 < d.p.*X*X:X%X+X+X{ { W e q e 9 9 9 9 9 9 5X5X5X5X5X",
"5X5X5X5X5X5XF.D.' V S l g l W ~ ~ { }  .%X*X*X;X-Xt.i.4.,.3.6.6.<.&.< < 7 y.y.@X*X*X;X*X#.{ ( ~ E s 9 9 9 9 9 t v.w.R 5X5X5X5X5X",
"5X5X5X5X5X5X{.'.l.V V l V l l l v ~ { { { ..#X*X*X*X&X=.4.<.&.$.2 < < 7 7 *X;X;X*X$X+.{ [ { z 9 9 9 9 9 9 9 9 p ^.]..X5X5X5X5X5X",
"5X5X5X5X5X{.!.u.D.H.V A ] V g l h v V ~ ( { { oXOX&X*X=X-Xt.*.:.%.%.u.@X=X*X;X#X#X ._ ( W e q 9 9 9 9 p a w c.l.e.Q. X{.5X5X5X5X",
"5X5X5X5X4X(.D.A.Y.~.A l.(.S l l h v h V V ~ ~ { { +X#X=X*XG.a.a.r.r.K.*X*X$X#X....~ h e 0 9 9 9 9 9 9 L v.C Q.H.A.D._.XX5X5X5X5X",
"5X5X5X[._.S.' ~.D.I ).).] I M.R h ! h V v h E { { ( {  .$X*X*X*X*X*X*X+X+.{ _ ~ W d 9 9 9 9 3 9 0 P m H Y.~.! A.).] Z.).XX|.5X5X",
"5X5X.X(.Z.' _.H.e.A.!.T.I T V.l.B H.Z.V v v V h E ~ ~ { | O.O.*X*XOX+..._ E ^ s 0 9 9 9 9 0 0.t w 0.R A U L.H.u.e.^.l.u.). X X5X",
"5X{.{.] ] H./.T I _.l.) /.E.D l.M.H.u.Z C h V h h h E ~ { { } +.+.} { ( s 9 r 9 0 9 > 9 0 0 v.c.w.n w.P.V C '.e.A E.E.T S [.[.5X",
"{.'.(.] A.V.e.c.l.M.T ] ^.L.S l.W.I ! I.B.h V v h h h h h E { } { { E h 9 9 9 9 9 0 9 b L a u Q.Y.W Y Y.w.I x.e.l.U V.D.I !.(.[.",
"/.e.Z (.].x.V P.D.! M.^.Z.' V.M.A.A.H.V.w.h R M.V l V h l V E z e w 0 9 9 9 9 9 m H q m z.M.I Z.c.Q.S V ~.C.Z x.L.A U (.(.B P B.",
"Q.w.v N.w.H /.D.c.S.H.H.' ] E.V.X.J.].e.J B.x.x.V Z Y V h h h h q 0 9 9 9 i x q M 0.k.p Z `.H.) l.P.l.Z D.D.D.A.e.(.x.R z.a N n.",
"5XZ v z.R H ].I D.}.H.D T _.] U T.T.A.u.Z.P.e.h I l.c.V l h l h > 0 q q e N L C t p b.M.c.T H.^.c.D _.l.A Z.{.Y.c ~.w.c 0.i x 5X",
"5X5X5Xc p m I.C l.L.Z Y (.P.T O.].A.! T.'.m.Y B !.~.v.B U x.V g 9 w F N 0 N k.B.p p z.(.).l I ^.c.D M.^.w.a B.w.e 0.N w a 5X5X5X",
"5X5X5X5Xu p P n w.z.p H ~.A Q.'.Z.' H.P.P.S ' H.E.c.l I N.B.B g q w K 0.c t H I.P.T V c.E._.O.R (.^.B C.P w k.F w b i w 5X5X5X5X",
"5X5X5X5X5X5Xy p U m.a n 0.y V.`.! ) |.W.I.V e. XE.l.Z ).(.R d l 9 w 8 I.B.t G I.'.l.V v.P.[.l.D ~.Q.t L b t k.N e 0 0 5X5X5X5X5X",
"5X5X5X5X5X5Xh h g z.g n 0.e t.B.g Y {.~.B.B e.[.T I (._.I.n e h 0 9 w b.W./.A Y '.x.S e.C.|.T l m.m.> P p t k.t > 0 0 5X5X5X5X5X",
"5X5X5X5X5X5Xv v l g s Z 0.u 0.n.u C P.m.w.x.V.W.Y A ].~.b.c y h 9 9 3 9.W.XXl A Q.L.D.C U B.i 9 P L > F x > l y 0 > 0 5X5X5X5X5X",
"5X5X5X5X5X5Xl v ( } u 9 , y 0.w.t n b.M s ~./.I A.).E.m.N t d g 0 > 4 8 k.B.T.S.T Q.(.t i 0.i 3 P K > : : w / l 9 9 q 5X5X5X5X5X",
"5X5X5X5X5X5XV h (  .q & # & P 0.u n k.m w L.~.A D. XB.P 3 0 d g > : : = N b.|.D.V I./.w i 9.i 9 F N + O $ w ` l 9 9 0 5X5X5X5X5X",
"5X5X5X5X5X5XV l ~  .w - % & % % u n z.M y v.b.t G W.K 8 * e h h 0 > : = 8 k.L.G 0 L k.3 i 9.5 3 o . $ ; $ 0 _ l 9 9 q 5X5X5X5X5X",
"5X5X5X5X1X@.l h ~ o.9 * & * % & & 4 0.C u k.n.u H L.K 8 = e h h 0 0 : = 6 8 k.b 0 K 9.r 5 F 4 O o O & $ * 0 _ l 9 9 y 5X5X5X5X5X",
"5X5X5X>X,XOXh h ~ @.9 9 9 & % - $ # & 0 d v.n.s H B.q.6 , s h h > 9 > : 6 8 b.8 w K O.4 : o o o + $ & # & > / k 9 9 z 1X,X5X5X5X",
"5X5X5X>X>X@.E E ( #X_ e r - - > - 9 & % * F L s H B.q.6 9 g h h q > : : 6 ;.b.b > P 8 % # # o . o # # - 9 ~  .k 9 9 _ ,X,X1X5X5X",
"5X5X5X,X,XOXh v ~ +X+X#X{ f e , : 9 & + * * : g G N.q.6 t d g g 9 > : : 5 8 k.b 4 : 4 o + O o . X = 9 z _ ../ f 9 9 / 1X:X,X5X5X",
"5X5X,X,X,X@.v h V E o.#X+XOXE e q 3 : * & & - t w 4 w w t d g h q 9 > 4 4 5 5 w 4 : o o O o o . @ 9  ._ Q z q 9 9 9 / 1X:X>X1X5X",
"5X2X2X,X,X@.v h V h E h  .@.@X+.h e q - = * 3 r = + % % w g h g 9 9 9 9 X X X * : % O $ o . o . + 9 { h r 9 9 9 9 9 / 1X>X1X5X5X",
"5X>X>X>X1X@.v E z l h z E E +.+X+.@Xg e 9 & 3 9 - - + % j d h h 0 9 9 > X . X & : : # o o X X . @ 9 e 9 > 9 > 9 > > k 1X,X1X5X5X",
"5X5X5X>X,X@.f E E h E h V V E E { +X+.oXf , 3 , , - + - d h g d 9 9 9 > o X @ & : $ o . X o o   @ 3 9 9 > 9 9 9 q 9 z 3X1X5X5X5X",
"5X5X5X5X5Xo.k E E h h k v E z h E Q { +X .O.V r r & & , f g h h 9 9 9 > + X @ & : o . o X o o X + - 9 9 9 9 9 > q e ^ 3X1X5X5X5X",
"5X5X5X5X5X5X:X..E l l V l z h h l l Q } `  .+.| d = = 3 d h h d > 9 9 > $ @ @ > Q y O @ @ @ @ O - > 9 9 9 9 9 > z %X5X5X5X5X5X5X",
"5X5X5X5X5X5X5X5X$X+XE z v v V v h g l h h _ O.+.| { u 0 f h g h 9 9 > 9 $ $ f Q | y + O O @ @ . $ 9 > 9 9 9 ..%X%X5X5X5X5X5X5X5X",
"5X5X5X5X5X5X5X5X5X5X+X#X^ h h v l h l h f l l _ oXOX ...h f h h 9 9 9 q z Q .._ y > # . . @ O ; q e 9 r _ | #X5X5X5X5X5X5X5X5X5X",
"5X5X5X5X5X5X5X5X5X5X5X>X/ { E k l h h l h l f l h ~ ..+Xh h f f 9 > > q ` Q k 0 > > @ X @ $ & / o./ / / 5X5X5X5X5X5X5X5X5X5X5X5X",
"5X5X5X5X5X5X5X5X5X5X5X5X5X5X_ { ..E h f h h h h h h E / h f h h q 9 0 q k e 9 > 9 ; O # & / | o.#X#X5X5X5X5X5X5X5X5X5X5X5X5X5X5X",
"5X5X5X5X5X5X5X5X5X5X5X5X5X5X5X3X*X_ _ h h h h h h h h h h h h f 9 9 9 9 q > 9 9 > > $ k _ +.+X*X<X5X5X5X5X5X5X5X5X5X5X5X5X5X5X5X",
"5X5X5X5X5X5X5X5X5X5X5X5X5X5X5X5X5X5X=XQ E l f h h h h h h h h h q 9 > > q > 9 > > k / +.@.@.5X5X5X5X5X5X5X5X5X5X5X5X5X5X5X5X5X5X",
"5X5X5X5X5X5X5X5X5X5X5X5X5X5X5X5X5X5X5X5X5X| h h h h h h h h h h 9 9 9 9 > 9 9 > q z +.5X5X5X5X5X5X5X5X5X5X5X5X5X5X5X5X5X5X5X5X5X",
"5X5X5X5X5X5X5X5X5X5X5X5X5X5X5X5X5X5X5X5X5X5X@...^ h h h h h h g 9 > > > q > > y z o.&X5X5X5X5X5X5X5X5X5X5X5X5X5X5X5X5X5X5X5X5X5X",
"5X5X5X5X5X5X5X5X5X5X5X5X5X5X5X5X5X5X5X5X5X5X5X<X@...{ z h g h l e q > > 0 e y | &X5X5X5X5X5X5X5X5X5X5X5X5X5X5X5X5X5X5X5X5X5X5X5X",
"5X5X5X5X5X5X5X5X5X5X5X5X5X5X5X5X5X5X5X5X5X5X5X5X5X5X$XW l h g l q > 9 y y +.&X5X5X5X5X5X5X5X5X5X5X5X5X5X5X5X5X5X5X5X5X5X5X5X5X5X",
"5X5X5X5X5X5X5X5X5X5X5X5X5X5X5X5X5X5X5X5X5X5X5X5X5X5X<X:X;XW l f q e e +.+.5X5X5X5X5X5X5X5X5X5X5X5X5X5X5X5X5X5X5X5X5X5X5X5X5X5X5X",
"5X5X5X5X5X5X5X5X5X5X5X5X5X5X5X5X5X5X5X5X5X5X5X5X5X5X5X5X2X*X#Xl e  .+.5X5X5X5X5X5X5X5X5X5X5X5X5X5X5X5X5X5X5X5X5X5X5X5X5X5X5X5X5X",
"5X5X5X5X5X5X5X5X5X5X5X5X5X5X5X5X5X5X5X5X5X5X5X5X5X5X5X5X5X5X5X:X5X5X5X5X5X5X5X5X5X5X5X5X5X5X5X5X5X5X5X5X5X5X5X5X5X5X5X5X5X5X5X5X",
"5X5X5X5X5X5X5X5X5X5X5X5X5X5X5X5X5X5X5X5X5X5X5X5X5X5X5X5X5X5X5X5X5X5X5X5X5X5X5X5X5X5X5X5X5X5X5X5X5X5X5X5X5X5X5X5X5X5X5X5X5X5X5X5X",
"5X5X5X5X5X5X5X5X5X5X5X5X5X5X5X5X5X5X5X5X5X5X5X5X5X5X5X5X5X5X5X5X5X5X5X5X5X5X5X5X5X5X5X5X5X5X5X5X5X5X5X5X5X5X5X5X5X5X5X5X5X5X5X5X"
};
